<?xml version="1.0" standalone="no"?>
<!DOCTYPE svg PUBLIC "-//W3C//DTD SVG 20010904//EN"
 "http://www.w3.org/TR/2001/REC-SVG-20010904/DTD/svg10.dtd">
<svg version="1.0" xmlns="http://www.w3.org/2000/svg"
 width="300.000000pt" height="150.000000pt" viewBox="0 0 300.000000 150.000000"
 preserveAspectRatio="xMidYMid meet">
<metadata>
Created by potrace 1.10, written by Peter Selinger 2001-2011
</metadata>
<g transform="translate(0.000000,150.000000) scale(0.100000,-0.100000)"
fill="#000000" stroke="none">
<path d="M3 1460 c0 -25 2 -35 4 -22 2 12 2 32 0 45 -2 12 -4 2 -4 -23z"/>
<path d="M62 1493 c39 -3 47 -8 51 -26 l4 -22 2 23 c1 29 51 33 51 3 0 -14 -6
-18 -22 -15 l-23 5 23 -10 c26 -12 29 -38 5 -44 -17 -4 -17 -5 0 -6 10 -1 17
-9 17 -20 0 -17 -7 -20 -51 -19 -48 0 -51 1 -46 24 4 22 1 24 -34 24 -37 0
-39 -2 -39 -30 l0 -30 85 0 85 0 1 -27 c2 -28 2 -28 6 -3 3 14 10 28 17 32 8
6 8 8 -1 8 -7 0 -13 9 -13 20 0 18 7 20 55 20 37 0 55 -4 55 -12 0 -9 3 -10 8
-2 4 6 14 14 22 17 8 3 -6 6 -32 6 l-48 1 0 40 c0 36 2 40 25 40 23 0 25 -3
21 -35 -3 -19 0 -35 5 -35 5 0 9 16 9 35 l0 35 50 0 c43 0 50 -3 50 -20 0 -11
3 -20 8 -21 29 -3 47 -9 50 -18 2 -7 9 -5 18 4 8 8 21 12 29 9 8 -4 15 -1 15
6 0 7 -8 10 -20 7 -12 -3 -24 1 -30 11 -5 10 -10 12 -10 5 0 -19 -50 -16 -50
2 0 12 13 15 55 15 37 0 55 -4 55 -12 0 -9 3 -10 8 -2 4 6 14 14 22 17 8 3
-109 5 -260 4 -151 0 -254 -2 -228 -4z m168 -24 c0 -16 -4 -19 -21 -14 -15 5
-19 4 -15 -4 4 -6 14 -11 22 -11 8 0 14 -7 14 -15 0 -9 -9 -15 -25 -15 -22 0
-25 4 -25 40 0 36 3 40 25 40 19 0 25 -5 25 -21z m-170 -89 c0 -15 -7 -20 -25
-20 -18 0 -25 5 -25 20 0 15 7 20 25 20 18 0 25 -5 25 -20z"/>
<path d="M583 1493 c9 -2 23 -2 30 0 6 3 -1 5 -18 5 -16 0 -22 -2 -12 -5z"/>
<path d="M630 1455 c0 -43 -1 -45 -30 -45 -20 0 -30 -5 -30 -15 0 -8 5 -15 11
-15 5 0 7 5 4 10 -4 6 5 10 19 10 19 0 26 -5 26 -20 0 -17 -6 -20 -41 -18 -28
1 -46 -5 -60 -18 -18 -18 -18 -22 -5 -59 30 -82 107 -327 104 -331 -2 -1 -82
14 -178 35 -122 26 -179 35 -188 28 -20 -16 -5 -21 193 -62 99 -20 190 -39
202 -42 20 -4 17 9 -48 209 -38 117 -69 216 -69 221 0 4 23 7 50 7 47 0 50 2
50 25 0 34 46 36 53 3 l4 -23 2 23 c1 16 7 22 26 22 33 0 35 -37 3 -43 l-23
-4 23 -2 c27 -1 30 -31 2 -31 -11 0 -20 -4 -20 -10 0 -5 9 -10 20 -10 11 0 20
-7 20 -15 0 -26 -48 -19 -53 8 l-4 22 -2 -22 c-1 -17 -7 -23 -25 -23 -21 0
-25 5 -29 38 l-4 37 -1 -37 c-2 -32 -6 -37 -29 -41 l-28 -4 27 -2 c16 0 28 -8
31 -18 4 -17 5 -17 6 0 1 11 9 17 27 17 24 0 25 -3 24 -42 -3 -64 -2 -65 29
-60 22 3 30 0 34 -15 4 -16 5 -16 6 0 1 21 41 24 41 2 0 -8 -5 -15 -12 -15 -6
0 -8 -3 -4 -7 4 -4 22 -6 41 -5 29 2 35 -1 35 -17 0 -15 -8 -21 -32 -24 l-33
-4 33 -1 c25 -2 32 -6 32 -22 0 -19 -17 -19 -45 0 -5 4 -19 -2 -29 -13 -16
-17 -17 -19 -3 -14 12 5 17 1 17 -13 0 -13 -7 -20 -20 -20 -14 0 -20 7 -20 23
0 17 -6 23 -25 25 -14 1 -25 -3 -25 -9 0 -5 8 -9 17 -7 10 2 19 -4 21 -14 3
-14 -3 -18 -22 -18 -24 0 -26 4 -26 39 0 22 5 42 13 44 10 4 10 6 0 6 -20 1
-16 41 4 41 9 0 13 3 10 7 -4 3 -25 6 -46 5 -34 -2 -40 2 -44 21 -4 19 -4 18
-6 -5 -1 -25 3 -28 29 -28 41 0 43 -37 3 -43 l-28 -4 28 -2 c25 -1 27 -4 27
-40 0 -22 -5 -42 -12 -44 -10 -4 -10 -6 0 -6 8 -1 12 -21 12 -66 0 -62 -1 -65
-24 -65 -19 0 -26 6 -29 28 l-4 27 -2 -27 c-1 -23 -6 -28 -27 -28 -23 0 -25 3
-20 24 3 14 2 28 -4 31 -6 4 -10 -8 -10 -29 0 -33 2 -36 30 -36 l30 0 0 -90 0
-90 -55 0 c-30 0 -55 -4 -55 -9 0 -4 11 -6 25 -3 23 4 25 1 25 -32 0 -20 5
-36 10 -36 6 0 10 5 10 10 0 6 7 10 15 10 8 0 15 5 15 10 0 6 -8 10 -17 8 -10
-2 -19 4 -21 15 -3 13 3 17 22 17 24 0 26 -4 26 -40 0 -39 -1 -40 -34 -40 -30
0 -33 -2 -28 -25 4 -24 2 -25 -47 -25 -44 0 -51 3 -51 19 0 11 8 22 18 24 9 3
-5 5 -33 4 -27 0 -38 -2 -22 -4 19 -3 27 -10 27 -24 0 -25 -47 -27 -53 -1 -4
16 -5 16 -6 0 -1 -14 -10 -17 -48 -16 -27 0 -50 4 -53 8 -3 4 -11 2 -18 -6
-11 -12 13 -14 163 -14 l175 0 -4 -32 c-3 -18 -5 -36 -5 -40 -1 -5 -19 -8 -41
-8 -39 0 -40 1 -40 35 0 19 -4 35 -10 35 -5 0 -7 -6 -4 -14 4 -11 0 -13 -15
-9 -12 3 -21 1 -21 -6 0 -6 3 -10 8 -10 30 5 47 -23 20 -34 -10 -4 -10 -6 0
-6 6 -1 12 -10 12 -21 0 -14 -7 -20 -22 -21 -21 -1 -21 -2 -3 -6 11 -3 23 -10
27 -17 6 -8 8 -7 8 2 0 6 9 12 20 12 16 0 20 -7 20 -37 0 -26 3 -33 9 -24 5 7
7 35 4 62 -3 41 -1 49 13 49 14 0 16 -7 10 -38 -3 -20 -6 -49 -6 -64 0 -25 -4
-28 -34 -28 -19 0 -37 6 -39 13 -4 9 -6 9 -6 0 -1 -7 -12 -13 -26 -13 -23 0
-25 4 -26 43 -1 23 -3 34 -6 25 -2 -10 -13 -18 -24 -18 -10 0 -19 -4 -19 -10
0 -5 9 -10 20 -10 11 0 20 -7 20 -15 0 -9 -9 -15 -25 -15 -22 0 -25 4 -25 40
0 25 5 40 13 40 8 0 9 3 1 8 -6 4 -14 14 -17 22 -4 12 -6 11 -6 -2 -1 -21 -46
-25 -54 -5 -4 10 -6 10 -6 0 -2 -22 -41 -15 -41 6 0 16 8 19 51 19 28 1 54 3
57 6 3 3 -9 6 -26 6 -22 0 -32 5 -32 15 0 8 9 15 20 15 11 0 20 5 20 10 0 6
-9 10 -20 10 -11 0 -20 6 -20 13 0 9 -2 9 -8 0 -11 -18 -48 -21 -44 -3 3 10
-3 9 -18 -5 -19 -17 -20 -21 -6 -23 9 -2 16 -10 16 -17 0 -10 -15 -14 -55 -14
-35 0 -55 5 -55 12 0 9 -2 9 -8 1 -4 -7 -18 -14 -32 -17 -25 -4 -25 -4 3 -6
20 -1 27 -6 27 -21 0 -18 -7 -20 -80 -20 -72 0 -80 2 -80 19 0 12 8 21 23 24
22 4 22 4 0 6 -18 1 -23 8 -26 39 -2 20 -4 -42 -5 -138 0 -96 2 -169 5 -162 2
6 11 12 19 12 8 0 14 5 14 11 0 6 -7 9 -15 5 -10 -3 -15 1 -15 14 0 14 9 20
32 23 l33 4 -32 1 -33 2 0 65 c0 63 1 65 25 65 16 0 25 -6 25 -15 0 -8 -9 -15
-20 -15 -11 0 -20 -4 -20 -10 0 -5 9 -10 20 -10 25 0 22 -23 -5 -32 -18 -5
-18 -6 3 -7 13 -1 21 -5 17 -10 -3 -5 -1 -12 5 -16 5 -3 10 1 10 9 0 8 8 17
18 19 16 4 16 5 0 6 -22 1 -24 31 -3 31 8 0 15 5 15 10 0 6 -7 10 -15 10 -8 0
-15 7 -15 15 0 18 91 19 102 1 6 -8 8 -7 8 2 0 6 11 12 25 12 24 0 24 0 7 -29
-15 -26 -18 -27 -29 -13 -7 10 -13 13 -13 8 0 -6 -6 -1 -14 10 -8 10 -17 16
-20 13 -10 -10 6 -78 20 -83 11 -4 12 -1 4 14 -12 22 4 38 23 22 19 -17 31
-11 45 21 17 42 16 47 -18 47 -23 0 -30 4 -30 20 0 26 46 28 53 3 4 -17 5 -17
6 0 1 11 9 17 25 17 32 0 33 -39 1 -41 -20 -1 -20 -1 0 -6 11 -3 23 -10 27
-17 6 -8 8 -7 8 2 0 6 9 12 20 12 11 0 20 -4 20 -10 0 -5 5 -10 11 -10 5 0 7
5 4 10 -4 6 5 10 19 10 24 0 26 -4 26 -40 0 -31 -4 -40 -17 -40 -9 0 -13 -3
-10 -7 4 -3 25 -6 47 -5 34 2 40 -1 40 -18 0 -15 -7 -20 -29 -20 -15 0 -42 -5
-59 -11 l-31 -11 19 -39 c11 -21 19 -39 16 -39 -2 0 -20 7 -39 15 -20 8 -38
15 -41 15 -11 0 -11 -63 0 -78 12 -16 13 -15 14 5 0 49 8 53 56 33 24 -11 44
-17 44 -15 0 2 -9 20 -21 39 -11 19 -18 39 -15 44 7 12 85 32 122 32 23 0 25
-3 20 -24 -3 -14 -2 -28 4 -31 6 -4 10 6 10 24 0 28 3 31 30 31 26 0 30 -4 30
-27 0 -22 -2 -25 -10 -13 -8 11 -9 8 -4 -12 6 -27 4 -28 -29 -28 -24 0 -39 6
-46 17 -13 23 -37 3 -27 -22 5 -14 9 -15 20 -6 8 7 17 8 20 3 3 -5 19 -7 36
-4 23 3 30 0 30 -12 0 -18 8 -20 30 -6 13 8 13 11 1 22 -10 10 -12 10 -7 1 4
-7 2 -13 -5 -13 -7 0 -9 11 -6 32 3 18 13 96 22 173 9 77 17 151 20 165 2 14
4 29 4 33 1 5 7 5 14 1 10 -6 10 -4 0 7 -7 7 -13 25 -13 40 0 22 4 26 20 22
12 -3 20 0 20 6 0 7 -8 11 -17 9 -10 -2 -19 4 -21 14 -3 14 3 18 24 18 l27 0
-7 -63 -6 -62 149 -115 148 -115 -117 -56 c-65 -32 -141 -68 -168 -80 -28 -13
-53 -31 -55 -41 -4 -14 -16 -18 -55 -18 -31 0 -52 5 -55 13 -4 10 -6 10 -6 0
-1 -17 -48 -17 -54 0 -4 9 -6 9 -6 0 -1 -9 -21 -13 -64 -13 -60 0 -64 -1 -63
-22 1 -19 -4 -23 -27 -21 -15 1 -27 -1 -27 -5 0 -12 20 -37 20 -26 0 19 40 25
41 6 0 -11 2 -12 6 -4 2 6 13 12 24 12 10 0 19 4 19 9 0 5 -8 8 -17 7 -10 0
-19 7 -21 17 -3 13 3 17 22 17 24 0 26 -4 26 -40 l0 -40 -80 0 -80 0 0 40 c0
34 3 40 23 41 18 1 19 2 3 6 -26 7 -39 -11 -38 -52 1 -31 -1 -35 -23 -35 -29
0 -34 26 -8 33 16 4 16 5 -1 6 -15 1 -17 8 -14 42 3 32 1 37 -8 25 -6 -9 -21
-16 -34 -16 -18 0 -22 4 -18 25 5 25 4 25 -58 25 l-64 0 0 -30 c0 -27 3 -30
33 -29 30 2 30 2 5 6 -20 3 -28 10 -28 24 0 25 47 27 53 2 4 -17 5 -17 6 0 2
26 39 22 43 -5 2 -17 11 -24 31 -26 24 -3 27 -7 27 -43 0 -35 -3 -39 -25 -39
-16 0 -25 6 -25 15 0 9 9 15 22 15 26 0 16 13 -12 15 -15 1 -20 -5 -20 -22 0
-31 -37 -32 -43 0 -4 22 -4 22 -6 0 -1 -17 -9 -23 -34 -26 -17 -2 420 -4 973
-4 553 1 984 2 958 4 -46 4 -48 5 -48 36 0 18 -4 27 -8 21 -4 -7 -16 -14 -27
-17 -18 -4 -18 -5 3 -6 12 -1 22 -7 22 -16 0 -12 -19 -15 -110 -15 -91 0 -110
3 -110 15 0 8 7 15 15 15 8 0 15 5 15 11 0 6 -7 9 -15 5 -10 -3 -15 1 -15 12
0 10 -3 13 -8 6 -4 -6 -16 -16 -27 -22 -19 -11 -19 -11 3 -12 13 0 22 -6 22
-15 0 -9 -9 -15 -25 -15 -22 0 -25 4 -25 39 0 33 4 40 23 44 19 4 19 4 -5 6
-21 1 -27 -4 -30 -21 -2 -15 -10 -23 -23 -23 -15 0 -22 9 -26 35 -4 19 -7 29
-8 23 -2 -19 -38 -16 -45 3 -4 11 3 19 24 27 16 6 30 17 30 24 0 18 -29 16
-36 -2 -4 -9 -19 -15 -40 -15 -33 0 -34 2 -34 38 0 20 -4 32 -8 26 -4 -6 -17
-14 -29 -18 -19 -6 -23 -4 -23 13 0 17 6 21 34 21 31 0 33 2 28 22 -5 19 -7
20 -10 6 -5 -24 -49 -24 -55 -1 -4 17 -5 17 -6 1 -1 -12 -9 -18 -26 -18 -20 0
-25 5 -25 25 0 19 -5 25 -23 25 -13 0 -28 5 -35 12 -9 9 -12 9 -12 0 0 -7 -8
-12 -17 -12 -9 0 -14 -3 -10 -6 3 -4 25 -6 48 -6 38 1 41 -1 36 -24 -4 -22 -1
-24 29 -24 33 0 34 -1 34 -39 0 -33 -4 -40 -22 -44 l-23 -4 23 -2 c15 -1 22
-7 22 -21 0 -16 -7 -20 -30 -20 -25 0 -30 -4 -30 -24 0 -15 -7 -26 -17 -29
-17 -4 -17 -5 0 -6 9 0 17 -8 17 -16 0 -23 -97 -21 -103 3 -4 16 -5 16 -6 0
-1 -12 -9 -18 -26 -18 -26 0 -36 25 -13 32 7 3 6 7 -5 11 -13 5 -17 1 -17 -18
0 -20 -5 -25 -25 -25 -16 0 -25 6 -25 15 0 8 9 15 20 15 11 0 20 4 20 9 0 6
-9 8 -20 6 -14 -3 -20 2 -20 13 -1 15 -2 15 -11 -1 -6 -9 -14 -15 -20 -12 -5
4 -9 1 -9 -5 0 -7 7 -10 15 -6 10 4 15 -1 15 -14 0 -18 -7 -20 -79 -20 -67 0
-80 3 -84 18 -4 16 -5 16 -6 0 -1 -12 -9 -18 -26 -18 -22 0 -25 4 -25 39 0 22
5 42 13 44 9 4 9 6 0 6 -7 1 -13 10 -13 21 0 16 7 20 30 20 29 0 30 2 28 43
l-1 42 -4 -38 c-4 -31 -8 -37 -28 -37 -17 0 -25 7 -28 23 l-4 22 -2 -22 c-1
-20 -7 -23 -43 -24 -24 0 -37 -3 -30 -6 6 -2 12 -13 12 -24 0 -24 -37 -26 -43
-1 -4 15 -5 15 -6 0 0 -9 -11 -19 -23 -21 l-23 -4 23 -2 c32 -2 30 -36 -3 -36
-21 0 -25 5 -25 27 0 22 -4 26 -17 21 -11 -4 -12 -8 -5 -11 7 -2 12 -21 12
-43 0 -35 -3 -39 -25 -39 -16 0 -25 6 -25 15 0 8 9 15 20 15 11 0 20 5 20 11
0 6 -9 9 -19 6 -13 -3 -21 1 -24 12 -3 9 -5 -1 -6 -21 l-1 -38 -80 0 -80 0 0
36 c0 32 -2 34 -15 20 -18 -17 -45 -11 -45 10 0 11 22 14 105 14 l105 0 133
64 c235 113 269 127 283 122 8 -3 14 -3 14 -1 0 2 -80 66 -177 141 -98 75
-178 140 -177 145 1 5 2 27 3 49 1 36 4 40 26 40 16 0 25 -6 25 -15 0 -8 -9
-15 -20 -15 -11 0 -20 -4 -20 -10 0 -5 9 -10 20 -10 28 0 26 -30 -2 -31 -21
-1 -21 -2 -3 -6 11 -3 23 -10 27 -17 6 -8 8 -7 8 2 0 20 54 14 67 -7 11 -18
10 -20 -17 -19 -17 1 -34 -2 -38 -6 -4 -5 13 -7 38 -6 80 5 110 1 110 -14 0
-20 -48 -27 -53 -7 -4 13 -5 13 -6 -2 0 -10 -6 -15 -12 -12 -6 4 -5 -2 2 -14
8 -11 16 -17 19 -12 3 4 15 10 28 13 17 5 22 2 22 -13 0 -11 -7 -19 -17 -20
-14 0 -15 -2 -3 -6 8 -3 18 -11 22 -17 5 -8 8 -7 8 2 0 6 11 12 25 12 18 0 25
-5 25 -20 0 -11 -5 -20 -10 -20 -6 0 -5 -6 2 -14 8 -9 15 -10 19 -3 4 5 16 7
28 4 25 -6 31 1 20 28 -6 17 -8 17 -8 3 -1 -29 -41 -23 -41 5 0 19 5 23 23 21
12 -1 34 -3 49 -3 20 -1 27 -7 30 -23 2 -15 10 -23 23 -24 15 -1 16 0 3 3 -10
3 -18 13 -18 24 0 15 7 19 35 19 36 0 46 -15 23 -38 -9 -9 -6 -16 12 -32 13
-11 27 -20 31 -20 4 0 10 -10 12 -22 2 -13 3 -7 1 12 -3 26 27 150 40 167 1 2
26 -7 56 -18 29 -11 56 -16 60 -12 4 4 18 40 30 78 13 39 23 71 24 72 1 1 35
-5 75 -13 40 -8 79 -13 85 -11 17 7 139 167 127 167 -6 0 -15 9 -21 20 -9 18
-8 20 15 20 15 0 24 -4 20 -10 -3 -5 -1 -10 4 -10 6 0 11 5 11 10 0 6 23 10
51 10 46 0 51 -2 46 -20 -3 -11 -1 -23 4 -26 5 -3 9 6 9 20 0 21 5 26 25 26
16 0 25 -6 25 -15 0 -8 -9 -15 -20 -15 -11 0 -20 -4 -20 -10 0 -5 11 -10 25
-10 20 0 25 5 25 25 0 23 3 25 50 25 38 0 50 -4 50 -15 0 -12 -8 -14 -39 -9
l-39 6 -9 -53 c-8 -51 -10 -54 -41 -57 -27 -3 -32 0 -32 17 0 17 7 21 33 22
l32 2 -30 4 c-16 3 -33 10 -37 16 -6 9 -8 9 -8 0 0 -6 -8 -14 -17 -16 -17 -4
-17 -5 0 -6 10 -1 17 -9 17 -21 0 -15 -7 -20 -25 -20 -20 0 -25 5 -25 25 0 23
-4 25 -37 23 -37 -1 -37 -1 -5 -5 24 -3 32 -9 32 -24 0 -12 -7 -19 -20 -19
-11 0 -20 7 -20 16 0 8 -5 12 -10 9 -6 -4 -8 -11 -5 -16 4 -5 -8 -9 -24 -9
-22 0 -31 -5 -31 -16 0 -9 -8 -23 -17 -31 -10 -8 -13 -12 -6 -9 6 4 16 -2 22
-11 8 -15 10 -11 11 20 0 32 3 37 24 37 13 0 27 -6 29 -12 4 -10 6 -10 6 0 1
6 10 12 21 12 14 0 20 -7 20 -21 0 -18 -4 -21 -28 -16 -26 5 -27 4 -29 -37 -1
-24 -8 -59 -17 -79 -13 -33 -13 -37 0 -37 8 0 13 4 10 8 -3 5 2 21 10 37 8 15
13 33 12 39 -1 6 1 21 6 33 6 20 14 22 82 22 80 0 98 5 90 27 -3 8 -2 14 3 14
7 0 19 49 23 97 1 9 19 11 67 8 67 -5 81 1 81 38 0 9 -4 17 -9 17 -4 0 -8 -8
-7 -17 1 -20 -4 -23 -34 -23 -27 0 -25 28 3 33 l22 4 -22 2 c-16 1 -23 7 -23
21 0 26 46 28 53 3 3 -10 5 10 6 45 1 59 2 62 26 62 18 0 25 -5 25 -20 0 -11
-7 -20 -15 -20 -9 0 -15 -9 -15 -24 0 -13 -3 -32 -7 -42 -4 -12 -3 -15 5 -10
7 4 12 16 12 27 0 10 7 19 15 19 19 0 19 -11 -4 -90 l-18 -65 -44 3 c-24 1
-53 5 -65 7 -19 4 -22 -3 -38 -75 -16 -74 -19 -80 -39 -76 -12 3 -47 8 -78 11
l-57 6 -12 -65 c-11 -61 -14 -66 -38 -66 -31 0 -19 -16 19 -25 25 -6 26 -4 40
62 8 37 19 67 24 67 6 -1 40 -5 76 -9 l67 -6 18 75 c20 84 23 86 106 67 37 -9
38 -8 48 28 5 20 16 59 25 86 14 47 14 51 -3 63 -13 8 -17 21 -14 42 4 29 7
30 56 31 28 1 41 4 29 6 -12 2 -24 12 -26 21 -4 15 -5 15 -6 0 -2 -26 -51 -25
-51 1 0 15 8 21 38 24 l37 4 -37 1 c-37 2 -38 3 -38 42 0 36 3 40 24 40 17 0
23 -5 21 -17 -1 -10 -9 -17 -19 -15 -9 2 -16 -2 -16 -8 0 -5 9 -10 21 -10 11
0 17 -5 14 -10 -11 -17 5 -11 28 11 17 17 18 21 5 16 -13 -5 -18 -1 -18 13 0
29 37 26 43 -2 l4 -23 2 23 c1 16 7 22 26 22 24 0 25 -2 25 -64 0 -59 -2 -65
-22 -69 l-23 -4 23 -2 c19 -1 22 -6 22 -46 0 -43 1 -45 29 -45 16 0 32 -6 34
-12 4 -10 6 -10 6 0 1 6 12 12 25 12 19 0 24 -5 23 -20 -1 -12 -7 -18 -14 -16
-7 3 -15 1 -18 -4 -4 -6 4 -10 15 -10 18 0 21 -4 17 -23 -4 -12 -2 -29 3 -37
7 -11 10 -5 10 21 0 34 2 37 34 41 19 2 33 1 31 -2 -2 -3 2 -15 8 -27 11 -19
13 -19 27 -5 13 14 12 15 -3 9 -13 -5 -17 -1 -17 17 0 13 -7 26 -15 30 -24 9
-17 26 11 26 23 0 26 -3 22 -25 -5 -23 -3 -25 31 -24 30 2 32 3 9 6 -38 6 -40
43 -3 43 16 0 25 -6 25 -15 0 -8 5 -15 11 -15 6 0 9 7 5 15 -4 13 8 15 74 15
l80 0 1 -67 c1 -38 3 -60 6 -50 2 9 13 17 24 17 10 0 19 5 19 10 0 6 -9 10
-20 10 -11 0 -20 7 -20 15 0 9 9 15 25 15 23 0 25 -4 25 -45 0 -43 1 -45 30
-45 23 0 30 -4 30 -20 0 -11 -7 -20 -15 -20 -8 0 -15 5 -15 10 0 13 -39 13
-81 -1 -19 -7 -35 -13 -37 -15 -2 -1 6 -20 17 -43 12 -22 21 -42 21 -45 0 -3
-21 4 -46 15 -26 11 -48 18 -50 16 -9 -8 -7 -78 3 -88 7 -7 12 0 17 25 4 20 8
36 10 36 2 0 23 -7 46 -15 23 -8 44 -15 46 -15 3 0 -5 18 -16 40 -11 21 -20
43 -20 48 0 17 66 28 147 24 l82 -4 4 -37 c2 -20 4 43 4 139 0 96 -2 158 -4
138 l-4 -38 -58 0 c-57 0 -58 -1 -53 -25 4 -22 1 -25 -22 -25 -22 0 -26 4 -26
28 0 26 -3 28 -30 24 -26 -4 -30 -1 -30 18 0 17 4 20 21 15 15 -5 19 -4 15 4
-4 6 -14 11 -22 11 -8 0 -14 7 -14 16 0 12 7 15 30 12 27 -4 30 -2 30 24 0 24
4 28 26 28 23 0 26 -3 22 -25 -5 -25 -4 -25 58 -25 l64 0 0 240 0 240 -67 -2
c-38 0 -53 -3 -35 -5 26 -4 32 -9 32 -29 0 -20 5 -24 30 -24 28 0 30 -2 30
-40 0 -40 0 -41 -35 -38 -41 2 -48 -2 -29 -20 8 -7 14 -8 14 -2 0 5 11 10 25
10 24 0 25 -2 25 -65 0 -63 -1 -65 -25 -65 -16 0 -25 6 -25 15 0 8 9 15 20 15
11 0 20 5 20 10 0 6 -9 10 -20 10 -28 0 -26 30 3 31 l22 1 -23 7 c-13 3 -44 4
-70 2 -26 -3 -39 -6 -29 -9 9 -2 17 -10 17 -18 0 -17 -46 -19 -53 -1 -3 6 -6
-5 -6 -25 -1 -34 -4 -38 -26 -38 -16 0 -25 6 -25 15 0 8 9 15 20 15 11 0 20 5
20 10 0 6 -9 10 -19 10 -11 0 -22 8 -24 18 -3 9 -5 -2 -6 -25 -1 -39 -3 -42
-33 -46 l-33 -4 33 -1 c24 -2 32 -7 32 -21 0 -14 -8 -21 -27 -24 l-28 -4 28
-2 c36 -1 37 -31 1 -31 -14 0 -23 -4 -19 -9 3 -6 14 -8 25 -6 14 3 20 -2 20
-15 0 -11 -9 -20 -22 -23 l-23 -4 23 -2 c15 -1 22 -7 22 -21 0 -16 -8 -20 -57
-23 l-58 -3 58 -2 c47 -2 57 -5 57 -19 0 -15 -8 -18 -47 -16 -25 1 -50 8 -54
15 -7 10 -9 10 -9 1 0 -7 -7 -13 -15 -13 -8 0 -15 -4 -15 -10 0 -5 6 -10 14
-10 8 0 17 -6 19 -12 4 -8 6 -7 6 4 1 20 41 13 41 -8 0 -18 -96 -20 -103 -1
-4 10 -6 10 -6 0 -1 -17 -48 -17 -54 0 -4 10 -6 9 -6 0 -1 -7 -12 -13 -25 -13
-13 0 -27 6 -29 13 -4 10 -6 10 -6 0 -1 -7 -10 -13 -21 -13 -16 0 -20 7 -20
38 0 27 -3 33 -10 22 -5 -8 -7 -25 -3 -37 5 -22 2 -23 -51 -23 -43 0 -56 3
-56 15 0 8 5 15 10 15 6 0 10 5 10 11 0 5 -4 7 -10 4 -5 -3 -10 3 -10 14 0 17
6 21 30 21 25 0 30 4 30 25 0 20 5 25 25 25 33 0 35 -37 3 -43 -20 -4 -19 -4
5 -6 18 -1 27 4 27 14 0 8 5 15 10 15 6 0 10 -6 10 -14 0 -8 3 -17 8 -19 4 -3
57 4 117 14 61 10 114 19 119 19 8 0 6 31 -15 183 -8 54 -15 77 -25 77 -17 0
-17 0 1 -125 8 -54 13 -100 12 -102 -9 -8 -202 -33 -219 -27 -15 5 -19 13 -16
35 3 17 0 29 -6 29 -6 0 -5 4 2 9 16 10 18 21 4 30 -6 3 -13 26 -16 51 -3 25
-7 53 -8 64 -2 11 4 20 14 21 73 12 110 17 152 20 27 2 54 9 60 15 12 12 -11
10 -164 -14 l-75 -12 2 -42 c2 -55 -24 -59 -30 -4 l-4 37 -1 -37 c-2 -32 -5
-37 -29 -40 -20 -2 -29 -9 -31 -25 -3 -17 -10 -23 -28 -23 -20 0 -25 5 -24 23
3 37 0 53 -8 41 -4 -6 -14 -14 -22 -17 -12 -4 -11 -6 3 -6 10 -1 17 -9 17 -20
0 -16 -8 -19 -49 -19 -39 -1 -51 3 -54 16 -4 16 -5 16 -6 0 0 -9 -11 -19 -23
-21 l-23 -4 23 -2 c19 -1 22 -7 22 -41 0 -36 -2 -40 -25 -40 -18 0 -25 5 -25
19 0 14 5 18 20 14 11 -3 20 -1 20 5 0 5 -11 10 -25 10 -20 0 -25 -6 -25 -24
0 -23 -3 -24 -72 -25 -40 -1 -65 -3 -55 -6 9 -2 15 -9 12 -14 -4 -5 -1 -9 4
-9 6 0 11 5 11 10 0 14 37 12 43 -2 4 -10 6 -10 6 0 1 6 12 12 26 12 33 0 35
-37 3 -43 l-23 -4 23 -2 c19 -1 22 -7 22 -41 0 -36 -2 -40 -26 -40 -19 0 -25
4 -22 18 2 10 11 16 21 14 9 -2 17 2 17 8 0 5 -11 10 -25 10 -20 0 -25 -5 -25
-24 l0 -25 -132 0 c-90 -1 -136 3 -147 12 -12 9 -13 9 -7 0 5 -9 0 -13 -18
-13 -17 0 -26 6 -29 23 -5 19 -5 19 -4 -3 2 -23 6 -25 55 -28 44 -3 52 -6 52
-23 0 -14 -7 -19 -25 -19 -19 0 -23 4 -19 18 5 16 5 16 -9 0 -17 -21 -43 -23
-50 -5 -4 10 -6 10 -6 0 -1 -17 -48 -17 -54 0 -4 10 -6 9 -6 0 -1 -7 -12 -13
-26 -13 -37 0 -35 37 3 43 l27 4 -27 2 c-35 1 -37 27 -3 33 16 4 25 0 28 -11
3 -9 5 8 6 37 0 28 6 52 11 52 6 0 10 9 10 19 0 11 7 27 16 35 8 9 11 16 5 16
-5 0 -7 12 -4 28 3 15 5 35 5 45 -1 10 4 15 10 11 6 -4 8 -3 5 3 -4 6 -4 25 0
43 6 34 8 35 108 14 11 -3 37 -7 58 -10 58 -9 63 -28 42 -153 -10 -58 -19
-107 -19 -108 -1 -1 -49 9 -106 22 -100 22 -119 21 -120 -5 0 -4 50 -16 112
-29 62 -13 117 -25 123 -27 7 -3 20 45 36 127 23 118 24 132 9 136 -12 3 -14
14 -12 44 3 32 8 39 26 39 20 0 22 -5 21 -45 -2 -43 -1 -45 27 -45 21 0 28 -5
28 -19 0 -15 -9 -21 -32 -24 -27 -4 -25 -4 7 -3 33 1 39 4 37 20 -2 10 2 23
10 27 8 5 8 9 2 9 -6 0 -11 17 -11 40 0 35 3 40 23 40 12 0 25 -6 27 -12 4
-10 6 -10 6 0 1 6 13 12 27 12 21 0 25 -4 21 -20 -3 -11 -1 -20 4 -20 5 0 9 9
9 19 0 14 8 21 28 24 l27 4 -27 2 c-21 1 -28 6 -28 21 0 16 7 20 30 20 22 0
30 5 29 18 0 10 -3 12 -6 5 -2 -7 -18 -13 -34 -13 -24 0 -29 -4 -29 -25 0 -20
-5 -25 -24 -25 -13 0 -27 6 -29 13 -4 10 -6 10 -6 0 -1 -7 -12 -13 -26 -13
-33 0 -35 37 -2 43 l22 4 -22 2 c-27 1 -31 30 -5 32 9 1 24 2 32 3 10 1 14 9
12 24 -3 18 2 22 23 22 20 0 26 -4 23 -17 -2 -10 -10 -17 -16 -16 -7 2 -12 -2
-12 -8 0 -6 6 -9 14 -6 9 4 17 -1 19 -11 4 -16 5 -16 6 0 1 11 6 15 16 12 8
-4 15 -1 15 5 0 6 -7 11 -16 11 -10 0 -14 7 -12 23 3 19 -1 22 -29 19 -27 -3
-33 0 -33 17 0 12 8 21 23 24 l22 4 -22 2 c-25 1 -30 20 -10 40 10 11 10 13 0
7 -9 -5 -13 0 -13 13 0 16 6 21 24 21 20 0 25 -6 29 -32 l4 -33 1 33 2 32 80
0 80 0 0 -40 0 -40 -42 -1 c-24 0 -37 -3 -30 -6 6 -2 12 -13 12 -23 0 -14 -9
-20 -32 -23 -18 -2 -5 -5 30 -5 l62 -2 1 -42 c1 -25 4 -33 6 -20 3 15 10 22
19 18 8 -3 14 -1 14 4 0 6 -7 10 -15 10 -8 0 -15 7 -15 15 0 9 10 15 26 15 22
0 25 -3 21 -23 -4 -12 -2 -29 3 -37 7 -11 10 -5 10 23 0 34 2 37 30 37 25 0
30 4 30 25 0 23 3 25 50 25 41 0 50 -3 51 -17 0 -14 2 -15 6 -3 3 8 11 18 17
22 8 5 7 8 -1 8 -8 0 -13 15 -13 40 0 36 3 40 25 40 18 0 25 -5 25 -19 0 -14
-5 -18 -20 -14 -11 3 -20 1 -20 -5 0 -5 8 -9 18 -8 12 1 17 -6 16 -21 0 -19 5
-23 33 -23 39 0 46 -25 11 -40 -20 -8 -19 -9 12 -9 19 1 30 3 24 5 -18 7 -4
44 16 44 10 0 21 -7 24 -16 8 -21 8 -34 -1 -33 -5 1 -18 -2 -30 -6 -19 -6 -20
-9 -8 -21 7 -8 19 -14 25 -14 7 0 10 -7 6 -15 -3 -8 -1 -15 5 -15 6 0 8 -7 5
-16 -5 -12 -2 -15 10 -10 8 3 18 6 20 6 2 0 4 5 4 10 0 6 -8 10 -17 10 -9 0
-13 3 -10 7 4 3 -3 17 -15 30 -20 22 -20 23 -2 23 10 0 24 11 30 24 8 18 7 27
-7 44 -17 22 -36 31 -24 12 4 -6 -13 -10 -44 -10 l-51 0 0 40 0 40 80 0 c64 0
80 -3 80 -15 0 -18 -46 -21 -53 -2 -4 10 -6 10 -6 0 -1 -7 -10 -13 -20 -13
-11 0 -22 6 -24 13 -4 7 -6 6 -6 -5 -1 -11 -7 -15 -21 -11 -12 3 -20 0 -20 -6
0 -7 4 -10 9 -6 5 3 16 -2 24 -10 11 -10 17 -11 19 -3 2 6 25 12 52 12 l48 1
-6 -40 c-5 -36 -5 -38 7 -17 10 17 15 20 25 10 9 -9 12 -9 12 4 0 9 -7 18 -15
22 -24 9 -17 26 10 26 17 0 25 -6 26 -17 0 -11 3 -13 6 -5 2 6 15 12 28 12 13
0 26 -6 28 -12 4 -10 6 -10 6 0 1 6 8 12 16 12 8 0 15 5 15 11 0 6 -7 9 -15 5
-10 -4 -15 1 -15 14 0 13 7 20 20 20 16 0 20 -7 20 -37 0 -28 3 -34 10 -23 5
8 7 25 3 37 -4 19 -1 23 20 23 22 0 26 -5 30 -37 l4 -38 1 43 2 42 -282 -2
c-156 -1 -262 -3 -236 -5 l48 -4 0 -40 0 -39 -72 -1 c-40 -1 -65 -3 -55 -6 27
-7 22 -43 -7 -43 -13 0 -27 6 -29 13 -4 10 -6 10 -6 0 -1 -7 -12 -13 -26 -13
-18 0 -25 5 -25 19 0 11 6 22 13 24 9 4 9 6 0 6 -8 1 -13 16 -13 41 0 36 3 40
24 40 18 0 26 -7 29 -22 l4 -23 2 23 c1 17 7 22 27 22 14 0 23 -4 19 -10 -3
-5 -1 -10 4 -10 6 0 11 7 11 15 0 13 -30 15 -210 15 l-210 0 0 -40 c0 -22 4
-40 9 -40 5 0 8 16 5 35 -4 32 -2 35 21 35 19 0 25 -5 25 -21 0 -11 -4 -18 -9
-14 -5 3 -12 1 -16 -5 -3 -5 1 -10 9 -10 9 0 16 -7 16 -15 0 -11 -12 -15 -47
-16 -27 -1 -40 -3 -30 -6 10 -3 17 -14 17 -29 0 -20 5 -24 30 -24 22 0 30 -5
30 -18 0 -13 -8 -18 -27 -17 -20 0 -29 -6 -31 -20 -3 -11 -9 -23 -16 -27 -8
-6 -7 -8 2 -8 6 0 12 -8 12 -18 0 -17 -9 -19 -80 -20 -72 -2 -80 0 -80 17 0
22 30 33 53 19 36 -20 97 27 97 75 0 19 -33 60 -51 63 -8 1 -22 5 -31 9 -11 5
-26 -2 -43 -19 -33 -33 -85 -36 -85 -6 0 27 50 29 51 3 0 -14 2 -15 6 -3 3 8
11 18 17 22 6 4 -18 7 -54 7 -36 -1 -57 -3 -47 -6 25 -7 21 -41 -5 -46 -13 -2
3 -5 35 -6 54 -1 58 -3 52 -21 -4 -11 -2 -20 4 -20 6 0 11 -6 11 -14 0 -8 6
-17 13 -19 6 -3 -4 -6 -23 -7 -19 -1 -29 -4 -22 -7 19 -7 15 -43 -5 -44 -14 0
-15 -2 -3 -6 8 -3 18 -11 22 -17 5 -8 8 -7 8 2 0 6 11 12 25 12 19 0 25 -5 25
-21 0 -19 -4 -21 -42 -15 -24 3 -78 15 -122 26 -43 11 -87 20 -97 20 -12 0
-19 7 -19 20 0 26 46 28 53 3 4 -17 5 -17 6 0 1 11 9 17 25 17 15 0 26 -7 29
-17 4 -16 5 -16 6 -1 0 9 9 19 19 21 9 3 -4 5 -30 6 -36 1 -48 5 -48 16 0 8 7
15 15 15 8 0 15 5 15 11 0 6 -7 9 -15 5 -10 -3 -15 1 -15 12 0 14 -2 15 -10 2
-5 -8 -7 -25 -3 -37 4 -20 1 -23 -21 -23 -24 0 -26 4 -26 39 0 33 4 40 23 44
l22 4 -22 2 c-16 1 -23 7 -23 20 0 12 8 21 23 24 l22 4 -22 2 c-20 1 -23 7
-23 41 0 36 3 40 25 40 19 0 25 -5 25 -21 0 -16 -4 -19 -22 -14 -22 6 -22 5
-3 -6 11 -7 23 -17 27 -23 4 -6 8 6 8 27 l0 37 109 0 110 0 4 -37 4 -38 1 37
c2 37 2 37 50 41 26 2 -185 4 -469 5 l-516 2 2 -35 c2 -47 15 -57 15 -12 l0
37 50 0 c43 0 50 -3 50 -20 0 -13 -5 -18 -15 -14 -8 4 -15 1 -15 -5 0 -6 6
-11 14 -11 8 0 17 -6 19 -12 3 -7 6 4 6 25 1 33 4 37 26 37 18 0 25 -5 25 -19
0 -14 -5 -18 -20 -14 -12 3 -20 0 -20 -6 0 -7 4 -10 9 -6 5 3 17 -2 25 -11 15
-14 16 -12 16 20 l0 36 80 0 80 0 0 -40 0 -40 -157 -2 c-87 -1 -139 -3 -115
-5 33 -3 42 -8 42 -23 0 -11 -9 -20 -22 -23 l-23 -4 23 -2 c19 -1 22 -7 22
-40 0 -29 -5 -41 -17 -44 -17 -4 -17 -5 0 -6 29 -2 21 -39 -10 -44 -26 -4 -26
-4 5 -6 28 -1 32 2 32 24 0 20 5 25 24 25 13 0 27 -6 29 -12 4 -10 6 -10 6 0
1 6 12 12 26 12 33 0 35 -37 3 -43 l-23 -4 23 -2 c27 -1 30 -31 2 -31 -11 0
-20 -4 -20 -10 0 -5 18 -10 40 -10 23 0 40 5 40 11 0 6 -7 9 -15 5 -10 -4 -15
1 -15 14 0 15 7 20 26 20 24 0 25 -2 19 -32 -4 -18 -9 -36 -12 -40 -7 -12 -31
-9 -36 5 -4 10 -6 10 -6 0 -1 -7 -12 -13 -25 -13 -19 0 -26 6 -29 28 l-4 27
-2 -27 c-1 -23 -6 -28 -26 -28 -22 0 -25 4 -26 38 0 20 -3 31 -6 25 -2 -7 -11
-13 -19 -13 -8 0 -14 -4 -14 -10 0 -5 7 -10 15 -10 8 0 15 -7 15 -15 0 -19
-96 -22 -103 -2 -4 10 -6 10 -6 0 -1 -20 -49 -16 -54 5 -4 16 -5 16 -6 0 -1
-12 -9 -18 -25 -18 -19 0 -26 6 -29 28 l-4 27 -2 -27 c-1 -23 -6 -28 -26 -28
-16 0 -25 6 -25 15 0 8 9 15 20 15 11 0 20 5 20 10 0 6 -10 10 -21 10 -16 0
-20 5 -16 20 4 17 0 20 -24 20 -22 0 -29 5 -29 20 0 15 7 20 25 20 16 0 25 -6
25 -16 0 -8 5 -12 10 -9 6 3 10 0 10 -8 0 -17 70 -57 99 -57 105 0 156 152 75
221 -24 21 -84 41 -84 29 0 -5 12 -13 28 -16 36 -9 53 -23 67 -59 29 -69 -21
-155 -89 -155 -27 0 -44 8 -71 34 -34 33 -39 50 -35 110 2 35 19 53 60 67 33
12 42 30 10 22 -14 -4 -20 0 -20 11 0 10 6 13 15 10 8 -4 15 -1 15 5 0 6 -5
10 -12 9 -6 -2 -14 5 -16 15 -2 13 3 17 22 17 19 0 26 -6 29 -27 l4 -28 2 27
c0 16 8 28 19 31 9 3 -45 5 -120 6 l-138 1 2 -42 1 -43 4 37 4 38 80 -1 79 -1
0 -39 c0 -28 -4 -39 -15 -39 -8 0 -15 -5 -15 -11 0 -17 -27 -39 -49 -39 -14 0
-21 6 -21 20 0 16 5 19 25 16 13 -3 27 0 30 5 4 5 -8 9 -24 9 -29 0 -31 3 -32
38 0 20 -3 31 -6 25 -2 -7 -13 -13 -24 -13 -10 0 -19 -4 -19 -10 0 -5 9 -10
20 -10 11 0 20 -7 20 -15 0 -12 -13 -15 -55 -15 -48 0 -55 3 -55 19 0 15 6 19
20 16 11 -2 18 0 15 6 -4 5 -13 9 -21 9 -23 0 -16 28 9 33 19 4 18 4 -5 6 -27
1 -28 -1 -28 -44z m752 3 l1 -33 4 33 c4 26 9 32 29 32 27 0 34 -26 9 -32 -13
-2 -12 -6 5 -20 20 -17 20 -17 20 17 l0 35 50 0 50 0 0 -36 c0 -33 1 -34 16
-19 19 19 38 15 42 -8 2 -11 -3 -17 -15 -18 -16 -1 -17 -2 0 -6 19 -5 24 -43
5 -44 -10 0 -10 -2 0 -6 7 -2 12 -22 12 -44 0 -37 -2 -39 -30 -39 -25 0 -30
-4 -30 -25 0 -30 -26 -34 -47 -7 -14 16 -14 16 -9 0 4 -13 0 -18 -17 -19 -17
-1 -18 -2 -4 -6 12 -3 17 -15 17 -39 0 -19 5 -34 12 -34 6 0 8 3 5 7 -4 3 1
12 11 20 9 8 12 12 6 9 -7 -3 -14 3 -17 14 -5 18 0 20 49 20 l54 0 0 -40 0
-40 -80 0 -80 0 -1 28 -2 27 -4 -27 c-3 -22 -10 -28 -29 -28 -16 0 -24 6 -25
18 -1 16 -2 16 -6 0 -3 -11 -15 -19 -31 -19 l-27 -2 28 -4 c19 -3 27 -10 27
-24 0 -26 -49 -27 -51 -1 -1 16 -2 16 -6 0 -3 -14 -15 -18 -54 -18 -42 0 -49
3 -49 19 0 13 8 21 22 23 16 2 24 12 29 38 4 18 14 39 23 46 27 19 18 25 -29
18 -41 -6 -45 -5 -45 15 0 14 6 21 20 21 11 0 20 -6 21 -12 0 -10 2 -10 6 0 2
6 16 12 29 12 13 0 24 -6 25 -12 0 -10 2 -10 6 0 2 6 18 12 34 12 28 0 29 2
29 45 l0 45 59 0 c56 0 59 1 53 23 -5 18 -7 19 -10 5 -5 -25 -42 -23 -42 2 0
16 7 20 33 20 32 0 32 1 29 40 -4 37 -22 58 -22 25 0 -9 -6 -12 -17 -8 -13 4
-11 -1 7 -18 l25 -24 -36 -3 c-32 -3 -36 -6 -31 -27 4 -23 2 -24 -52 -24 -49
0 -56 3 -56 20 0 11 7 19 18 20 16 1 16 2 0 6 -22 5 -24 33 -4 33 8 0 18 5 22
11 4 8 0 9 -15 4 -17 -5 -21 -2 -21 14 0 16 6 21 25 21 21 0 25 -5 27 -32z
m228 13 c0 -14 -6 -17 -25 -13 -14 2 -25 11 -25 18 0 8 10 14 25 14 18 0 25
-5 25 -19z m1210 4 c0 -9 -9 -15 -25 -15 -16 0 -25 6 -25 15 0 9 9 15 25 15
16 0 25 -6 25 -15z m60 1 c0 -7 -11 -16 -25 -18 -19 -4 -25 -1 -25 13 0 14 7
19 25 19 15 0 25 -6 25 -14z m-1730 -96 c0 -15 -7 -20 -25 -20 -18 0 -25 5
-25 20 0 15 7 20 25 20 18 0 25 -5 25 -20z m170 1 c0 -15 -8 -21 -32 -24 -18
-2 -5 -5 30 -5 l62 -2 0 -40 c0 -36 -2 -40 -25 -40 -16 0 -25 6 -25 15 0 8 9
15 20 15 11 0 20 5 20 10 0 6 -9 10 -19 10 -11 0 -22 6 -24 13 -3 6 -6 -5 -6
-25 l-1 -38 -50 0 c-33 0 -50 4 -51 13 0 10 -2 10 -6 0 -2 -7 -16 -13 -29 -13
-21 0 -24 5 -24 38 0 20 -4 32 -8 26 -4 -6 -17 -13 -29 -16 -18 -5 -23 -2 -23
13 0 15 7 19 34 19 30 0 33 2 28 25 l-4 25 81 0 c73 0 81 -2 81 -19z m750 -1
c0 -15 -7 -20 -25 -20 -18 0 -25 5 -25 20 0 15 7 20 25 20 18 0 25 -5 25 -20z
m230 0 c0 -15 -7 -20 -25 -20 -18 0 -25 5 -25 20 0 15 7 20 25 20 18 0 25 -5
25 -20z m690 -1 c0 -15 -5 -20 -22 -17 -34 5 -37 38 -4 38 20 0 26 -5 26 -21z
m-1063 -2 c6 -4 15 -2 19 4 10 17 34 -18 34 -50 0 -57 -60 -80 -97 -37 -40 45
-4 113 44 83z m-1125 -67 c-3 -31 -8 -40 -23 -40 -15 0 -19 7 -19 40 0 35 3
40 23 40 20 0 22 -4 19 -40z m348 -20 c0 -15 -7 -20 -25 -20 -32 0 -34 27 -2
33 12 2 23 5 25 6 1 0 2 -8 2 -19z m-400 -50 c0 -15 -7 -20 -25 -20 -18 0 -25
5 -25 20 0 15 7 20 25 20 18 0 25 -5 25 -20z m860 0 c0 -15 -7 -20 -25 -20
-18 0 -25 5 -25 20 0 15 7 20 25 20 18 0 25 -5 25 -20z m-860 -44 c0 -7 -11
-16 -25 -18 -19 -4 -25 -1 -25 13 0 14 7 19 25 19 15 0 25 -6 25 -14z m50 -1
c0 -8 -9 -15 -20 -15 -11 0 -20 7 -20 15 0 8 9 15 20 15 11 0 20 -7 20 -15z
m866 -12 c-4 -16 -9 -45 -13 -65 -3 -23 -11 -38 -19 -38 -17 0 -19 40 -1 41
10 0 10 2 0 6 -18 7 -16 23 5 40 16 14 16 14 0 9 -13 -4 -18 0 -18 14 0 15 7
20 26 20 24 0 26 -3 20 -27z m344 -13 c0 -33 -3 -40 -20 -40 -17 0 -20 7 -20
40 0 33 3 40 20 40 17 0 20 -7 20 -40z m920 25 c0 -8 -9 -15 -20 -15 -11 0
-20 7 -20 15 0 8 9 15 20 15 11 0 20 -7 20 -15z m-50 -55 c0 -15 7 -20 25 -20
18 0 25 -5 25 -20 0 -15 -7 -20 -29 -20 -24 0 -28 -3 -24 -20 4 -16 0 -20 -21
-20 -19 0 -26 5 -26 20 0 16 -7 20 -30 20 -23 0 -30 4 -30 20 0 16 7 20 30 20
23 0 30 4 30 20 0 15 7 20 25 20 18 0 25 -5 25 -20z m50 5 c0 -8 -9 -15 -20
-15 -11 0 -20 7 -20 15 0 8 9 15 20 15 11 0 20 -7 20 -15z m-2010 -44 c0 -11
-4 -23 -10 -26 -5 -3 -10 -2 -10 4 0 6 -7 8 -15 5 -10 -4 -15 0 -15 15 0 16 6
21 25 21 18 0 25 -5 25 -19z m57 -1 c1 -15 -4 -20 -23 -20 -17 0 -24 5 -24 20
0 14 7 20 23 20 16 0 23 -6 24 -20z m114 3 c1 -17 2 -17 6 0 7 25 53 23 53 -3
0 -14 -7 -20 -22 -21 l-23 -2 23 -4 c21 -4 29 -23 15 -37 -11 -11 -12 -35 -2
-42 5 -3 9 -2 7 3 -1 4 2 23 6 41 6 25 13 32 32 32 13 0 24 -6 25 -12 0 -10 2
-10 6 0 7 19 103 16 103 -3 0 -8 -7 -15 -15 -15 -8 0 -15 -5 -15 -11 0 -6 7
-9 15 -5 10 3 15 -1 16 -12 0 -10 3 -12 6 -4 2 6 11 12 18 12 8 0 17 5 20 11
4 6 0 9 -11 7 -11 -2 -20 4 -22 15 -3 13 3 17 22 17 14 0 26 -6 26 -12 0 -10
2 -10 8 -2 4 7 39 12 85 13 l77 1 0 -40 0 -40 -50 0 c-41 0 -50 3 -51 18 -1
16 -2 16 -6 0 -3 -11 -14 -18 -29 -18 -19 0 -24 5 -25 28 l-2 27 -4 -27 c-4
-27 -6 -28 -74 -28 -63 0 -69 -2 -55 -15 8 -9 13 -22 10 -30 -5 -12 5 -15 55
-15 54 0 61 -2 61 -19 0 -17 -5 -19 -34 -14 -20 3 -55 -2 -84 -11 l-50 -17 30
-55 c17 -30 28 -57 25 -60 -2 -3 -29 4 -58 16 -30 11 -57 20 -60 20 -15 0 -18
-90 -4 -117 8 -15 15 -22 16 -15 1 6 3 17 4 22 1 6 3 20 4 33 3 47 14 50 80
23 33 -13 61 -22 61 -19 0 3 -14 30 -31 61 -35 63 -35 63 53 90 48 14 58 21
58 40 0 17 6 22 25 22 19 0 25 -5 25 -21 0 -16 -4 -19 -20 -14 -11 4 -20 2
-20 -4 0 -6 9 -11 20 -11 11 0 20 -7 20 -15 0 -18 -50 -21 -51 -2 0 10 -2 10
-6 0 -2 -7 -18 -13 -34 -13 -24 0 -29 -4 -29 -25 0 -14 -6 -25 -12 -26 -10 0
-10 -2 0 -6 6 -2 12 -21 12 -41 0 -27 3 -33 10 -22 5 8 7 25 3 37 -4 20 -1 23
21 23 19 0 26 -5 26 -20 0 -13 -5 -18 -15 -14 -8 4 -15 1 -15 -5 0 -6 7 -11
15 -11 8 0 15 -7 15 -15 0 -10 -10 -15 -30 -15 -25 0 -30 -4 -30 -25 0 -14 -6
-25 -12 -26 -10 0 -10 -2 0 -6 7 -2 12 -22 12 -44 l0 -39 -102 -1 c-57 -1 -95
-3 -85 -6 9 -2 18 -12 18 -21 1 -15 2 -15 6 1 4 15 16 17 84 16 66 -1 79 -4
80 -18 0 -13 2 -14 6 -1 3 8 11 18 17 22 8 5 7 8 -1 8 -7 0 -13 6 -13 14 0 8
6 17 13 20 10 5 10 7 0 12 -23 10 -14 34 13 34 23 0 25 -3 20 -32 l-6 -33 15
36 c16 35 18 36 52 29 19 -5 45 -5 57 0 17 7 14 9 -19 10 -55 1 -85 10 -85 26
0 22 50 18 51 -3 0 -14 2 -15 6 -3 3 8 11 18 17 22 8 5 7 8 -1 8 -7 0 -13 9
-13 21 0 16 4 20 18 15 16 -6 16 -5 0 8 -10 7 -18 18 -18 25 0 15 40 14 41 -1
0 -10 2 -10 6 0 2 6 16 12 29 12 21 0 24 -4 24 -40 0 -25 -5 -40 -12 -41 -10
0 -10 -2 0 -6 18 -7 15 -41 -5 -46 -12 -3 -9 -5 8 -6 23 -1 26 2 21 24 -4 21
0 25 19 26 24 2 24 2 2 6 -28 5 -30 33 -3 33 11 0 20 5 20 10 0 6 -9 10 -20
10 -11 0 -20 7 -20 15 0 9 9 15 25 15 22 0 25 -5 27 -37 l1 -38 4 38 c4 32 8
37 29 37 13 0 24 -2 24 -5 0 -15 -32 -65 -47 -74 -10 -6 -13 -11 -6 -11 6 0
23 14 37 32 14 18 28 29 32 26 8 -8 -107 -158 -121 -158 -5 1 -39 7 -75 15
-36 8 -68 14 -71 15 -4 0 -19 -35 -34 -77 -16 -43 -29 -79 -30 -80 0 -2 -25 7
-55 18 -62 23 -61 24 -86 -64 -16 -54 -29 -75 -40 -64 -6 6 43 148 56 161 7 7
23 5 48 -3 66 -24 68 -25 57 -14 -15 16 -108 44 -115 36 -4 -5 -15 -33 -25
-63 l-18 -55 -38 3 c-32 3 -39 8 -40 26 -2 20 -2 20 -6 -1 -6 -31 -59 -33 -68
-3 -8 26 -25 26 -32 0 -4 -14 -14 -20 -33 -20 -26 0 -28 3 -32 45 -2 31 2 50
11 60 24 24 19 84 -8 106 -13 11 -31 19 -40 19 -9 0 -22 13 -28 30 -12 32 -47
43 -41 13 2 -10 11 -17 21 -17 18 2 24 -22 6 -28 -5 -2 -28 -2 -50 0 -30 3
-39 8 -39 23 0 14 8 19 28 20 27 2 27 2 2 6 -14 3 -28 10 -32 17 -6 8 -8 8 -8
-1 0 -7 -8 -14 -17 -14 -17 -1 -17 -2 0 -6 28 -7 22 -43 -8 -43 -20 0 -25 5
-26 28 l-2 27 -4 -27 c-3 -22 -10 -28 -29 -28 -33 0 -35 39 -1 41 l22 2 -22 4
c-19 4 -23 11 -23 44 0 33 3 39 23 40 l22 2 -22 4 c-33 6 -31 43 2 43 20 0 25
-5 26 -27 l2 -28 4 28 c3 21 10 27 29 27 17 0 24 -6 24 -19 0 -11 -4 -21 -9
-23 -5 -2 -3 -9 5 -16 8 -7 14 -8 14 -2 0 5 9 10 20 10 11 0 20 -4 20 -10 0
-5 5 -10 11 -10 5 0 7 5 4 10 -4 6 5 10 19 10 16 0 26 -6 26 -15 0 -15 -13
-19 -62 -15 -16 1 -28 -3 -28 -9 0 -7 17 -9 45 -6 25 2 45 1 45 -4 0 -4 12 -6
26 -3 18 3 22 7 13 13 -7 4 -17 5 -21 3 -4 -3 -8 4 -8 15 0 15 7 21 23 22 l22
2 -22 4 c-25 5 -32 38 -10 46 6 3 -8 6 -32 6 -38 1 -43 3 -38 21 3 11 1 23 -4
26 -5 3 -9 -6 -9 -19 0 -23 -4 -25 -50 -25 l-50 -1 0 40 c0 37 2 39 30 39 25
0 30 4 30 25 0 18 5 25 20 25 25 0 27 -37 3 -43 -10 -3 6 -5 35 -6 49 -1 52 0
52 24 0 20 5 25 28 26 l27 2 -27 4 c-25 4 -28 9 -28 42 l0 38 56 2 c48 1 55
-1 52 -17 -2 -9 -10 -16 -17 -14 -7 1 -10 -2 -6 -7 9 -16 35 -1 35 20 0 14 7
19 28 19 16 0 31 3 35 6 8 8 -3 34 -15 34 -6 0 -8 -7 -4 -15 4 -11 -1 -15 -19
-15 -18 0 -25 5 -25 20 0 17 7 20 50 20 41 0 50 -3 51 -17z m119 -3 c0 -15 -7
-20 -25 -20 -18 0 -25 5 -25 20 0 15 7 20 25 20 18 0 25 -5 25 -20z m230 0 c0
-15 -7 -20 -25 -20 -18 0 -25 5 -25 20 0 15 7 20 25 20 18 0 25 -5 25 -20z
m110 1 c0 -17 -7 -20 -50 -19 -42 0 -50 3 -50 19 0 16 8 19 50 19 43 0 50 -3
50 -19z m60 -1 c0 -15 -7 -20 -25 -20 -18 0 -25 5 -25 20 0 15 7 20 25 20 18
0 25 -5 25 -20z m750 0 c0 -15 -7 -20 -25 -20 -18 0 -25 5 -25 20 0 15 7 20
25 20 18 0 25 -5 25 -20z m40 16 c0 -2 3 -11 6 -20 4 -12 0 -16 -15 -16 -14 0
-21 6 -21 20 0 11 7 20 15 20 8 0 15 -2 15 -4z m590 -16 c0 -15 -7 -20 -25
-20 -18 0 -25 5 -25 20 0 15 7 20 25 20 18 0 25 -5 25 -20z m-1378 -67 l1 -38
4 38 c2 20 9 37 14 37 11 0 4 -59 -13 -102 -13 -35 -58 -40 -58 -8 0 16 7 20
33 22 l32 1 -33 4 c-25 3 -32 9 -30 21 2 10 11 16 21 14 9 -2 17 2 17 8 0 5
-9 10 -20 10 -11 0 -20 7 -20 15 0 9 9 15 25 15 22 0 25 -5 27 -37z m748 22
c0 -8 -9 -15 -20 -15 -11 0 -20 -5 -20 -11 0 -6 9 -9 20 -6 15 4 20 0 20 -14
0 -14 -7 -19 -25 -19 -22 0 -25 4 -25 40 0 36 3 40 25 40 16 0 25 -6 25 -15z
m50 -2 c0 -10 3 -28 6 -40 5 -20 2 -23 -20 -23 -24 0 -26 4 -26 40 0 33 3 40
20 40 12 0 20 -7 20 -17z m410 -23 c0 -36 -2 -40 -25 -40 -16 0 -25 6 -25 15
0 8 9 15 20 15 11 0 20 5 20 11 0 6 -9 8 -20 4 -16 -5 -20 -2 -20 14 0 16 6
21 25 21 23 0 25 -4 25 -40z m170 0 l0 -40 -80 0 c-62 0 -80 3 -80 14 0 23 33
29 47 10 11 -16 13 -13 13 19 l0 37 50 0 50 0 0 -40z m-2132 -23 c3 -12 -4
-17 -22 -17 -24 0 -35 18 -20 32 11 11 39 1 42 -15z m-108 -47 c0 -15 -7 -20
-25 -20 -18 0 -25 5 -25 20 0 15 7 20 25 20 18 0 25 -5 25 -20z m110 0 c0 -15
-7 -20 -25 -20 -18 0 -25 5 -25 20 0 15 7 20 25 20 18 0 25 -5 25 -20z m460 0
c0 -23 -35 -28 -43 -6 -7 18 1 26 25 26 11 0 18 -7 18 -20z m60 0 c0 -15 -7
-20 -25 -20 -18 0 -25 5 -25 20 0 15 7 20 25 20 18 0 25 -5 25 -20z m60 0 c0
-15 -7 -20 -25 -20 -18 0 -25 5 -25 20 0 15 7 20 25 20 18 0 25 -5 25 -20z
m110 -45 l0 -65 -50 0 -50 0 1 65 1 65 49 0 49 0 0 -65z m580 45 c0 -15 -7
-20 -25 -20 -18 0 -25 5 -25 20 0 15 7 20 25 20 18 0 25 -5 25 -20z m230 0 c0
-15 -7 -20 -25 -20 -18 0 -25 5 -25 20 0 15 7 20 25 20 18 0 25 -5 25 -20z
m460 0 c0 -15 -7 -20 -25 -20 -18 0 -25 5 -25 20 0 15 7 20 25 20 18 0 25 -5
25 -20z m110 0 c0 -13 -7 -20 -20 -20 -13 0 -20 7 -20 20 0 13 7 20 20 20 13
0 20 -7 20 -20z m60 0 c0 -15 -7 -20 -25 -20 -18 0 -25 5 -25 20 0 15 7 20 25
20 18 0 25 -5 25 -20z m-1380 -44 c0 -14 -34 -28 -44 -18 -15 14 -4 32 19 32
15 0 25 -6 25 -14z m1150 -52 c0 -8 -10 -14 -25 -14 -23 0 -34 18 -19 32 10
10 44 -4 44 -18z m-1960 -44 c0 -13 -7 -20 -20 -20 -13 0 -20 7 -20 20 0 13 7
20 20 20 13 0 20 -7 20 -20z m60 0 c0 -15 -7 -20 -25 -20 -18 0 -25 5 -25 20
0 15 7 20 25 20 18 0 25 -5 25 -20z m520 0 c0 -15 -7 -20 -25 -20 -18 0 -25 5
-25 20 0 15 7 20 25 20 18 0 25 -5 25 -20z m60 0 c0 -15 -7 -20 -25 -20 -18 0
-25 5 -25 20 0 15 7 20 25 20 18 0 25 -5 25 -20z m110 -1 c0 -22 -35 -27 -44
-6 -5 10 -7 10 -12 0 -9 -21 -44 -16 -44 6 0 16 8 19 50 19 42 0 50 -3 50 -19z
m290 1 c0 -15 -7 -20 -25 -20 -18 0 -25 5 -25 20 0 15 7 20 25 20 18 0 25 -5
25 -20z m60 0 c0 -15 -7 -20 -25 -20 -18 0 -25 5 -25 20 0 15 7 20 25 20 18 0
25 -5 25 -20z m56 0 c0 -14 -7 -20 -23 -20 -16 0 -23 6 -23 20 0 14 7 20 23
20 16 0 23 -6 23 -20z m54 0 c0 -13 -7 -20 -20 -20 -13 0 -20 7 -20 20 0 13 7
20 20 20 13 0 20 -7 20 -20z m463 6 c7 -18 -1 -26 -25 -26 -11 0 -18 7 -18 20
0 23 35 28 43 6z m347 -6 c0 -15 -7 -20 -25 -20 -18 0 -25 5 -25 20 0 15 7 20
25 20 18 0 25 -5 25 -20z m110 0 c0 -13 -7 -20 -20 -20 -13 0 -20 7 -20 20 0
13 7 20 20 20 13 0 20 -7 20 -20z m60 -70 l0 -90 -50 0 c-43 0 -50 3 -50 20 0
26 39 28 41 3 1 -17 2 -17 6 0 2 9 14 18 26 18 22 2 22 2 0 6 -28 5 -30 33 -3
33 11 0 20 5 20 10 0 6 -9 10 -20 10 -28 0 -25 30 3 31 l22 2 -22 4 c-33 6
-31 43 2 43 25 0 25 -1 25 -90z m-1550 25 c0 -8 -9 -15 -20 -15 -11 0 -20 -4
-20 -10 0 -5 9 -10 20 -10 11 0 20 -7 20 -15 0 -9 -9 -15 -25 -15 -22 0 -25 4
-25 40 0 36 3 40 25 40 16 0 25 -6 25 -15z m1437 -25 c0 -35 -3 -40 -24 -40
-20 0 -23 5 -23 40 0 35 3 40 23 40 21 0 24 -5 24 -40z m53 0 c0 -33 -3 -40
-20 -40 -11 0 -20 7 -20 15 0 8 7 15 15 15 8 0 15 5 15 10 0 6 -7 10 -15 10
-8 0 -15 7 -15 15 0 8 9 15 20 15 17 0 20 -7 20 -40z m-1550 -70 c0 -15 -7
-20 -25 -20 -18 0 -25 5 -25 20 0 15 7 20 25 20 18 0 25 -5 25 -20z m-550 -41
c0 -4 -6 -9 -14 -12 -9 -3 -12 -15 -9 -31 5 -23 2 -26 -21 -26 -24 0 -26 4
-26 40 0 39 1 39 35 38 19 -1 35 -5 35 -9z m110 -55 c0 -26 -32 -64 -52 -64
-7 0 -25 11 -39 24 -29 25 -37 76 -12 76 8 0 12 4 8 9 -3 5 9 11 27 13 39 4
68 -21 68 -58z m901 49 c1 -17 2 -17 6 0 7 25 53 23 53 -3 0 -18 -7 -20 -55
-20 -48 0 -55 2 -55 20 0 26 49 29 51 3z m-1221 -93 c0 -13 -7 -20 -19 -20
-14 0 -19 6 -18 20 1 12 8 20 19 20 11 0 18 -7 18 -20z m-280 -95 c0 -8 -9
-15 -20 -15 -11 0 -20 7 -20 15 0 8 9 15 20 15 11 0 20 -7 20 -15z m230 -45
c0 -13 -7 -20 -20 -20 -13 0 -20 7 -20 20 0 13 7 20 20 20 13 0 20 -7 20 -20z
m-53 -140 c1 -15 -4 -20 -23 -20 -17 0 -24 5 -24 20 0 14 7 20 23 20 16 0 23
-6 24 -20z m81 3 c-2 -12 -14 -19 -36 -21 -27 -3 -32 0 -32 17 0 17 6 21 36
21 28 0 35 -3 32 -17z m842 -98 c0 -9 -9 -15 -25 -15 -16 0 -25 6 -25 15 0 9
9 15 25 15 16 0 25 -6 25 -15z m-580 -45 c0 -15 -7 -20 -25 -20 -18 0 -25 5
-25 20 0 15 7 20 25 20 18 0 25 -5 25 -20z m581 3 c1 -17 2 -17 6 0 6 23 39
22 46 -2 4 -15 -1 -21 -22 -24 -14 -2 -2 -5 27 -6 l52 -1 0 -40 0 -40 -50 0
c-50 0 -50 0 -50 33 0 22 -3 28 -9 18 -5 -7 -6 -22 -4 -32 4 -15 0 -19 -22
-19 -24 0 -27 3 -23 24 3 14 1 31 -3 38 -6 8 -9 -1 -9 -24 0 -34 -3 -38 -26
-38 -19 0 -25 4 -22 17 2 11 11 17 23 16 17 -2 17 -1 -2 9 -33 16 -29 38 7 38
25 0 30 4 30 25 0 20 5 25 25 25 17 0 25 -6 26 -17z m-581 -73 c0 -36 -2 -40
-25 -40 -16 0 -25 6 -25 15 0 8 9 15 20 15 11 0 20 4 20 10 0 5 -3 9 -7 9 -20
-3 -34 2 -28 11 3 6 1 10 -4 10 -6 0 -11 -16 -11 -35 l0 -35 -50 0 c-36 0 -50
4 -50 14 0 21 38 27 50 8 7 -13 9 -8 10 21 l0 37 50 0 50 0 0 -40z m-400 -26
c0 -8 -10 -14 -25 -14 -18 0 -25 5 -25 19 0 14 6 17 25 13 14 -2 25 -11 25
-18z m1150 6 c0 -15 -7 -20 -25 -20 -32 0 -34 27 -2 33 12 2 23 5 25 6 1 0 2
-8 2 -19z"/>
<path d="M1520 1449 c0 -5 5 -7 10 -4 6 3 10 8 10 11 0 2 -4 4 -10 4 -5 0 -10
-5 -10 -11z"/>
<path d="M1380 1400 c0 -23 25 -27 33 -6 7 16 -1 26 -20 26 -7 0 -13 -9 -13
-20z"/>
<path d="M1526 1388 c-8 -38 0 -51 10 -14 3 14 11 26 16 26 6 0 8 -6 5 -14 -3
-8 -11 -33 -17 -56 l-11 -41 -43 6 -43 7 -14 -53 -14 -52 -55 -1 -54 -1 -9
-42 c-6 -31 -12 -40 -22 -36 -8 3 -15 0 -15 -6 0 -6 11 -11 24 -11 20 0 25 6
30 45 l7 45 42 -6 c23 -3 47 -7 53 -9 11 -3 34 57 34 89 0 15 8 17 47 14 l47
-3 17 57 c17 58 16 62 -17 81 -7 4 -14 -5 -18 -25z"/>
<path d="M1429 1332 c-9 -2 -19 -17 -23 -34 -8 -42 -2 -46 14 -9 10 26 17 30
46 29 19 -1 37 1 40 4 6 7 -54 15 -77 10z"/>
<path d="M1580 1309 c0 -5 5 -7 10 -4 6 3 10 8 10 11 0 2 -4 4 -10 4 -5 0 -10
-5 -10 -11z"/>
<path d="M1370 1220 c-9 -6 -10 -10 -3 -10 6 0 15 5 18 10 8 12 4 12 -15 0z"/>
<path d="M1546 1175 c-3 -9 1 -18 10 -22 19 -7 28 2 21 22 -8 19 -23 19 -31 0z"/>
<path d="M1460 1170 c0 -5 5 -10 10 -10 6 0 10 5 10 10 0 6 -4 10 -10 10 -5 0
-10 -4 -10 -10z"/>
<path d="M1194 1365 c-8 -21 2 -45 19 -45 21 0 38 25 31 44 -8 20 -43 21 -50
1z"/>
<path d="M1170 1310 c0 -5 5 -10 11 -10 5 0 7 5 4 10 -3 6 -8 10 -11 10 -2 0
-4 -4 -4 -10z"/>
<path d="M1256 1312 c-2 -4 -1 -14 4 -22 8 -12 10 -12 15 2 4 9 13 14 21 11 8
-3 14 0 14 6 0 13 -46 15 -54 3z"/>
<path d="M1980 1170 c0 -5 5 -10 10 -10 6 0 10 5 10 10 0 6 -4 10 -10 10 -5 0
-10 -4 -10 -10z"/>
<path d="M2842 1117 c-13 -15 1 -42 17 -33 13 9 15 33 2 40 -5 3 -13 0 -19 -7z"/>
<path d="M1076 1072 c-9 -14 6 -52 20 -52 10 0 11 6 3 30 -12 32 -15 35 -23
22z"/>
<path d="M1024 1046 c-8 -22 3 -33 18 -18 9 9 9 15 0 24 -9 9 -13 7 -18 -6z"/>
<path d="M1260 1031 c0 -17 5 -31 10 -31 6 0 10 11 10 24 0 14 -4 28 -10 31
-6 4 -10 -7 -10 -24z"/>
<path d="M1404 1049 c-10 -17 13 -36 27 -22 12 12 4 33 -11 33 -5 0 -12 -5
-16 -11z"/>
<path d="M893 1043 c-22 -8 -14 -20 13 -20 14 0 22 2 18 6 -5 3 -11 9 -14 12
-3 4 -11 4 -17 2z"/>
<path d="M1483 1042 c-13 -2 -23 -8 -23 -14 0 -5 7 -8 15 -4 9 3 15 0 15 -9 0
-8 5 -15 10 -15 6 0 10 5 10 10 0 6 7 10 15 10 8 0 15 5 15 11 0 6 -6 9 -14 6
-8 -3 -16 -3 -18 1 -2 4 -13 6 -25 4z"/>
<path d="M1235 1030 c3 -5 8 -10 11 -10 2 0 4 5 4 10 0 6 -5 10 -11 10 -5 0
-7 -4 -4 -10z"/>
<path d="M1192 1018 c-7 -7 -12 -25 -12 -40 0 -21 5 -28 20 -28 17 0 20 7 20
40 0 41 -7 49 -28 28z"/>
<path d="M1112 974 c-7 -8 -8 -14 -3 -14 10 0 25 19 20 25 -2 1 -10 -3 -17
-11z"/>
<path d="M888 933 c6 -2 18 -2 25 0 6 3 1 5 -13 5 -14 0 -19 -2 -12 -5z"/>
<path d="M725 911 c-8 -15 3 -31 21 -31 9 0 14 7 12 17 -4 20 -24 28 -33 14z"/>
<path d="M840 883 c0 -11 60 -27 68 -18 8 8 -2 14 -36 21 -19 4 -32 2 -32 -3z"/>
<path d="M923 845 c0 -8 4 -12 9 -9 5 3 6 10 3 15 -9 13 -12 11 -12 -6z"/>
<path d="M938 789 c-21 -12 -24 -39 -5 -39 17 0 32 12 40 33 7 19 -8 22 -35 6z"/>
<path d="M684 765 c-9 -23 3 -45 25 -45 21 0 33 22 25 45 -4 8 -15 15 -25 15
-11 0 -22 -7 -25 -15z"/>
<path d="M1029 751 c-21 -16 -39 -71 -23 -71 3 0 23 14 44 32 31 24 37 34 29
45 -15 17 -22 17 -50 -6z"/>
<path d="M1487 734 c-9 -10 4 -34 19 -34 8 0 14 9 14 20 0 19 -19 27 -33 14z"/>
<path d="M920 721 c0 -5 -10 -12 -22 -14 -23 -4 -23 -4 -1 -6 14 -1 23 -9 26
-23 3 -14 5 -9 6 15 0 20 -1 37 -4 37 -3 0 -5 -4 -5 -9z"/>
<path d="M953 703 c9 -2 23 -2 30 0 6 3 -1 5 -18 5 -16 0 -22 -2 -12 -5z"/>
<path d="M1078 703 c6 -2 12 -13 12 -24 0 -16 -7 -19 -46 -19 -33 0 -51 5 -60
18 -12 15 -13 15 -8 0 4 -12 -1 -18 -18 -21 -22 -4 -22 -4 -1 -6 17 -1 21 -7
21 -31 -1 -17 2 -33 5 -37 4 -3 7 10 7 30 l0 37 50 0 50 0 0 -37 c0 -33 1 -35
13 -18 8 10 19 15 25 11 7 -4 12 -2 12 5 0 6 -8 9 -20 6 -15 -4 -20 0 -20 13
0 11 9 20 23 23 22 4 22 4 -2 6 -19 1 -23 5 -19 26 4 20 1 25 -16 24 -11 0
-15 -3 -8 -6z"/>
<path d="M1193 703 c25 -7 21 -41 -5 -46 l-23 -4 23 -2 c14 -1 22 -7 22 -20 0
-14 -5 -18 -20 -14 -11 3 -20 0 -20 -6 0 -6 9 -11 20 -11 11 0 20 -6 20 -12 0
-7 5 -5 11 5 6 9 15 14 21 11 7 -4 8 -2 4 5 -4 6 -12 9 -17 6 -5 -4 -9 3 -9
14 0 14 6 21 20 21 14 0 20 -7 20 -21 0 -14 5 -19 18 -17 31 6 19 33 -20 42
-27 7 -38 15 -38 28 0 24 37 24 43 1 4 -14 5 -12 6 5 1 20 -3 22 -46 21 -27
-1 -40 -3 -30 -6z"/>
<path d="M1592 669 c-19 -30 -8 -34 12 -4 9 14 13 25 9 25 -5 0 -14 -9 -21
-21z"/>
<path d="M1152 610 c0 -19 2 -27 5 -17 2 9 2 25 0 35 -3 9 -5 1 -5 -18z"/>
<path d="M1520 630 c8 -5 22 -9 30 -9 10 0 8 3 -5 9 -27 12 -43 12 -25 0z"/>
<path d="M1000 609 c0 -5 7 -9 15 -9 8 0 15 -4 15 -10 0 -18 16 -10 17 9 1 13
-5 19 -23 19 -13 0 -24 -4 -24 -9z"/>
<path d="M1060 610 c0 -5 5 -10 10 -10 6 0 10 5 10 10 0 6 -4 10 -10 10 -5 0
-10 -4 -10 -10z"/>
<path d="M977 546 c4 -19 0 -25 -18 -29 -13 -2 -3 -5 24 -6 30 -1 47 -5 47
-13 0 -10 2 -10 8 0 5 7 8 23 7 35 -1 15 5 24 19 29 13 3 -2 6 -35 7 -54 1
-56 0 -52 -23z m53 -6 c0 -13 -7 -20 -20 -20 -13 0 -20 7 -20 20 0 13 7 20 20
20 13 0 20 -7 20 -20z"/>
<path d="M1085 547 c-25 -19 -12 -59 18 -55 26 4 35 39 14 56 -10 9 -18 8 -32
-1z"/>
<path d="M1150 494 c0 -14 -4 -23 -8 -20 -4 2 -14 1 -22 -5 -12 -7 -10 -9 7
-9 12 0 23 -5 25 -10 2 -6 9 -1 16 11 8 12 9 18 3 14 -7 -3 -11 2 -11 14 0 12
8 21 23 24 19 4 18 4 -5 6 -24 1 -28 -3 -28 -25z"/>
<path d="M980 490 c0 -5 -9 -10 -20 -10 -11 0 -20 -4 -20 -10 0 -17 45 -4 48
13 2 10 1 17 -2 17 -3 0 -6 -4 -6 -10z"/>
<path d="M1035 470 c3 -5 16 -10 27 -10 26 0 16 13 -13 17 -12 2 -18 -1 -14
-7z"/>
<path d="M2380 1030 c0 -5 5 -10 10 -10 6 0 10 5 10 10 0 6 -4 10 -10 10 -5 0
-10 -4 -10 -10z"/>
<path d="M2931 1048 c-1 -11 -6 -15 -16 -12 -8 4 -15 1 -15 -5 0 -6 7 -11 15
-11 8 0 15 -5 15 -11 0 -6 7 -3 16 5 8 9 20 14 25 11 5 -4 9 -1 9 4 0 6 -9 11
-19 11 -11 0 -22 6 -24 13 -3 7 -6 5 -6 -5z"/>
<path d="M1483 943 c-19 -7 -16 -50 4 -57 24 -10 51 20 37 41 -12 19 -23 24
-41 16z"/>
<path d="M2845 750 c-3 -5 -1 -10 4 -10 6 0 11 5 11 10 0 6 -2 10 -4 10 -3 0
-8 -4 -11 -10z"/>
<path d="M770 610 c0 -5 5 -10 10 -10 6 0 10 5 10 10 0 6 -4 10 -10 10 -5 0
-10 -4 -10 -10z"/>
<path d="M1404 99 c-10 -17 13 -36 27 -22 12 12 4 33 -11 33 -5 0 -12 -5 -16
-11z"/>
<path d="M1490 55 c0 -14 5 -25 10 -25 6 0 10 11 10 25 0 14 -4 25 -10 25 -5
0 -10 -11 -10 -25z"/>
<path d="M1460 50 c0 -5 5 -10 10 -10 6 0 10 5 10 10 0 6 -4 10 -10 10 -5 0
-10 -4 -10 -10z"/>
<path d="M1520 50 c0 -5 5 -10 11 -10 5 0 7 5 4 10 -3 6 -8 10 -11 10 -2 0 -4
-4 -4 -10z"/>
<path d="M770 50 c0 -5 5 -10 11 -10 5 0 7 5 4 10 -3 6 -8 10 -11 10 -2 0 -4
-4 -4 -10z"/>
<path d="M60 1464 c0 -11 -6 -14 -20 -9 -11 3 -20 3 -20 -2 0 -5 11 -10 25
-11 19 -1 25 3 25 18 0 11 -2 20 -5 20 -3 0 -5 -7 -5 -16z"/>
<path d="M340 1465 c0 -9 -6 -12 -15 -9 -8 4 -15 1 -15 -5 0 -6 6 -11 14 -11
8 0 17 -6 19 -12 3 -7 6 2 6 20 1 17 -1 32 -4 32 -3 0 -5 -7 -5 -15z"/>
<path d="M1211 1468 c-1 -11 -7 -15 -21 -11 -12 3 -20 0 -20 -6 0 -7 5 -9 12
-5 6 4 17 -1 25 -11 7 -11 13 -14 13 -8 0 6 9 13 20 16 13 3 20 0 20 -9 0 -8
4 -14 9 -14 10 0 8 47 -3 57 -3 3 -6 2 -6 -4 0 -19 -39 -22 -43 -4 -4 15 -5
15 -6 -1z"/>
<path d="M1723 1460 c-1 -11 2 -20 8 -20 5 0 9 9 9 20 0 11 -4 20 -8 20 -4 0
-8 -9 -9 -20z"/>
<path d="M1781 1468 c-1 -12 -6 -15 -18 -11 -15 5 -15 3 2 -14 11 -11 22 -16
23 -12 2 5 12 9 23 9 10 0 19 5 19 11 0 6 -9 9 -19 6 -13 -3 -21 1 -24 12 -4
14 -5 14 -6 -1z"/>
<path d="M1841 1452 c-1 -30 0 -32 15 -18 8 9 20 14 25 11 5 -4 9 -1 9 6 0 6
-8 9 -19 6 -13 -3 -21 1 -24 12 -3 9 -5 1 -6 -17z"/>
<path d="M1953 1468 c1 -7 -6 -12 -15 -10 -10 2 -18 -2 -18 -8 0 -6 4 -9 9 -5
5 3 17 -2 25 -11 9 -8 16 -11 16 -5 0 6 7 11 15 11 8 0 15 5 15 11 0 6 -7 9
-15 5 -9 -3 -15 0 -15 9 0 8 -4 15 -10 15 -5 0 -9 -6 -7 -12z"/>
<path d="M2242 1450 c0 -19 2 -29 5 -22 2 6 13 12 24 12 10 0 19 5 19 10 0 6
-9 10 -19 10 -11 0 -22 6 -24 13 -3 6 -5 -4 -5 -23z"/>
<path d="M2470 1449 c0 -28 1 -29 16 -15 8 9 20 14 25 11 5 -4 9 -1 9 4 0 6
-9 11 -21 11 -11 0 -17 5 -14 10 3 6 1 10 -4 10 -6 0 -11 -14 -11 -31z"/>
<path d="M542 1453 c2 -10 10 -18 18 -18 22 0 18 29 -3 33 -14 3 -18 -1 -15
-15z"/>
<path d="M802 1453 c4 -21 33 -25 33 -3 0 8 -8 16 -18 18 -14 3 -18 -1 -15
-15z"/>
<path d="M250 1450 c0 -5 5 -10 10 -10 6 0 10 5 10 10 0 6 -4 10 -10 10 -5 0
-10 -4 -10 -10z"/>
<path d="M368 1447 c12 -14 10 -22 -15 -56 -17 -25 -36 -40 -48 -40 -36 2 -70
15 -67 27 1 7 -2 12 -7 12 -6 0 -9 -8 -9 -17 1 -10 -4 -35 -11 -56 -12 -35
-16 -38 -39 -32 -15 4 -31 7 -36 8 -5 1 -13 -13 -18 -32 -7 -25 -12 -31 -18
-21 -5 9 -8 4 -7 -13 2 -28 27 -39 27 -12 0 30 23 66 39 59 42 -17 46 -15 62
28 17 45 26 49 80 35 23 -6 31 -1 63 40 20 25 36 49 36 52 0 4 -10 12 -22 20
-21 13 -22 13 -10 -2z"/>
<path d="M600 1450 c0 -5 5 -10 10 -10 6 0 10 5 10 10 0 6 -4 10 -10 10 -5 0
-10 -4 -10 -10z"/>
<path d="M940 1450 c0 -5 5 -10 10 -10 6 0 10 5 10 10 0 6 -4 10 -10 10 -5 0
-10 -4 -10 -10z"/>
<path d="M1000 1448 c0 -5 5 -6 10 -3 6 3 13 -1 16 -9 8 -22 19 -20 21 3 1 13
-5 19 -23 19 -13 0 -24 -5 -24 -10z"/>
<path d="M1290 1450 c0 -5 5 -10 10 -10 6 0 10 5 10 10 0 6 -4 10 -10 10 -5 0
-10 -4 -10 -10z"/>
<path d="M1690 1449 c0 -5 5 -7 10 -4 6 3 10 8 10 11 0 2 -4 4 -10 4 -5 0 -10
-5 -10 -11z"/>
<path d="M2186 1449 c3 -5 14 -9 25 -9 10 0 19 4 19 9 0 5 -11 9 -25 9 -13 0
-22 -4 -19 -9z"/>
<path d="M2320 1449 c0 -5 5 -7 10 -4 6 3 10 8 10 11 0 2 -4 4 -10 4 -5 0 -10
-5 -10 -11z"/>
<path d="M2385 1450 c3 -5 13 -10 21 -10 8 0 12 -4 9 -10 -3 -5 -1 -10 4 -10
6 0 11 9 11 20 0 15 -7 20 -26 20 -14 0 -23 -4 -19 -10z"/>
<path d="M2440 1449 c0 -5 5 -7 10 -4 6 3 10 8 10 11 0 2 -4 4 -10 4 -5 0 -10
-5 -10 -11z"/>
<path d="M2965 1450 c3 -5 8 -10 11 -10 2 0 4 5 4 10 0 6 -5 10 -11 10 -5 0
-7 -4 -4 -10z"/>
<path d="M99 1424 c-10 -13 -10 -17 1 -24 17 -10 30 -4 30 15 0 22 -16 26 -31
9z"/>
<path d="M2351 1431 c-15 -9 -8 -41 8 -41 15 0 23 18 14 34 -5 10 -13 12 -22
7z"/>
<path d="M2144 1416 c-10 -26 4 -48 28 -44 17 2 23 10 23 28 0 18 -6 26 -23
28 -13 2 -25 -3 -28 -12z"/>
<path d="M1684 1405 c-15 -11 -17 -17 -8 -32 15 -25 48 -23 52 3 4 31 -20 47
-44 29z"/>
<path d="M400 1386 c0 -15 -7 -26 -17 -29 -15 -4 -16 -5 -2 -6 20 -1 31 -55
15 -71 -5 -5 -48 -11 -96 -12 -74 -2 -77 -2 -23 -5 48 -3 63 -8 66 -21 4 -16
5 -16 6 1 0 9 8 17 17 17 18 0 14 -8 -38 -65 -24 -26 -28 -27 -28 -11 0 19 0
19 -13 1 -8 -10 -19 -15 -25 -11 -7 4 -12 2 -12 -5 0 -7 10 -9 25 -7 14 3 25
3 25 1 0 -2 -14 -22 -32 -44 -23 -29 -39 -39 -60 -39 -21 0 -28 5 -28 20 0 15
7 20 25 20 14 0 25 -6 25 -12 0 -10 2 -10 8 -1 4 7 6 31 3 55 -2 24 -6 37 -8
31 -3 -7 -16 -13 -29 -13 -31 0 -32 27 -1 33 22 4 22 4 0 6 -12 0 -24 9 -26
19 -4 15 -5 15 -6 0 0 -9 -11 -19 -23 -21 l-23 -4 23 -2 c19 -1 22 -7 22 -40
0 -29 -5 -41 -17 -44 -17 -4 -17 -5 -1 -6 14 -1 17 -9 15 -43 l-2 -42 -50 -1
c-36 0 -49 4 -47 13 1 8 -2 10 -8 7 -7 -4 -9 -19 -5 -36 6 -27 5 -29 -24 -29
-26 0 -31 -4 -30 -22 1 -17 2 -19 6 -5 7 25 53 23 53 -3 0 -16 -7 -20 -32 -20
-17 0 -29 -2 -26 -5 3 -3 55 -6 116 -6 96 0 111 -2 115 -17 4 -16 5 -16 6 1 1
15 14 17 118 17 64 0 114 3 110 6 -3 4 -56 6 -117 5 l-110 0 0 24 c0 21 -5 25
-30 25 -23 0 -30 4 -30 20 0 11 3 19 8 19 4 -1 20 -1 36 0 22 1 26 4 18 14 -8
9 -1 23 29 55 21 24 39 46 39 51 0 4 10 16 23 27 12 11 31 33 42 49 11 16 37
47 58 69 20 22 37 44 37 48 0 4 5 8 11 8 5 0 8 -4 4 -9 -3 -5 -2 -12 3 -15 4
-2 9 8 10 24 3 37 -10 45 -29 18 -8 -11 -24 -32 -36 -46 l-23 -25 0 26 c0 16
7 27 18 30 16 4 16 5 0 6 -11 1 -18 9 -18 21 0 14 7 20 24 20 13 0 27 -6 29
-12 4 -10 6 -10 6 0 1 6 12 12 25 12 18 0 26 -7 29 -22 4 -23 4 -23 6 -1 0 12
9 24 19 26 9 3 -20 5 -65 6 -81 1 -83 1 -83 -23z m-170 -241 c0 -9 -9 -15 -25
-15 -16 0 -25 6 -25 15 0 9 9 15 25 15 16 0 25 -6 25 -15z m-10 -84 c0 -13
-26 -32 -33 -24 -14 13 -6 33 13 33 11 0 20 -4 20 -9z m-110 -57 c0 -8 -9 -14
-20 -14 -19 0 -27 19 -14 33 10 9 34 -4 34 -19z m60 4 c0 -13 -8 -18 -25 -18
-22 0 -34 18 -20 31 12 13 45 3 45 -13z m-60 -48 c0 -13 -7 -20 -20 -20 -13 0
-20 7 -20 20 0 13 7 20 20 20 13 0 20 -7 20 -20z m60 0 c0 -15 -7 -20 -25 -20
-18 0 -25 5 -25 20 0 15 7 20 25 20 18 0 25 -5 25 -20z m60 0 c0 -15 -7 -20
-25 -20 -18 0 -25 5 -25 20 0 15 7 20 25 20 18 0 25 -5 25 -20z"/>
<path d="M2820 1399 c0 -5 5 -7 10 -4 6 3 10 8 10 11 0 2 -4 4 -10 4 -5 0 -10
-5 -10 -11z"/>
<path d="M2847 1393 c-11 -10 -8 -43 3 -43 6 0 10 11 10 25 0 26 -2 29 -13 18z"/>
<path d="M2555 1381 c-8 -15 3 -31 21 -31 9 0 14 7 12 17 -4 20 -24 28 -33 14z"/>
<path d="M2421 1310 c-29 -38 -55 -70 -56 -70 -2 0 -34 7 -71 15 -36 9 -67 15
-68 13 -1 -2 -11 -29 -21 -61 -27 -81 -26 -80 -78 -58 -26 11 -48 17 -50 13
-2 -4 -12 -35 -22 -69 -12 -43 -23 -63 -34 -63 -14 0 -14 -2 -1 -10 25 -16 27
-13 50 59 l21 70 46 -20 c26 -11 50 -16 53 -12 4 4 15 33 25 63 10 30 20 58
24 62 3 4 35 1 71 -7 36 -8 68 -11 72 -7 23 24 108 136 108 143 0 21 -19 4
-69 -61z"/>
<path d="M664 1346 c-9 -23 7 -38 26 -26 13 8 13 11 -2 26 -16 17 -18 17 -24
0z"/>
<path d="M2508 1353 c6 -2 18 -2 25 0 6 3 1 5 -13 5 -14 0 -19 -2 -12 -5z"/>
<path d="M3 1170 c0 -96 2 -158 4 -138 4 33 8 37 36 41 l32 4 -32 1 c-26 2
-33 6 -33 22 0 17 6 20 35 18 19 -1 37 1 41 5 4 4 -11 7 -34 7 l-42 0 0 40 c0
35 3 40 23 40 14 0 24 -6 24 -15 0 -8 -9 -15 -19 -15 -10 0 -18 -4 -18 -10 0
-5 9 -10 21 -10 11 0 17 -4 14 -10 -3 -5 -1 -10 4 -10 6 0 11 5 11 10 0 6 7
10 15 10 8 0 15 5 15 11 0 6 -7 9 -15 5 -12 -4 -15 3 -15 35 0 25 -4 38 -10
34 -6 -4 -8 -11 -5 -16 4 -5 -5 -9 -19 -9 -19 0 -26 5 -26 20 0 17 7 20 43 21
23 0 36 3 30 6 -7 2 -13 13 -13 24 0 12 5 16 15 13 8 -4 15 -1 15 5 0 6 -7 11
-15 11 -8 0 -15 5 -15 10 0 6 -4 10 -10 10 -5 0 -9 -6 -7 -12 1 -7 -6 -12 -15
-12 -25 2 -23 -12 2 -19 28 -7 25 -27 -4 -27 -21 0 -25 5 -29 38 -2 20 -4 -42
-4 -138z"/>
<path d="M110 1331 c0 -6 4 -13 10 -16 6 -3 7 1 4 9 -7 18 -14 21 -14 7z"/>
<path d="M1780 1333 c0 -7 -7 -13 -15 -13 -8 0 -15 -5 -15 -11 0 -6 7 -9 15
-5 8 3 15 2 15 -3 0 -4 11 -6 25 -3 14 2 22 8 19 13 -3 5 -9 7 -14 4 -5 -3
-13 3 -19 12 -6 10 -11 12 -11 6z"/>
<path d="M2240 1323 c0 -13 5 -23 10 -23 13 0 13 11 0 30 -8 12 -10 11 -10 -7z"/>
<path d="M2530 1330 c0 -5 -11 -10 -24 -10 -14 0 -28 -4 -31 -10 -4 -6 6 -8
24 -6 25 3 31 0 31 -15 0 -16 -8 -19 -52 -20 -29 -1 -44 -4 -33 -6 11 -3 23
-10 27 -17 6 -8 8 -8 8 1 0 16 170 17 170 0 0 -8 3 -9 8 -1 4 6 14 14 22 17 8
3 -6 6 -32 6 l-48 1 -1 38 c0 20 -3 31 -6 25 -2 -7 -13 -13 -24 -13 -10 0 -19
-5 -19 -11 0 -6 9 -8 20 -4 16 5 20 2 20 -14 0 -16 -6 -21 -26 -21 -24 0 -26
3 -22 35 2 19 0 35 -4 35 -4 0 -8 -4 -8 -10z"/>
<path d="M2883 1326 c-26 -12 -28 -19 -13 -47 12 -22 10 -22 -23 -10 -21 8
-26 7 -29 -13 -5 -27 0 -46 13 -46 6 0 8 4 5 9 -4 5 -3 16 0 25 5 12 11 13 24
6 10 -6 26 -10 35 -10 14 0 14 2 -1 25 -18 27 -12 45 16 45 10 0 21 4 24 9 9
14 -26 18 -51 7z"/>
<path d="M340 1303 c0 -22 1 -23 16 -9 8 9 20 14 25 11 5 -4 9 -2 9 3 0 5 -11
12 -25 14 -21 4 -25 1 -25 -19z"/>
<path d="M250 1309 c0 -6 7 -9 15 -5 8 3 19 -2 24 -12 6 -10 11 -12 11 -4 0 6
8 12 18 13 14 0 14 2 -3 9 -29 12 -65 12 -65 -1z"/>
<path d="M570 1309 c0 -5 11 -9 25 -9 14 0 25 4 25 9 0 5 -11 9 -25 9 -14 0
-25 -4 -25 -9z"/>
<path d="M1635 1310 c-3 -5 -1 -10 4 -10 6 0 11 5 11 10 0 6 -2 10 -4 10 -3 0
-8 -4 -11 -10z"/>
<path d="M1720 1313 c0 -5 5 -15 10 -23 8 -12 10 -11 10 8 0 12 -4 22 -10 22
-5 0 -10 -3 -10 -7z"/>
<path d="M2185 1310 c-3 -5 -1 -10 4 -10 6 0 11 5 11 10 0 6 -2 10 -4 10 -3 0
-8 -4 -11 -10z"/>
<path d="M2210 1310 c0 -5 5 -10 11 -10 5 0 7 5 4 10 -3 6 -8 10 -11 10 -2 0
-4 -4 -4 -10z"/>
<path d="M2270 1310 c0 -5 5 -10 11 -10 5 0 7 5 4 10 -3 6 -8 10 -11 10 -2 0
-4 -4 -4 -10z"/>
<path d="M2610 1308 c0 -4 9 -8 19 -8 11 0 22 -6 24 -12 3 -7 6 -3 6 9 1 18
-4 22 -24 21 -14 -1 -25 -6 -25 -10z"/>
<path d="M2960 1310 c0 -5 5 -10 10 -10 6 0 10 5 10 10 0 6 -4 10 -10 10 -5 0
-10 -4 -10 -10z"/>
<path d="M2084 1275 c-9 -23 10 -40 25 -22 9 11 8 17 -4 27 -12 10 -16 9 -21
-5z"/>
<path d="M1787 1263 c-4 -3 -7 -12 -7 -20 0 -15 26 -18 34 -4 7 11 -18 33 -27
24z"/>
<path d="M2762 1258 c-7 -7 -12 -18 -12 -26 0 -10 -8 -13 -25 -10 -29 6 -38
-2 -24 -22 6 -10 9 -11 9 -2 0 6 8 12 18 12 27 1 69 37 57 49 -8 8 -15 7 -23
-1z"/>
<path d="M241 1237 c-9 -11 -8 -17 4 -27 12 -10 16 -9 21 5 9 23 -10 40 -25
22z"/>
<path d="M1114 1219 c-10 -17 13 -36 27 -22 12 12 4 33 -11 33 -5 0 -12 -5
-16 -11z"/>
<path d="M298 1213 c6 -2 18 -2 25 0 6 3 1 5 -13 5 -14 0 -19 -2 -12 -5z"/>
<path d="M637 1206 c-7 -16 1 -26 20 -26 7 0 13 9 13 20 0 23 -25 27 -33 6z"/>
<path d="M1748 1213 c7 -3 16 -2 19 1 4 3 -2 6 -13 5 -11 0 -14 -3 -6 -6z"/>
<path d="M2271 1213 c33 -5 48 -43 17 -43 -22 0 -22 -30 0 -38 15 -5 30 34 24
65 -3 19 -10 23 -36 22 -28 -2 -29 -2 -5 -6z"/>
<path d="M2240 1179 c0 -11 4 -18 10 -14 5 3 7 12 3 20 -7 21 -13 19 -13 -6z"/>
<path d="M110 1158 c1 -20 2 -21 11 -6 5 10 16 15 24 12 8 -4 15 -1 15 5 0 6
-11 11 -25 11 -19 0 -25 -5 -25 -22z"/>
<path d="M1030 1160 c0 -11 4 -20 8 -20 4 0 8 9 9 20 1 11 -2 20 -8 20 -5 0
-9 -9 -9 -20z"/>
<path d="M1920 1170 c0 -5 5 -10 10 -10 6 0 10 5 10 10 0 6 -4 10 -10 10 -5 0
-10 -4 -10 -10z"/>
<path d="M2040 1171 c0 -6 4 -13 10 -16 6 -3 7 1 4 9 -7 18 -14 21 -14 7z"/>
<path d="M2330 1170 c0 -5 5 -10 10 -10 6 0 10 5 10 10 0 6 -4 10 -10 10 -5 0
-10 -4 -10 -10z"/>
<path d="M2700 1171 c0 -5 11 -8 25 -8 14 0 25 3 25 8 0 5 -11 9 -25 9 -14 0
-25 -4 -25 -9z"/>
<path d="M92 1108 c-16 -16 -15 -33 2 -47 22 -18 48 -2 44 28 -3 28 -27 38
-46 19z"/>
<path d="M742 1108 c-17 -17 -15 -48 3 -54 18 -7 45 12 45 32 0 20 -34 36 -48
22z"/>
<path d="M20 1029 c0 -5 5 -7 10 -4 6 3 10 8 10 11 0 2 -4 4 -10 4 -5 0 -10
-5 -10 -11z"/>
<path d="M665 1030 c3 -5 8 -10 11 -10 2 0 4 5 4 10 0 6 -5 10 -11 10 -5 0 -7
-4 -4 -10z"/>
<path d="M1953 1020 c2 -24 4 -24 23 -6 19 20 18 26 -5 26 -14 0 -19 -6 -18
-20z"/>
<path d="M2235 1004 c-19 -19 -19 -28 0 -44 21 -17 45 -5 45 24 0 29 -24 40
-45 20z"/>
<path d="M1980 930 c0 -15 5 -20 18 -18 9 2 17 10 17 18 0 8 -8 16 -17 18 -13
2 -18 -3 -18 -18z"/>
<path d="M1928 933 c6 -2 18 -2 25 0 6 3 1 5 -13 5 -14 0 -19 -2 -12 -5z"/>
<path d="M3 750 c0 -96 2 -158 4 -137 4 33 7 37 34 37 24 0 29 4 29 25 0 30
36 36 43 8 4 -17 5 -17 6 0 1 11 9 17 26 17 33 0 35 -37 3 -43 -23 -4 -23 -4
-1 -6 17 -1 21 -7 21 -31 -1 -17 2 -33 5 -37 4 -3 7 10 7 30 0 33 3 37 25 37
18 0 25 -5 25 -20 0 -12 -5 -17 -14 -14 -10 4 -16 -6 -21 -35 -4 -23 -11 -41
-16 -41 -11 0 -12 -50 -1 -66 4 -6 19 -14 34 -17 25 -7 26 -5 33 41 9 68 11
70 80 62 36 -4 63 -3 66 3 4 5 12 36 19 69 10 46 16 57 29 54 54 -15 92 -16
95 -4 42 134 43 137 29 142 -8 3 -11 11 -8 16 4 6 3 10 -2 9 -4 -1 -12 0 -18
1 -5 1 -36 1 -67 0 -47 -1 -58 2 -58 14 0 19 46 22 53 4 3 -7 5 3 5 22 0 19
-2 28 -5 19 -4 -18 -42 -15 -55 5 -4 6 -8 -6 -8 -26 0 -30 -4 -37 -22 -41
l-23 -4 23 -2 c27 -1 31 -37 5 -44 -16 -4 -16 -5 -1 -6 9 0 19 -9 21 -18 4
-17 5 -17 6 0 2 26 51 23 51 -3 0 -17 -7 -20 -44 -20 -42 0 -45 -2 -51 -32
-19 -92 -26 -108 -48 -109 -18 -1 -19 -2 -3 -6 26 -7 39 10 57 75 l16 57 41
-1 c39 0 42 2 42 27 0 15 6 30 13 32 10 4 10 6 0 6 -7 1 -13 10 -13 21 0 14 7
20 24 20 23 0 23 0 10 -50 -7 -28 -16 -55 -20 -62 -4 -7 -3 -8 4 -4 7 4 17 27
23 52 11 42 24 62 35 51 3 -3 -3 -34 -13 -71 l-17 -66 -41 7 c-22 3 -46 7 -54
7 -10 1 -20 -21 -31 -64 l-16 -65 -39 3 c-22 1 -52 5 -66 8 -25 5 -27 2 -39
-54 -10 -51 -15 -59 -31 -55 -12 4 -18 12 -15 22 3 9 8 30 12 46 9 40 22 55
48 56 11 0 15 3 9 6 -7 2 -13 13 -13 24 0 16 8 19 53 20 28 1 42 4 30 6 -34 6
-30 41 5 46 l27 4 -27 2 c-36 1 -39 31 -4 31 14 0 28 5 31 11 4 6 1 10 -6 8
-38 -5 -51 1 -46 21 4 17 0 20 -26 19 -24 -1 -26 -3 -9 -6 27 -5 29 -33 2 -33
-11 0 -20 -4 -20 -10 0 -5 9 -10 20 -10 11 0 20 -7 20 -15 0 -9 -9 -15 -25
-15 -21 0 -25 5 -25 31 0 26 -2 30 -15 19 -8 -6 -20 -8 -26 -4 -8 5 -9 3 -5
-5 5 -7 14 -10 22 -7 9 3 14 -2 14 -14 0 -30 -47 -27 -53 3 l-4 22 -2 -22 c-1
-17 -7 -23 -26 -23 -29 0 -33 17 -7 36 16 13 16 14 0 8 -12 -4 -18 -1 -18 10
0 19 1 19 34 6 21 -8 31 -5 56 16 34 29 39 66 15 101 -19 28 -67 38 -97 21
-32 -18 -58 -18 -58 -1 0 12 -3 12 -16 -1 -8 -9 -20 -14 -25 -11 -5 4 -9 1 -9
-5 0 -6 8 -10 17 -8 10 2 19 -4 21 -14 3 -13 -3 -18 -22 -18 -21 0 -25 5 -29
38 -2 20 -4 -42 -4 -138z m205 138 c17 -17 15 -68 -5 -90 -22 -24 -45 -23 -72
6 -24 25 -23 72 1 88 19 12 62 10 76 -4z m-115 -32 c-3 -14 1 -34 9 -44 8 -12
12 -37 10 -61 -3 -32 -8 -41 -23 -41 -27 0 -28 79 -1 81 16 1 16 2 0 6 -13 3
-17 14 -16 41 1 42 6 55 17 47 5 -2 6 -16 4 -29z m-33 -36 c0 -14 -7 -20 -22
-21 l-23 -2 23 -4 c31 -6 29 -33 -3 -33 -22 0 -25 4 -25 40 0 36 3 40 25 40
18 0 25 -5 25 -20z m400 0 c0 -15 -7 -20 -25 -20 -18 0 -25 5 -25 20 0 15 7
20 25 20 18 0 25 -5 25 -20z m-400 -96 c0 -8 -10 -14 -25 -14 -18 0 -25 5 -25
19 0 14 6 17 25 13 14 -2 25 -11 25 -18z m0 -44 c0 -15 -7 -20 -25 -20 -18 0
-25 5 -25 20 0 15 7 20 25 20 18 0 25 -5 25 -20z m170 0 c0 -15 -7 -20 -25
-20 -18 0 -25 5 -25 20 0 15 7 20 25 20 18 0 25 -5 25 -20z m60 0 c0 -15 -7
-20 -25 -20 -18 0 -25 5 -25 20 0 15 7 20 25 20 18 0 25 -5 25 -20z"/>
<path d="M80 750 c0 -5 5 -10 10 -10 6 0 10 5 10 10 0 6 -4 10 -10 10 -5 0
-10 -4 -10 -10z"/>
<path d="M285 910 c3 -5 -3 -10 -14 -10 -12 0 -21 -4 -21 -10 0 -5 9 -10 20
-10 27 0 25 -28 -2 -33 l-23 -4 23 -2 c13 0 22 -8 23 -18 0 -14 2 -15 6 -3 3
8 11 18 17 22 8 5 7 8 -1 8 -7 0 -13 8 -13 18 0 22 40 25 41 2 0 -10 2 -11 6
-2 2 6 13 12 24 12 10 0 19 5 19 10 0 6 -9 10 -19 10 -11 0 -22 6 -24 13 -4
10 -6 10 -6 0 -1 -15 -41 -18 -41 -3 0 6 -5 10 -11 10 -5 0 -7 -4 -4 -10z"/>
<path d="M512 904 c-7 -8 -19 -11 -25 -8 -8 5 -9 4 -2 -4 11 -11 29 -15 58
-13 20 1 23 21 3 21 -8 0 -16 4 -18 9 -1 5 -9 3 -16 -5z"/>
<path d="M2184 911 c4 -5 0 -12 -6 -14 -10 -4 -10 -8 1 -15 9 -6 12 -24 9 -51
-2 -22 0 -41 4 -41 5 0 8 11 8 25 0 23 4 25 48 26 26 1 37 4 24 6 -27 5 -26
40 1 35 9 -2 17 2 17 8 0 5 -9 10 -19 10 -11 0 -22 6 -24 13 -3 6 -6 -5 -6
-25 -1 -31 -5 -38 -21 -38 -16 0 -20 7 -20 35 0 19 -5 35 -11 35 -5 0 -8 -4
-5 -9z"/>
<path d="M2532 900 c0 -14 2 -19 5 -12 2 6 2 18 0 25 -3 6 -5 1 -5 -13z"/>
<path d="M2567 914 c-14 -15 -6 -34 14 -34 14 0 19 5 17 17 -3 18 -20 27 -31
17z"/>
<path d="M2834 906 c-10 -26 4 -48 28 -44 17 2 23 10 23 28 0 18 -6 26 -23 28
-13 2 -25 -3 -28 -12z"/>
<path d="M2931 890 c0 -28 2 -32 10 -18 5 10 16 15 24 12 8 -4 15 -1 15 5 0 6
-9 11 -19 11 -11 0 -22 6 -24 13 -3 6 -6 -4 -6 -23z"/>
<path d="M2354 899 c-10 -17 13 -36 27 -22 12 12 4 33 -11 33 -5 0 -12 -5 -16
-11z"/>
<path d="M600 890 c0 -5 5 -10 10 -10 6 0 10 5 10 10 0 6 -4 10 -10 10 -5 0
-10 -4 -10 -10z"/>
<path d="M1925 890 c-3 -5 -1 -10 4 -10 6 0 11 5 11 10 0 6 -2 10 -4 10 -3 0
-8 -4 -11 -10z"/>
<path d="M1950 890 c0 -5 5 -10 10 -10 6 0 10 5 10 10 0 6 -4 10 -10 10 -5 0
-10 -4 -10 -10z"/>
<path d="M2210 890 c0 -5 5 -10 10 -10 6 0 10 5 10 10 0 6 -4 10 -10 10 -5 0
-10 -4 -10 -10z"/>
<path d="M2440 890 c0 -5 5 -10 11 -10 5 0 7 5 4 10 -3 6 -8 10 -11 10 -2 0
-4 -4 -4 -10z"/>
<path d="M2470 889 c0 -5 11 -9 25 -9 14 0 25 4 25 9 0 5 -11 9 -25 9 -14 0
-25 -4 -25 -9z"/>
<path d="M1625 851 c-8 -15 3 -31 21 -31 9 0 14 7 12 17 -4 20 -24 28 -33 14z"/>
<path d="M325 830 c-10 -16 16 -43 28 -31 11 11 2 41 -12 41 -5 0 -13 -5 -16
-10z"/>
<path d="M2235 812 c-31 -26 -33 -97 -4 -128 l22 -24 -26 0 c-22 0 -27 5 -27
25 0 21 -5 25 -27 24 -17 0 -22 -3 -13 -6 15 -6 30 -23 30 -35 0 -3 -41 -7
-92 -7 -50 -1 -94 -3 -96 -6 -3 -3 11 -5 31 -5 29 0 36 -4 40 -22 l4 -23 2 23
c1 16 7 22 25 22 19 0 26 -6 29 -27 l4 -28 2 28 c1 22 6 27 26 27 16 0 25 -6
25 -15 0 -9 -9 -15 -22 -15 l-22 0 22 -20 c29 -27 32 -26 32 15 0 28 4 35 20
35 11 0 20 -7 20 -15 0 -8 -7 -15 -15 -15 -8 0 -15 -5 -15 -11 0 -6 7 -9 15
-5 11 4 15 -1 15 -19 0 -21 5 -25 29 -25 16 0 32 -6 34 -12 4 -10 6 -10 6 0 1
6 12 12 26 12 19 0 25 -5 25 -21 0 -13 -5 -19 -12 -17 -7 3 -43 11 -80 18 -38
8 -68 17 -68 21 0 3 -10 6 -22 6 -20 0 -23 -5 -25 -46 l-1 -46 10 37 c9 35 12
37 41 32 18 -3 52 -12 77 -20 25 -7 54 -15 65 -17 11 -1 25 -6 32 -10 6 -4 14
-3 18 3 3 5 39 10 80 10 71 0 73 1 67 23 -5 18 -7 19 -10 5 -2 -12 -13 -18
-29 -18 -22 0 -25 4 -21 25 3 16 1 25 -7 25 -8 0 -10 -9 -7 -25 3 -20 0 -25
-16 -25 -11 0 -23 8 -25 18 -4 16 -5 16 -6 0 -2 -26 -51 -25 -51 1 0 11 8 22
18 24 16 4 16 5 0 6 -14 1 -18 10 -18 41 0 36 3 40 24 40 15 0 26 -7 28 -17 3
-15 5 -14 10 5 6 20 3 22 -32 22 -32 0 -39 -4 -42 -22 -2 -13 -8 -23 -15 -23
-6 0 -15 -3 -19 -7 -4 -5 2 -8 14 -8 13 0 22 -6 22 -15 0 -9 -9 -15 -24 -15
-20 0 -25 6 -29 33 l-4 32 -1 -32 c-2 -28 -6 -33 -27 -33 -31 0 -33 25 -2 35
l22 8 -22 4 c-13 3 -23 12 -23 22 0 13 7 16 34 13 45 -5 75 12 92 54 12 30 12
39 0 69 -23 53 -99 73 -141 37z m39 -4 c-6 -10 -4 -10 8 0 21 17 65 0 79 -32
14 -30 6 -64 -21 -94 -29 -31 -63 -28 -95 10 -31 37 -29 82 6 111 25 20 33 22
23 5z"/>
<path d="M2620 801 c0 -19 12 -41 20 -36 10 6 1 45 -11 45 -5 0 -9 -4 -9 -9z"/>
<path d="M2683 793 c15 -2 37 -2 50 0 12 2 0 4 -28 4 -27 0 -38 -2 -22 -4z"/>
<path d="M2586 767 c3 -10 9 -15 12 -12 3 3 0 11 -7 18 -10 9 -11 8 -5 -6z"/>
<path d="M2712 768 c-17 -17 -15 -45 3 -52 12 -4 15 3 15 29 0 39 -1 40 -18
23z"/>
<path d="M585 750 c3 -5 13 -10 21 -10 8 0 14 5 14 10 0 6 -9 10 -21 10 -11 0
-17 -4 -14 -10z"/>
<path d="M1730 748 c0 -4 7 -8 15 -8 8 0 15 4 15 8 0 5 -7 9 -15 9 -8 0 -15
-4 -15 -9z"/>
<path d="M1780 740 c0 -15 5 -20 18 -18 9 2 17 10 17 18 0 8 -8 16 -17 18 -13
2 -18 -3 -18 -18z"/>
<path d="M2440 750 c0 -5 5 -10 10 -10 6 0 10 5 10 10 0 6 -4 10 -10 10 -5 0
-10 -4 -10 -10z"/>
<path d="M2470 750 c0 -5 5 -10 10 -10 6 0 10 5 10 10 0 6 -4 10 -10 10 -5 0
-10 -4 -10 -10z"/>
<path d="M568 718 c-7 -17 1 -38 13 -38 6 0 7 5 4 10 -3 6 4 11 17 11 20 1 21
2 3 6 -11 3 -23 10 -26 15 -4 6 -8 4 -11 -4z"/>
<path d="M2470 726 c0 -2 8 -10 18 -17 15 -13 16 -12 3 4 -13 16 -21 21 -21
13z"/>
<path d="M2408 703 c6 -2 9 -10 5 -16 -5 -9 -3 -9 8 -1 8 6 21 14 29 17 8 3
-1 5 -20 5 -19 0 -29 -2 -22 -5z"/>
<path d="M2450 666 c0 -3 14 -11 30 -20 34 -16 37 -15 14 8 -14 14 -44 22 -44
12z"/>
<path d="M443 653 c12 -3 17 -15 17 -41 1 -30 2 -34 11 -19 6 9 14 15 19 12 5
-3 12 0 16 6 5 9 0 10 -14 7 -17 -5 -22 -2 -22 12 0 11 9 20 23 23 12 2 2 4
-23 4 -25 1 -37 -1 -27 -4z"/>
<path d="M74 636 c-10 -26 4 -48 28 -44 33 4 33 52 0 56 -13 2 -25 -3 -28 -12z"/>
<path d="M2011 611 c-1 -32 0 -33 12 -16 8 10 19 15 25 11 7 -4 12 -2 12 3 0
6 -9 11 -19 11 -11 0 -22 6 -24 13 -3 6 -6 -3 -6 -22z"/>
<path d="M2820 607 c0 -20 -6 -38 -12 -40 -10 -4 -10 -6 0 -6 6 -1 12 -10 12
-20 0 -17 -7 -20 -51 -19 -28 0 -53 -3 -56 -6 -4 -3 6 -6 20 -6 25 0 27 -3 27
-45 0 -43 1 -45 30 -45 23 0 30 -5 30 -19 0 -11 -8 -22 -17 -24 -17 -4 -17 -5
0 -6 10 -1 17 -9 17 -21 0 -12 -5 -17 -14 -14 -8 3 -17 1 -21 -5 -3 -7 2 -11
14 -11 28 0 27 -28 -1 -33 -23 -4 -23 -4 -1 -6 19 -1 21 -7 21 -47 0 -25 3
-48 6 -52 3 -3 6 7 6 21 0 22 4 27 26 27 21 0 25 -4 21 -20 -3 -11 -1 -23 4
-26 5 -3 9 6 9 20 0 19 5 26 20 26 13 0 20 -7 20 -20 0 -13 -5 -18 -15 -14 -8
4 -15 1 -15 -5 0 -6 7 -11 15 -11 8 0 15 -5 15 -11 0 -6 7 -3 16 5 8 9 20 14
25 11 5 -4 9 -1 9 5 0 6 -8 10 -17 8 -10 -2 -19 4 -21 15 -3 12 3 17 22 17 21
0 25 -5 29 -38 2 -23 4 -15 4 23 0 33 -1 52 -4 43 -3 -14 -15 -18 -54 -18 -46
0 -49 2 -49 25 0 21 -5 25 -30 25 -28 0 -30 2 -30 39 0 33 4 40 23 44 22 4 22
4 0 6 -19 1 -22 7 -21 41 0 27 5 40 14 40 8 0 14 5 14 10 0 6 -5 9 -12 8 -6
-2 -14 5 -16 15 -3 15 6 17 77 17 l81 0 0 -39 0 -40 -47 -4 -48 -3 48 -2 c40
-2 47 -5 47 -22 0 -26 -46 -28 -53 -2 -4 16 -5 16 -6 0 -1 -12 -9 -18 -26 -18
-18 0 -25 -5 -25 -20 0 -13 -7 -20 -20 -20 -11 0 -20 -4 -20 -10 0 -5 9 -10
19 -10 11 0 22 -6 24 -12 3 -8 6 -6 6 4 1 11 6 15 16 12 8 -4 15 -1 15 5 0 6
-7 11 -15 11 -8 0 -15 7 -15 15 0 18 36 20 43 3 4 -10 6 -10 6 0 1 6 12 12 26
12 22 0 25 -4 25 -39 0 -29 -5 -41 -17 -44 -14 -4 -12 -5 5 -6 22 -1 22 0 22
144 l0 145 -52 -2 -53 -2 48 -3 c39 -3 47 -8 47 -24 0 -25 -46 -27 -53 -1 -4
16 -5 16 -6 0 -2 -27 -39 -23 -43 5 -2 16 -11 23 -30 25 -20 2 -28 9 -28 23 0
11 5 17 10 14 15 -9 12 4 -5 21 -13 14 -15 12 -15 -19z m60 -67 c0 -15 -7 -20
-25 -20 -18 0 -25 5 -25 20 0 15 7 20 25 20 18 0 25 -5 25 -20z m-60 -49 c0
-14 -6 -17 -25 -13 -14 2 -25 11 -25 18 0 8 10 14 25 14 18 0 25 -5 25 -19z
m0 -46 c0 -9 -9 -15 -25 -15 -16 0 -25 6 -25 15 0 9 9 15 25 15 16 0 25 -6 25
-15z m60 -185 c0 -15 -7 -20 -25 -20 -18 0 -25 5 -25 20 0 15 7 20 25 20 18 0
25 -5 25 -20z"/>
<path d="M2930 623 c0 -18 6 -23 25 -23 14 0 25 5 25 11 0 6 -7 9 -15 5 -8 -3
-19 2 -24 12 -9 15 -10 14 -11 -5z"/>
<path d="M2560 619 c0 -5 5 -7 10 -4 6 3 10 8 10 11 0 2 -4 4 -10 4 -5 0 -10
-5 -10 -11z"/>
<path d="M25 610 c3 -5 8 -10 11 -10 2 0 4 5 4 10 0 6 -5 10 -11 10 -5 0 -7
-4 -4 -10z"/>
<path d="M435 610 c3 -5 8 -10 11 -10 2 0 4 5 4 10 0 6 -5 10 -11 10 -5 0 -7
-4 -4 -10z"/>
<path d="M1690 609 c0 -5 5 -7 10 -4 6 3 10 8 10 11 0 2 -4 4 -10 4 -5 0 -10
-5 -10 -11z"/>
<path d="M2380 610 c0 -5 7 -7 15 -4 8 4 15 8 15 10 0 2 -7 4 -15 4 -8 0 -15
-4 -15 -10z"/>
<path d="M2470 610 c0 -5 5 -10 11 -10 5 0 7 5 4 10 -3 6 -8 10 -11 10 -2 0
-4 -4 -4 -10z"/>
<path d="M2795 610 c3 -5 8 -10 11 -10 2 0 4 5 4 10 0 6 -5 10 -11 10 -5 0 -7
-4 -4 -10z"/>
<path d="M2872 603 c2 -10 10 -18 18 -18 8 0 16 8 18 18 2 12 -3 17 -18 17
-15 0 -20 -5 -18 -17z"/>
<path d="M512 583 c4 -21 33 -25 33 -3 0 8 -8 16 -18 18 -14 3 -18 -1 -15 -15z"/>
<path d="M2080 586 c0 -21 21 -31 30 -15 5 7 6 17 4 21 -9 14 -34 9 -34 -6z"/>
<path d="M2410 586 c0 -8 4 -17 9 -20 11 -7 33 18 24 27 -12 12 -33 7 -33 -7z"/>
<path d="M2506 584 c-8 -22 -5 -24 22 -17 12 3 22 12 22 19 0 20 -37 17 -44
-2z"/>
<path d="M1440 580 c-1 -8 -1 -25 -1 -37 2 -13 -5 -23 -16 -26 -16 -4 -17 -5
0 -6 25 -2 21 -27 -5 -36 l-23 -8 23 -4 c31 -6 29 -33 -3 -33 -14 0 -25 6 -25
13 0 9 -2 9 -8 1 -4 -7 -33 -12 -66 -13 -32 0 -61 -3 -64 -6 -3 -3 11 -5 31
-5 30 0 37 -4 37 -20 0 -17 -7 -20 -41 -20 -36 0 -39 -2 -25 -15 17 -17 30
-20 21 -5 -3 6 5 10 19 10 15 0 26 -7 29 -17 4 -16 5 -16 6 -1 1 13 12 17 55
17 l53 0 0 -39 c0 -32 -4 -40 -21 -43 -11 -2 6 -4 39 -4 33 0 45 2 28 4 -33 4
-48 33 -18 33 8 0 15 5 15 10 0 6 -7 10 -15 10 -8 0 -15 7 -15 15 0 9 10 15
26 15 23 0 25 -3 20 -25 -4 -14 -2 -25 4 -25 5 0 10 11 10 25 0 33 37 36 42 3
2 -12 9 -23 16 -24 7 -1 8 0 2 3 -5 2 -10 13 -10 24 0 14 7 19 30 19 25 0 30
4 30 25 0 20 5 25 25 25 22 0 24 -4 23 -35 -1 -19 2 -38 5 -42 4 -3 7 1 7 10
0 20 46 24 53 5 4 -10 6 -10 6 0 1 8 18 12 51 12 l50 0 0 -40 c0 -36 -2 -40
-25 -40 -16 0 -25 6 -25 15 0 8 9 15 20 15 11 0 20 5 20 10 0 6 -9 10 -19 10
-11 0 -22 6 -24 13 -3 6 -6 -5 -6 -25 -1 -22 -6 -38 -13 -38 -6 0 -8 -3 -4 -7
4 -4 22 -6 41 -5 l35 3 0 -63 c0 -43 3 -58 10 -48 5 8 7 25 4 37 -4 15 0 23
13 26 16 4 16 5 1 6 -11 1 -18 9 -18 21 0 26 46 28 53 3 4 -17 5 -17 6 0 1 11
9 17 24 17 31 0 34 -37 4 -43 -12 -2 12 -4 53 -4 41 0 65 2 53 4 -12 2 -24 12
-26 21 -4 15 -5 15 -6 0 -2 -26 -41 -24 -41 2 0 17 7 20 50 20 49 0 50 -1 50
-30 0 -25 -4 -30 -23 -30 -48 0 -67 -45 -42 -102 6 -14 2 -18 -15 -18 -18 0
-21 4 -18 25 5 23 2 25 -28 25 -18 0 -35 6 -37 13 -4 9 -6 9 -6 0 -1 -9 -20
-13 -58 -14 -32 -1 -47 -4 -33 -6 14 -3 28 -10 32 -17 6 -8 8 -8 8 2 0 6 11
12 25 12 21 0 25 -5 25 -27 0 -28 0 -28 62 -25 35 2 74 -1 88 -6 32 -12 64 2
79 35 20 44 9 76 -34 101 -19 11 -18 11 7 12 14 0 29 -6 31 -12 4 -10 6 -10 6
0 1 7 14 12 33 12 17 0 29 3 26 6 -4 3 -31 5 -62 5 -48 0 -56 3 -56 19 0 11 9
20 23 23 l22 4 -22 2 c-20 1 -23 7 -23 40 0 29 5 41 18 44 16 4 16 5 0 6 -11
1 -18 9 -18 21 0 15 7 20 26 20 22 0 25 -4 21 -22 -15 -63 -19 -103 -9 -93 6
6 13 35 17 65 9 76 9 74 18 81 4 3 1 12 -8 19 -13 11 -15 9 -15 -14 0 -21 -5
-26 -25 -26 -16 0 -25 6 -25 15 0 8 9 15 20 15 11 0 20 5 20 11 0 6 -9 9 -20
6 -15 -4 -20 0 -20 15 0 17 5 20 30 16 29 -4 30 -3 29 31 -2 30 -3 32 -6 9 -3
-22 -10 -28 -28 -28 -14 0 -25 7 -28 18 -4 16 -5 16 -6 0 -1 -12 -9 -18 -26
-18 -33 0 -35 37 -2 43 12 2 2 4 -23 4 -25 1 -37 -1 -27 -4 9 -2 17 -13 17
-23 0 -18 -8 -19 -96 -19 -53 0 -99 -2 -102 -5 -3 -3 54 -6 126 -6 l132 0 0
-40 0 -40 -80 0 c-73 0 -80 2 -80 20 0 13 5 18 15 14 8 -4 15 -1 15 5 0 6 -6
11 -14 11 -8 0 -17 6 -19 13 -4 10 -6 10 -6 0 -1 -7 -12 -13 -25 -13 -13 0
-27 6 -29 13 -3 7 -6 4 -6 -6 -1 -10 -5 -16 -10 -12 -5 3 -12 1 -16 -5 -3 -5
1 -10 9 -10 28 0 17 -28 -11 -33 l-28 -4 28 -2 c20 -1 27 -6 27 -21 0 -26 -46
-28 -53 -2 -4 16 -5 16 -6 0 -1 -12 -9 -18 -27 -18 -17 0 -23 4 -18 13 6 10 4
10 -7 0 -7 -7 -21 -13 -31 -13 -24 0 -24 37 0 43 16 4 16 5 0 6 -14 1 -18 10
-18 39 0 27 -3 33 -10 22 -5 -8 -7 -25 -3 -37 4 -20 1 -23 -21 -23 -24 0 -26
4 -26 40 l0 40 43 1 c23 0 36 3 30 6 -19 7 -16 41 5 46 13 4 -52 9 -85 7 -5
-1 -7 -12 -5 -25 3 -21 -1 -25 -22 -25 -19 0 -26 6 -29 28 l-4 27 -2 -27 c-1
-21 -6 -28 -21 -28 -25 0 -27 37 -2 43 9 3 -4 5 -30 6 -27 1 -48 6 -51 14 -4
8 -6 7 -7 -3z m56 -42 c2 -13 -5 -18 -22 -18 -18 0 -24 5 -24 21 0 15 5 20 22
17 11 -2 22 -11 24 -20z m174 2 c0 -15 -7 -20 -25 -20 -18 0 -25 5 -25 20 0
15 7 20 25 20 18 0 25 -5 25 -20z m-63 -70 l0 -40 -78 2 -79 1 0 39 0 38 79 0
78 0 0 -40z m293 -26 c0 -8 -10 -14 -25 -14 -18 0 -25 5 -25 19 0 14 6 17 25
13 14 -2 25 -11 25 -18z m-520 -44 c0 -15 -7 -20 -25 -20 -18 0 -25 5 -25 20
0 15 7 20 25 20 18 0 25 -5 25 -20z m60 0 c0 -15 -7 -20 -25 -20 -18 0 -25 5
-25 20 0 15 7 20 25 20 18 0 25 -5 25 -20z m110 -1 c0 -14 -7 -19 -26 -19 -14
0 -23 4 -19 10 3 6 1 10 -4 10 -6 0 -11 -4 -11 -10 0 -5 -9 -10 -20 -10 -13 0
-20 7 -20 19 0 16 8 19 50 19 43 1 50 -2 50 -19z m60 1 c0 -15 -7 -20 -25 -20
-18 0 -25 5 -25 20 0 15 7 20 25 20 18 0 25 -5 25 -20z m290 0 c0 -15 -7 -20
-25 -20 -18 0 -25 5 -25 20 0 15 7 20 25 20 18 0 25 -5 25 -20z m107 -6 c-4
-22 -1 -24 29 -24 33 0 34 -1 34 -40 0 -36 -2 -40 -25 -40 -16 0 -25 6 -25 15
0 8 9 15 20 15 11 0 20 5 20 10 0 6 -9 10 -19 10 -11 0 -22 6 -24 13 -3 6 -6
-5 -6 -25 l-1 -38 -50 0 c-47 0 -50 2 -50 25 0 21 -5 25 -30 25 -20 0 -30 5
-30 15 0 18 46 21 53 3 3 -7 6 3 6 24 l1 36 51 0 c49 1 51 0 46 -24z m63 6 c0
-15 -7 -20 -25 -20 -18 0 -25 5 -25 20 0 15 7 20 25 20 18 0 25 -5 25 -20z
m-170 -95 c0 -9 -9 -15 -25 -15 -16 0 -25 6 -25 15 0 9 9 15 25 15 16 0 25 -6
25 -15z m209 -114 c17 -30 13 -66 -8 -85 -22 -20 -58 -17 -53 3 2 9 -3 11 -13
8 -8 -4 -15 -3 -16 1 0 4 -3 20 -5 35 -6 38 7 52 50 55 26 2 38 -2 45 -17z
m-149 -71 c0 -15 -7 -20 -25 -20 -18 0 -25 5 -25 20 0 15 7 20 25 20 18 0 25
-5 25 -20z"/>
<path d="M1494 492 c5 -8 0 -12 -13 -12 -12 0 -21 -5 -21 -11 0 -6 7 -9 15 -5
8 3 15 1 15 -4 0 -6 5 -10 10 -10 14 0 13 37 -2 46 -7 4 -8 3 -4 -4z"/>
<path d="M1530 476 c0 -21 21 -31 30 -15 5 7 6 17 4 21 -9 14 -34 9 -34 -6z"/>
<path d="M1934 365 c-9 -23 3 -45 25 -45 21 0 33 22 25 45 -4 8 -15 15 -25 15
-11 0 -22 -7 -25 -15z"/>
<path d="M2589 567 c-16 -12 -32 -57 -21 -57 17 1 64 49 58 59 -9 14 -17 14
-37 -2z"/>
<path d="M0 540 c0 -26 4 -30 28 -30 19 0 29 -5 29 -15 0 -14 -10 -19 -29 -16
-5 0 -8 -3 -8 -9 0 -6 16 -8 36 -5 39 5 59 15 31 15 -9 0 -17 7 -17 15 0 8 9
15 20 15 15 0 20 -7 20 -29 0 -25 3 -28 27 -23 26 5 26 5 5 13 -29 11 -28 36
1 42 l22 4 -22 2 c-38 2 -30 39 10 44 17 2 -10 5 -60 5 l-93 2 0 -30z m110 0
c0 -26 -39 -28 -41 -2 -1 16 -2 16 -6 0 -7 -26 -53 -24 -53 2 0 17 7 20 50 20
43 0 50 -3 50 -20z"/>
<path d="M2623 513 c9 -2 23 -2 30 0 6 3 -1 5 -18 5 -16 0 -22 -2 -12 -5z"/>
<path d="M402 470 c0 -19 2 -27 5 -18 2 10 10 15 19 11 8 -3 14 0 14 6 0 6 -6
11 -14 11 -8 0 -17 6 -19 13 -3 6 -5 -4 -5 -23z"/>
<path d="M456 485 c-3 -8 -1 -15 4 -15 6 0 10 7 10 15 0 8 -2 15 -4 15 -2 0
-6 -7 -10 -15z"/>
<path d="M570 468 c0 -36 10 -32 14 6 2 14 -1 26 -5 26 -5 0 -9 -14 -9 -32z"/>
<path d="M1953 481 c-1 -13 5 -18 23 -18 13 0 24 4 24 9 0 5 -5 6 -10 3 -6 -3
-13 1 -16 9 -8 22 -19 20 -21 -3z"/>
<path d="M2010 468 c0 -36 11 -31 15 7 2 14 -1 25 -6 25 -5 0 -9 -14 -9 -32z"/>
<path d="M2470 468 c1 -27 2 -30 11 -16 5 10 17 15 27 12 9 -3 7 1 -6 8 -12 8
-19 17 -16 21 4 4 2 7 -4 7 -7 0 -12 -14 -12 -32z"/>
<path d="M2531 484 c0 -11 3 -14 6 -6 3 7 2 16 -1 19 -3 4 -6 -2 -5 -13z"/>
<path d="M2588 488 c-3 -7 -2 -22 3 -33 6 -16 8 -16 8 -3 1 12 7 15 24 10 12
-3 25 -10 29 -16 5 -7 8 -5 8 6 0 11 6 15 20 11 11 -3 20 -12 20 -19 0 -10
-16 -14 -57 -16 -36 -1 -45 -3 -25 -5 24 -3 32 -9 32 -24 0 -14 -7 -19 -25
-19 -14 0 -25 6 -25 13 0 8 -3 9 -8 1 -4 -6 -14 -14 -22 -17 -12 -4 -11 -6 3
-6 29 -2 20 -31 -9 -31 -21 0 -25 4 -21 20 5 19 1 20 -61 19 -37 -1 -56 -4
-42 -6 14 -3 28 -10 32 -17 6 -8 8 -8 8 2 0 6 11 12 25 12 16 0 25 -6 25 -15
0 -10 -10 -15 -30 -15 -16 0 -30 -5 -30 -11 0 -7 12 -10 30 -7 24 4 30 1 30
-14 0 -21 -45 -26 -53 -5 -4 10 -6 10 -6 0 -1 -18 -41 -16 -41 2 0 8 7 15 15
15 8 0 15 5 15 10 0 6 -8 10 -19 10 -13 0 -20 -9 -23 -30 -4 -27 -2 -30 24
-30 19 0 28 -5 28 -16 0 -8 5 -12 10 -9 6 4 8 11 5 16 -4 5 5 9 19 9 21 0 26
-5 26 -25 0 -20 5 -25 23 -24 16 1 18 2 5 6 -10 2 -18 13 -18 24 0 14 7 19 26
19 23 0 26 -3 21 -26 -3 -16 -1 -22 5 -16 5 5 10 16 12 23 9 50 17 59 59 60
34 1 37 2 17 8 -14 4 -37 7 -52 6 -21 -1 -28 3 -28 17 0 21 45 26 53 6 4 -10
6 -10 6 0 2 21 49 14 54 -8 4 -17 4 -16 3 2 -1 17 -8 24 -28 26 -20 2 -28 9
-28 23 0 15 7 19 31 19 50 0 63 -21 48 -79 l-12 -50 -47 6 -47 5 -9 -48 -10
-49 -56 1 -57 1 -7 -43 c-4 -28 -11 -44 -20 -44 -17 0 -17 14 1 65 20 54 19
55 -14 55 -20 0 -31 6 -34 18 -4 15 -5 15 -6 0 0 -9 -9 -19 -18 -21 -10 -3 1
-5 25 -6 l44 -1 -7 -32 c-4 -18 -12 -40 -18 -49 -8 -13 -6 -21 6 -33 27 -28
44 -19 56 29 l11 45 55 -6 c43 -5 55 -4 55 7 0 8 5 31 11 53 11 38 11 38 53
33 l43 -6 18 60 c18 57 18 62 2 71 -10 5 -15 13 -12 19 4 5 -3 9 -14 9 -12 0
-21 7 -21 15 0 8 9 15 20 15 11 0 20 4 20 10 0 5 -15 8 -35 5 -22 -2 -40 1
-49 10 -12 13 -15 13 -20 0 -5 -15 -35 -10 -47 8 -3 5 -8 3 -11 -5z m22 -178
c0 -10 -26 -20 -51 -20 -27 0 -24 28 4 32 26 5 47 -1 47 -12z"/>
<path d="M2877 486 c-10 -26 -10 -26 23 -22 22 2 30 -1 31 -13 0 -10 2 -11 6
-3 2 6 13 12 24 12 10 0 19 5 19 10 0 6 -9 10 -19 10 -11 0 -22 6 -24 13 -4
10 -6 10 -6 0 -1 -16 -38 -17 -43 -1 -3 7 -7 5 -11 -6z"/>
<path d="M540 470 c0 -5 5 -10 10 -10 6 0 10 5 10 10 0 6 -4 10 -10 10 -5 0
-10 -4 -10 -10z"/>
<path d="M1630 470 c0 -5 5 -10 10 -10 6 0 10 5 10 10 0 6 -4 10 -10 10 -5 0
-10 -4 -10 -10z"/>
<path d="M2040 470 c0 -5 5 -10 10 -10 6 0 10 5 10 10 0 6 -4 10 -10 10 -5 0
-10 -4 -10 -10z"/>
<path d="M2381 413 c-27 -148 -32 -165 -48 -158 -13 5 -191 45 -200 45 -2 0
-3 -8 -3 -18 0 -14 21 -22 120 -43 l120 -26 5 21 c3 12 14 65 25 119 11 54 22
102 25 107 4 6 -16 20 -29 20 -1 0 -8 -30 -15 -67z"/>
<path d="M2445 470 c-3 -5 -1 -10 4 -10 6 0 11 5 11 10 0 6 -2 10 -4 10 -3 0
-8 -4 -11 -10z"/>
<path d="M2532 448 c-16 -16 -15 -33 4 -48 22 -19 54 12 38 37 -14 22 -27 26
-42 11z"/>
<path d="M437 443 c-12 -11 -8 -40 7 -52 11 -9 18 -8 30 4 19 20 20 27 4 43
-13 13 -31 16 -41 5z"/>
<path d="M72 423 c4 -21 33 -25 33 -3 0 8 -8 16 -18 18 -14 3 -18 -1 -15 -15z"/>
<path d="M2448 423 c12 -2 32 -2 45 0 12 2 2 4 -23 4 -25 0 -35 -2 -22 -4z"/>
<path d="M2852 413 c2 -10 10 -18 18 -18 22 0 18 29 -3 33 -14 3 -18 -1 -15
-15z"/>
<path d="M1053 355 c-14 -11 -16 -18 -7 -32 17 -28 48 -23 52 8 4 32 -18 43
-45 24z"/>
<path d="M247 353 c-7 -11 10 -40 18 -31 4 4 3 14 -3 24 -5 9 -12 12 -15 7z"/>
<path d="M1620 353 c0 -14 19 -38 25 -32 8 8 -5 39 -16 39 -5 0 -9 -3 -9 -7z"/>
<path d="M1343 339 c-8 -8 -8 -18 -1 -35 14 -29 34 -31 48 -3 19 34 -20 65
-47 38z"/>
<path d="M112 310 c0 -19 2 -27 5 -17 2 9 2 25 0 35 -3 9 -5 1 -5 -18z"/>
<path d="M290 330 c-12 -8 -11 -10 8 -10 12 0 22 5 22 10 0 13 -11 13 -30 0z"/>
<path d="M365 330 c3 -5 10 -10 16 -10 5 0 9 5 9 10 0 6 -7 10 -16 10 -8 0
-12 -4 -9 -10z"/>
<path d="M480 332 c0 -5 18 -9 40 -10 22 -1 40 3 40 8 0 6 -18 10 -40 10 -22
0 -40 -4 -40 -8z"/>
<path d="M1125 330 c-4 -6 -1 -9 6 -8 7 2 15 -5 17 -14 3 -14 -3 -18 -27 -18
-26 0 -31 -4 -31 -25 0 -19 -5 -25 -22 -26 -21 -1 -21 -2 -3 -6 11 -3 23 -10
27 -17 6 -8 8 -7 8 2 0 6 4 12 9 12 4 0 6 -22 3 -50 -3 -32 0 -55 8 -65 11
-13 6 -15 -32 -15 -38 0 -44 3 -44 21 0 17 5 20 28 17 15 -3 28 -1 28 4 0 4
-37 7 -82 7 -46 -1 -73 -4 -60 -6 15 -3 22 -11 22 -29 0 -23 2 -24 81 -24 65
0 88 -4 116 -21 41 -26 74 -20 114 21 49 49 35 135 -26 165 -42 19 -99 19
-115 0 -18 -22 -50 -19 -50 5 0 17 7 20 43 21 23 0 36 3 30 6 -7 2 -13 16 -13
29 0 24 -23 33 -35 14z m157 -100 c11 -13 18 -39 18 -62 0 -54 -45 -101 -92
-96 -19 2 -32 8 -31 15 2 7 -3 10 -11 7 -20 -8 -47 47 -42 85 2 18 15 42 31
57 24 22 35 25 69 21 25 -4 48 -14 58 -27z m-252 -110 c0 -13 -7 -20 -20 -20
-13 0 -20 7 -20 20 0 13 7 20 20 20 13 0 20 -7 20 -20z"/>
<path d="M1230 328 c0 -4 18 -8 40 -8 22 0 40 4 40 9 0 5 -18 8 -40 8 -22 0
-40 -4 -40 -9z"/>
<path d="M1524 315 c1 -22 18 -24 24 -3 3 10 1 9 -6 -1 -8 -12 -11 -11 -15 5
-4 17 -4 17 -3 -1z"/>
<path d="M1713 332 c-15 -10 -20 -44 -7 -49 7 -2 14 10 16 27 3 16 4 30 4 30
-1 0 -6 -4 -13 -8z"/>
<path d="M1750 330 c0 -5 5 -10 10 -10 6 0 10 5 10 10 0 6 -4 10 -10 10 -5 0
-10 -4 -10 -10z"/>
<path d="M2930 331 c0 -5 11 -8 25 -8 14 0 25 3 25 8 0 5 -11 9 -25 9 -14 0
-25 -4 -25 -9z"/>
<path d="M327 323 c-13 -13 -7 -53 8 -53 10 0 15 10 15 30 0 29 -9 38 -23 23z"/>
<path d="M2912 284 c4 -21 22 -23 26 -1 2 10 -3 17 -13 17 -10 0 -15 -6 -13
-16z"/>
<path d="M2761 274 c0 -11 3 -14 6 -6 3 7 2 16 -1 19 -3 4 -6 -2 -5 -13z"/>
<path d="M1525 270 c3 -5 8 -10 11 -10 2 0 4 5 4 10 0 6 -5 10 -11 10 -5 0 -7
-4 -4 -10z"/>
<path d="M97 259 c-20 -11 -13 -21 36 -52 27 -18 28 -18 15 3 -7 11 -18 20
-25 20 -7 0 -13 5 -13 10 0 6 6 10 14 10 8 0 18 5 21 10 8 13 -25 12 -48 -1z"/>
<path d="M358 253 c6 -2 18 -2 25 0 6 3 1 5 -13 5 -14 0 -19 -2 -12 -5z"/>
<path d="M1750 239 c-34 -14 -33 -13 -15 -49 9 -18 15 -34 12 -36 -2 -2 -20 2
-39 11 l-36 14 -6 -29 c-10 -54 -2 -60 87 -60 44 0 78 3 74 6 -3 4 -25 6 -49
6 -23 -1 -46 5 -50 11 -6 9 -8 9 -8 0 0 -7 -7 -13 -15 -13 -9 0 -15 9 -15 25
0 29 5 30 53 10 20 -8 38 -15 41 -15 3 0 -7 20 -20 45 l-26 45 46 12 c24 6 43
15 40 20 -7 11 -43 9 -74 -3z"/>
<path d="M2755 241 c-8 -15 3 -31 21 -31 9 0 14 7 12 17 -4 20 -24 28 -33 14z"/>
<path d="M975 230 c3 -5 12 -7 20 -3 21 7 19 13 -6 13 -11 0 -18 -4 -14 -10z"/>
<path d="M1480 230 c20 -13 43 -13 35 0 -3 6 -16 10 -28 10 -18 0 -19 -2 -7
-10z"/>
<path d="M2673 233 c28 -4 39 -33 12 -33 -8 0 -15 -4 -15 -10 0 -5 7 -10 15
-10 8 0 15 -6 15 -12 0 -8 5 -6 11 4 5 10 16 15 24 12 8 -4 15 -1 15 5 0 6 -9
11 -20 11 -23 0 -23 22 0 32 8 4 -7 6 -35 6 -27 -1 -38 -3 -22 -5z"/>
<path d="M1017 224 c-14 -14 -7 -35 11 -32 9 2 17 10 17 17 0 16 -18 25 -28
15z"/>
<path d="M1887 224 c-14 -15 -6 -34 14 -34 14 0 19 5 17 17 -3 18 -20 27 -31
17z"/>
<path d="M59 212 c-6 -32 -5 -52 2 -52 5 0 9 4 9 9 0 5 7 11 15 13 13 2 12 6
-5 20 -11 10 -21 14 -21 10z"/>
<path d="M460 212 c0 -5 -10 -14 -22 -20 -22 -10 -22 -11 5 -9 19 1 27 7 27
19 0 10 -2 18 -5 18 -3 0 -5 -4 -5 -8z"/>
<path d="M1957 206 c-4 -10 -5 -21 -2 -24 9 -9 17 6 13 25 -3 17 -4 17 -11 -1z"/>
<path d="M2240 188 l0 -38 -47 -1 c-27 -1 -38 -4 -25 -6 36 -7 29 -41 -10 -46
-18 -2 -5 -5 30 -5 60 -2 62 -1 62 23 0 24 3 25 54 25 l54 0 0 -64 c-1 -58 -3
-65 -22 -69 -16 -3 -15 -5 7 -6 26 -1 27 1 27 43 l0 45 43 4 42 4 -42 1 c-37
2 -43 5 -43 23 0 18 5 21 30 17 29 -4 30 -4 30 39 0 24 -4 43 -9 43 -5 0 -8
-16 -6 -35 2 -31 -1 -35 -22 -35 -18 0 -23 5 -23 26 0 14 -4 23 -9 20 -5 -3
-7 -15 -4 -26 4 -16 0 -20 -21 -20 -20 0 -27 5 -25 18 1 9 1 24 0 32 -1 12 -3
13 -10 1 -5 -7 -6 -22 -4 -32 4 -15 0 -19 -22 -19 -23 0 -26 3 -22 23 4 12 2
29 -3 37 -7 11 -10 5 -10 -22z m0 -68 c0 -13 -7 -20 -20 -20 -13 0 -20 7 -20
20 0 13 7 20 20 20 13 0 20 -7 20 -20z"/>
<path d="M970 201 c-8 -6 -18 -7 -22 -5 -4 3 -8 0 -8 -5 0 -6 9 -11 19 -11 11
0 22 -6 24 -12 3 -7 6 -1 6 15 1 30 1 30 -19 18z"/>
<path d="M540 190 c0 -5 5 -10 10 -10 6 0 10 5 10 10 0 6 -4 10 -10 10 -5 0
-10 -4 -10 -10z"/>
<path d="M890 189 c0 -5 5 -7 10 -4 6 3 10 8 10 11 0 2 -4 4 -10 4 -5 0 -10
-5 -10 -11z"/>
<path d="M1070 192 c0 -5 7 -9 15 -9 8 0 15 4 15 9 0 4 -7 8 -15 8 -8 0 -15
-4 -15 -8z"/>
<path d="M1350 190 c0 -5 5 -10 10 -10 6 0 10 5 10 10 0 6 -4 10 -10 10 -5 0
-10 -4 -10 -10z"/>
<path d="M1460 190 c0 -5 5 -10 10 -10 6 0 10 5 10 10 0 6 -4 10 -10 10 -5 0
-10 -4 -10 -10z"/>
<path d="M1490 189 c0 -5 5 -7 10 -4 6 3 10 8 10 11 0 2 -4 4 -10 4 -5 0 -10
-5 -10 -11z"/>
<path d="M1780 183 c0 -6 5 -15 12 -19 7 -4 8 -3 4 4 -5 8 0 12 13 12 12 0 21
4 21 10 0 5 -11 9 -25 8 -14 -1 -25 -8 -25 -15z"/>
<path d="M2156 188 c3 -4 12 -8 20 -8 8 0 12 -4 9 -10 -3 -5 -1 -10 4 -10 6 0
11 5 11 10 0 6 7 10 15 10 8 0 15 4 15 8 0 5 -18 9 -40 9 -21 0 -37 -4 -34 -9z"/>
<path d="M2385 190 c3 -5 8 -10 11 -10 2 0 4 5 4 10 0 6 -5 10 -11 10 -5 0 -7
-4 -4 -10z"/>
<path d="M2645 190 c-3 -5 -1 -10 4 -10 6 0 11 5 11 10 0 6 -2 10 -4 10 -3 0
-8 -4 -11 -10z"/>
<path d="M2795 190 c-3 -5 -1 -10 4 -10 6 0 11 5 11 10 0 6 -2 10 -4 10 -3 0
-8 -4 -11 -10z"/>
<path d="M126 173 c-6 -14 -5 -15 5 -6 7 7 10 15 7 18 -3 3 -9 -2 -12 -12z"/>
<path d="M401 174 c0 -11 3 -14 6 -6 3 7 2 16 -1 19 -3 4 -6 -2 -5 -13z"/>
<path d="M2761 173 c-1 -22 -4 -23 -116 -23 -115 0 -115 0 -115 -24 0 -13 -6
-27 -12 -29 -7 -3 6 -6 30 -6 35 -1 42 -4 42 -20 0 -15 -5 -19 -22 -16 -12 3
-25 10 -30 17 -5 8 -8 -2 -8 -24 l0 -38 -50 0 c-33 0 -50 4 -50 13 0 8 -2 9
-8 1 -4 -7 -16 -14 -27 -17 -11 -2 121 -5 293 -6 l312 -1 -2 43 -1 42 -4 -37
-4 -38 -50 0 -49 0 0 35 c0 19 -4 35 -10 35 -6 0 -9 -6 -7 -12 1 -7 -7 -13
-18 -13 -13 0 -21 8 -23 23 -3 17 -10 22 -33 22 -22 0 -29 5 -29 19 0 12 8 21
23 24 22 4 22 4 0 6 -14 1 -23 9 -26 24 l-4 22 -2 -22z m-171 -53 c0 -15 -7
-20 -25 -20 -18 0 -25 5 -25 20 0 15 7 20 25 20 18 0 25 -5 25 -20z m61 3 c1
-17 2 -17 6 0 6 23 43 22 43 -2 0 -12 -11 -21 -32 -27 -33 -10 -44 -34 -20
-42 7 -2 16 5 19 17 4 17 13 21 49 21 l44 0 0 -40 0 -40 -110 0 c-91 0 -110 3
-110 15 0 18 46 21 53 3 3 -7 6 4 6 25 1 28 5 37 19 38 16 1 16 2 0 6 -10 2
-18 13 -18 24 0 26 49 27 51 2z m109 -3 c0 -15 -7 -20 -25 -20 -18 0 -25 5
-25 20 0 15 7 20 25 20 18 0 25 -5 25 -20z m60 -51 c0 -15 -4 -19 -16 -15 -9
3 -20 6 -25 6 -5 0 -9 7 -9 15 0 9 9 15 25 15 19 0 25 -5 25 -21z m60 -45 c0
-8 -10 -14 -25 -14 -18 0 -25 5 -25 19 0 14 6 17 25 13 14 -2 25 -11 25 -18z
m-60 1 c0 -9 -9 -15 -25 -15 -16 0 -25 6 -25 15 0 9 9 15 25 15 16 0 25 -6 25
-15z"/>
<path d="M2701 50 c0 -28 2 -32 10 -18 5 10 16 15 24 12 8 -4 15 -1 15 5 0 6
-9 11 -19 11 -11 0 -22 6 -24 13 -3 6 -6 -4 -6 -23z"/>
<path d="M146 155 c-4 -10 1 -15 14 -15 11 0 20 7 20 15 0 19 -26 19 -34 0z"/>
<path d="M1598 153 c-9 -10 -19 -29 -23 -43 l-7 -25 30 29 c17 15 28 35 25 42
-7 18 -7 18 -25 -3z"/>
<path d="M2824 155 c-9 -23 3 -45 25 -45 25 0 34 14 26 40 -7 23 -43 27 -51 5z"/>
<path d="M216 141 c-10 -11 -16 -26 -14 -34 2 -13 8 -11 31 7 23 19 26 25 14
34 -11 9 -18 8 -31 -7z"/>
<path d="M428 143 c7 -3 16 -2 19 1 4 3 -2 6 -13 5 -11 0 -14 -3 -6 -6z"/>
<path d="M2913 143 c9 -2 17 -13 17 -23 0 -14 -9 -20 -32 -23 -18 -2 -3 -5 35
-5 l67 -2 0 30 c0 30 -1 30 -52 29 -29 -1 -45 -3 -35 -6z m77 -23 c0 -15 -7
-20 -25 -20 -18 0 -25 5 -25 20 0 15 7 20 25 20 18 0 25 -5 25 -20z"/>
<path d="M904 106 c-10 -26 4 -48 28 -44 17 2 23 10 23 28 0 18 -6 26 -23 28
-13 2 -25 -3 -28 -12z"/>
<path d="M2277 106 c-10 -26 4 -47 27 -44 15 2 21 10 21 28 0 29 -38 41 -48
16z"/>
<path d="M1847 104 c-14 -15 -6 -34 14 -34 14 0 19 5 17 17 -3 18 -20 27 -31
17z"/>
<path d="M74 89 c-10 -17 13 -36 27 -22 12 12 4 33 -11 33 -5 0 -12 -5 -16
-11z"/>
<path d="M2 50 c0 -19 2 -27 5 -17 2 9 2 25 0 35 -3 9 -5 1 -5 -18z"/>
<path d="M520 64 c0 -11 -6 -14 -20 -9 -11 4 -20 2 -20 -4 0 -6 11 -11 25 -11
18 0 25 5 25 20 0 11 -2 20 -5 20 -3 0 -5 -7 -5 -16z"/>
<path d="M571 50 c0 -29 1 -32 10 -17 7 11 7 23 0 35 -9 14 -10 11 -10 -18z"/>
<path d="M977 61 c-2 -10 -1 -25 4 -32 6 -10 9 -4 9 19 0 36 -5 42 -13 13z"/>
<path d="M1030 70 c0 -5 -7 -10 -15 -10 -8 0 -15 -4 -15 -9 0 -5 11 -8 24 -8
18 0 24 5 23 18 -1 19 -17 27 -17 9z"/>
<path d="M1720 56 c0 -14 5 -28 10 -31 6 -3 10 -1 10 4 0 6 8 11 18 12 13 0
11 3 -6 10 -13 5 -20 13 -17 19 3 5 1 10 -4 10 -6 0 -11 -11 -11 -24z"/>
<path d="M1781 50 c0 -19 3 -29 6 -22 2 6 13 12 24 12 10 0 19 5 19 11 0 6 -7
9 -15 5 -8 -3 -19 2 -24 12 -8 14 -10 10 -10 -18z"/>
<path d="M1953 68 c1 -7 -6 -12 -15 -12 -10 1 -18 -2 -18 -7 0 -5 9 -9 19 -9
11 0 22 -6 24 -12 3 -8 6 -6 6 4 1 11 6 15 16 12 8 -4 15 -1 15 5 0 6 -7 11
-15 11 -8 0 -15 5 -15 10 0 6 -4 10 -10 10 -5 0 -9 -6 -7 -12z"/>
<path d="M2011 50 c0 -19 3 -29 6 -22 2 6 14 12 24 12 11 0 17 5 14 10 -4 6
-10 8 -15 5 -5 -3 -13 3 -19 12 -9 15 -10 12 -10 -17z"/>
<path d="M2132 67 c-1 -10 -6 -16 -10 -13 -4 2 -14 1 -22 -5 -12 -7 -10 -9 8
-9 13 0 22 -6 22 -15 0 -9 -9 -15 -24 -15 -19 0 -26 6 -29 28 l-4 27 -2 -27
c-1 -22 -6 -27 -33 -31 -18 -2 36 -5 120 -5 152 -2 152 -2 151 21 -1 16 -2 18
-6 4 -4 -14 -17 -17 -83 -17 l-79 0 -4 38 c-2 20 -4 29 -5 19z"/>
<path d="M2184 73 c3 -4 -4 -13 -16 -20 l-23 -12 23 -1 c13 0 20 -4 17 -10 -3
-5 -1 -10 4 -10 6 0 11 14 11 30 0 17 -5 30 -12 30 -6 0 -8 -3 -4 -7z"/>
<path d="M2240 48 c0 -23 3 -29 9 -19 8 12 4 51 -5 51 -2 0 -4 -15 -4 -32z"/>
<path d="M2416 64 c-4 -9 -13 -14 -21 -10 -8 3 -15 1 -15 -4 0 -6 11 -10 25
-10 18 0 25 5 25 20 0 24 -6 26 -14 4z"/>
<path d="M2466 64 c-3 -8 -10 -12 -16 -9 -5 3 -10 1 -10 -5 0 -7 7 -10 15 -6
10 3 15 -1 16 -12 0 -10 3 -12 6 -4 2 6 13 12 24 12 10 0 19 5 19 11 0 5 -4 8
-9 4 -5 -3 -16 1 -24 10 -13 13 -16 13 -21 -1z"/>
<path d="M2930 54 c0 -21 3 -25 11 -17 6 6 18 9 25 6 8 -3 14 0 14 7 0 6 -4 9
-9 5 -5 -3 -17 2 -25 11 -15 14 -16 13 -16 -12z"/>
<path d="M20 48 c0 -4 7 -8 15 -8 8 0 15 4 15 8 0 5 -7 9 -15 9 -8 0 -15 -4
-15 -9z"/>
<path d="M540 50 c0 -5 5 -10 10 -10 6 0 10 5 10 10 0 6 -4 10 -10 10 -5 0
-10 -4 -10 -10z"/>
<path d="M600 50 c0 -5 5 -10 10 -10 6 0 10 5 10 10 0 6 -4 10 -10 10 -5 0
-10 -4 -10 -10z"/>
<path d="M880 50 c0 -5 5 -10 11 -10 5 0 7 5 4 10 -3 6 -8 10 -11 10 -2 0 -4
-4 -4 -10z"/>
<path d="M2210 50 c0 -5 5 -10 11 -10 5 0 7 5 4 10 -3 6 -8 10 -11 10 -2 0 -4
-4 -4 -10z"/>
<path d="M2900 50 c0 -5 5 -10 10 -10 6 0 10 5 10 10 0 6 -4 10 -10 10 -5 0
-10 -4 -10 -10z"/>
<path d="M1841 34 c0 -11 3 -14 6 -6 3 7 2 16 -1 19 -3 4 -6 -2 -5 -13z"/>
</g>
</svg>
