<?xml version="1.0" encoding="UTF-8"?>
<!DOCTYPE svg PUBLIC "-//W3C//DTD SVG 1.1//EN" "http://www.w3.org/Graphics/SVG/1.1/DTD/svg11.dtd">
<!-- Creator: CorelDRAW -->
<svg xmlns="http://www.w3.org/2000/svg" xml:space="preserve" width="1.70666in" height="1.70666in" style="shape-rendering:geometricPrecision; text-rendering:geometricPrecision; image-rendering:optimizeQuality; fill-rule:evenodd; clip-rule:evenodd"
viewBox="0 0 1.70666 1.70666"
 xmlns:xlink="http://www.w3.org/1999/xlink">
 <defs>
  <style type="text/css">
   <![CDATA[
    .fil0 {fill:black}
   ]]>
  </style>
 </defs>
 <g id="Layer_x0020_1">
  <metadata id="CorelCorpID_0Corel-Layer"/>
  <path class="fil0" d="M0.425063 1.16196c-0.00527559,0 -0.0103307,-0.00208661 -0.0140512,-0.00579134l-0.314114 -0.311937c-0.0624764,-0.0620433 -0.0969016,-0.144539 -0.0969016,-0.232319 0,-0.0877559 0.0344252,-0.170256 0.0969016,-0.232319 0.129004,-0.128094 0.338878,-0.128094 0.467882,0l0 0 0.314098 0.311941c0.00775984,0.0077126 0.00775984,0.0202126 0,0.0279291l-0.439744 0.436705c-0.00374016,0.00370472 -0.00879528,0.00579134 -0.0140709,0.00579134zm-0.0942362 -0.838949c-0.0745315,0 -0.149067,0.0281732 -0.205811,0.0845236 -0.0549764,0.0545945 -0.0852441,0.127185 -0.0852441,0.204386 0,0.0772008 0.0302835,0.149799 0.0852441,0.20439l0.300047 0.297972 0.411646 -0.40876 -0.300075 -0.297972c-0.0567283,-0.0563661 -0.131276,-0.0845394 -0.205807,-0.0845394z"/>
  <path class="fil0" d="M0.959063 1.56433c-0.088378,0 -0.171449,-0.0341811 -0.233953,-0.0962244l-0.314114 -0.311941c-0.00373622,-0.00370079 -0.00584252,-0.00872835 -0.00584252,-0.0139646 0,-0.00523622 0.0021063,-0.0102598 0.00584252,-0.0139646l0.439764 -0.436705c0.00775984,-0.00771654 0.0203543,-0.00771654 0.0281181,0l0.0890906 0.0884843c0.00775984,0.0077126 0.00775984,0.0202126 0,0.0279291 -0.00776378,0.00771654 -0.0203583,0.00771654 -0.028122,0l-0.0750197 -0.0745197 -0.411646 0.408776 0.300075 0.297949c0.0549764,0.0545984 0.128055,0.0846732 0.205807,0.0846732 0.0777559,0 0.150835,-0.0300591 0.205811,-0.0846732 0.0726024,-0.0721063 0.101661,-0.178323 0.0758268,-0.27722 -0.00274803,-0.0105472 0.00362598,-0.0213228 0.0142677,-0.0240709 0.0106299,-0.00274803 0.0214764,0.00359449 0.024248,0.0141654 0.0293425,0.112378 -0.00369291,0.233142 -0.0862087,0.315091 -0.0625157,0.0620354 -0.145571,0.0962165 -0.233945,0.0962165z"/>
  <path class="fil0" d="M1.32029 1.18277c-0.213039,0 -0.386366,-0.172146 -0.386366,-0.383685 0,-0.211571 0.173339,-0.383685 0.386366,-0.383685 0.213028,0 0.386362,0.172114 0.386362,0.383685 1.1811e-005,0.211547 -0.173327,0.383685 -0.386362,0.383685zm0 -0.727878c-0.191114,0 -0.346598,0.154406 -0.346598,0.344193 0,0.189783 0.155484,0.344193 0.346598,0.344193 0.191114,0 0.346594,-0.154409 0.346594,-0.344193 0,-0.189787 -0.15548,-0.344193 -0.346594,-0.344193z"/>
  <path class="fil0" d="M1.68678 0.818831l-0.732969 0c-0.0109843,0 -0.0198858,-0.00884646 -0.0198858,-0.0197441 0,-0.0109094 0.00890157,-0.019748 0.0198858,-0.019748l0.732969 -7.87402e-006c0.0109803,0 0.0198858,0.00884646 0.0198858,0.0197441 0,0.0109173 -0.00890551,0.0197559 -0.0198858,0.0197559z"/>
  <path class="fil0" d="M0.994386 0.379335c-0.0877283,0 -0.159106,-0.0708819 -0.159106,-0.158 0,-0.0871102 0.071378,-0.158004 0.159106,-0.158004 0.0877283,0 0.159106,0.0708858 0.159106,0.158004 -7.87402e-006,0.0871339 -0.071378,0.158 -0.159106,0.158zm0 -0.276492c-0.0657835,0 -0.119315,0.0531535 -0.119315,0.1185 0,0.0653465 0.0535236,0.1185 0.119315,0.1185 0.0658071,0 0.119339,-0.0531535 0.119339,-0.1185 0,-0.0653465 -0.0535315,-0.1185 -0.119339,-0.1185z"/>
  <path class="fil0" d="M0.338071 1.64333c-0.0657835,0 -0.119315,-0.0531535 -0.119315,-0.1185 0,-0.0653465 0.0535236,-0.1185 0.119315,-0.1185 0.0658071,0 0.119339,0.0531535 0.119339,0.1185 0,0.0653543 -0.0535315,0.1185 -0.119339,0.1185zm0 -0.197492c-0.0438622,0 -0.0795472,0.0354449 -0.0795472,0.079 0,0.0435551 0.0356772,0.079 0.0795472,0.079 0.0438622,0 0.079563,-0.0354449 0.079563,-0.079 0,-0.0435551 -0.0356772,-0.079 -0.079563,-0.079z"/>
  <path class="fil0" d="M0.556831 0.675598c-0.00509843,0 -0.0101772,-0.0019252 -0.0140512,-0.0057874l-0.178992 -0.177748c-0.00775984,-0.00771654 -0.00775984,-0.0202126 0,-0.0279291 0.00776378,-0.00771654 0.0203583,-0.00771654 0.0281181,0l0.178992 0.177744c0.00776378,0.00771654 0.00776378,0.0202402 0,0.0279331 -0.0038622,0.00383465 -0.00896063,0.0057874 -0.0140669,0.0057874z"/>
  <path class="fil0" d="M0.855161 1.38659c-0.00509843,0 -0.0101772,-0.0019252 -0.0140669,-0.0057874l-0.198874 -0.197492c-0.00776378,-0.00771654 -0.00776378,-0.0202165 0,-0.0279331 0.00778346,-0.0077126 0.0203543,-0.0077126 0.0281339,0l0.198878 0.197496c0.00775984,0.0077126 0.00775984,0.0202126 0,0.0279291 -0.00388976,0.0038622 -0.00897244,0.0057874 -0.0140709,0.0057874z"/>
 </g>
</svg>
