<?xml version="1.0" encoding="UTF-8"?>
<!DOCTYPE svg PUBLIC "-//W3C//DTD SVG 1.1//EN" "http://www.w3.org/Graphics/SVG/1.1/DTD/svg11.dtd">
<!-- Creator: CorelDRAW -->
<svg xmlns="http://www.w3.org/2000/svg" xml:space="preserve" width="1.70666in" height="1.70666in" style="shape-rendering:geometricPrecision; text-rendering:geometricPrecision; image-rendering:optimizeQuality; fill-rule:evenodd; clip-rule:evenodd"
viewBox="0 0 1.70666 1.70666"
 xmlns:xlink="http://www.w3.org/1999/xlink">
 <defs>
  <style type="text/css">
   <![CDATA[
    .fil0 {fill:black}
   ]]>
  </style>
 </defs>
 <g id="Layer_x0020_1">
  <metadata id="CorelCorpID_0Corel-Layer"/>
  <g id="_489964648">
   <path id="_489964696" class="fil0" d="M0.844087 1.45054c-0.323197,0 -0.586142,-0.263657 -0.586142,-0.587748 0,-0.324189 0.262953,-0.587925 0.586142,-0.587925 0.323071,0 0.585937,0.263736 0.585937,0.587925 2.3622e-005,0.324091 -0.262843,0.587748 -0.585937,0.587748zm0 -1.13817c-0.302587,0 -0.548752,0.246921 -0.548752,0.550425 0,0.303398 0.246165,0.550236 0.548752,0.550236 0.302465,0 0.548547,-0.246839 0.548547,-0.550236 0,-0.303504 -0.246083,-0.550425 -0.548547,-0.550425z"/>
  </g>
  <g id="_489964744">
   <path id="_489964888" class="fil0" d="M0.844087 0.312378c-0.0103228,0 -0.0187165,-0.00840157 -0.0187165,-0.018752l0 -0.167736c0,-0.0103583 0.00837008,-0.018752 0.0187165,-0.018752 0.0103504,0 0.0186969,0.00840157 0.0186969,0.018752l0 0.167736c0,0.0103504 -0.00834646,0.018752 -0.0186969,0.018752z"/>
  </g>
  <g id="_489965056">
   <path id="_489965176" class="fil0" d="M0.844087 1.61827c-0.0103228,0 -0.0187165,-0.00839764 -0.0187165,-0.018748l0 -0.16774c0,-0.0103583 0.00837008,-0.018752 0.0187165,-0.018752 0.0103504,0 0.0186969,0.00840157 0.0186969,0.018752l0 0.16774c0,0.0103583 -0.00834646,0.018748 -0.0186969,0.018748z"/>
  </g>
  <g id="_489965128">
   <path id="_489965152" class="fil0" d="M1.24528 0.479059c-0.00479134,0 -0.00957087,-0.00182677 -0.0132244,-0.00549606 -0.00732283,-0.00732677 -0.00732283,-0.0191969 0,-0.0265236l0.118248 -0.118606c0.00729921,-0.00732677 0.0191417,-0.00732677 0.026437,0 0.0073189,0.00732677 0.0073189,0.0191969 0,0.0265236l-0.118228 0.118606c-0.00366142,0.00366929 -0.00845669,0.00549606 -0.0132323,0.00549606z"/>
  </g>
  <g id="_489965200">
   <path id="_489965104" class="fil0" d="M0.324669 1.40247c-0.00479134,0 -0.00957087,-0.00183071 -0.0132087,-0.0055 -0.0073189,-0.00732677 -0.0073189,-0.0191929 0,-0.0265236l0.118224 -0.118606c0.00732283,-0.00732677 0.0191575,-0.00732677 0.0264528,0 0.0073189,0.00732677 0.0073189,0.0191969 0,0.0265236l-0.118252 0.118606c-0.00364567,0.00366142 -0.0084252,0.0055 -0.0132165,0.0055z"/>
  </g>
  <g id="_489965032">
   <path id="_489965224" class="fil0" d="M1.57866 0.881469l-0.167224 0c-0.0102992,0 -0.0186929,-0.00840157 -0.0186929,-0.018752 0,-0.0103583 0.00836614,-0.018752 0.0186929,-0.018752l0.167224 -7.87402e-006c0.0103268,0 0.0187205,0.00840157 0.0187205,0.018752 0,0.0103583 -0.0083937,0.0187598 -0.0187205,0.0187598z"/>
  </g>
  <g id="_489964792">
   <path id="_489964960" class="fil0" d="M0.276744 0.881469l-0.167205 0c-0.0103228,0 -0.0187165,-0.00840157 -0.0187165,-0.018752 0,-0.0103583 0.00837008,-0.018752 0.0187165,-0.018752l0.167205 -7.87402e-006c0.0103228,0 0.0187165,0.00840157 0.0187165,0.018752 0,0.0103583 -0.0083937,0.0187598 -0.0187165,0.0187598z"/>
  </g>
  <g id="_489964264">
   <path id="_489964288" class="fil0" d="M0.442921 0.479059c-0.00479528,0 -0.00957087,-0.00182677 -0.0132283,-0.00549606l-0.118224 -0.118606c-0.0073189,-0.00732677 -0.0073189,-0.0191969 0,-0.0265236 0.00729528,-0.00732677 0.0191378,-0.00732677 0.0264331,0l0.118252 0.118606c0.0073189,0.00732677 0.0073189,0.0191969 0,0.0265236 -0.00367323,0.00366929 -0.00844094,0.00549606 -0.0132323,0.00549606z"/>
  </g>
  <g id="_489964432">
   <path id="_489964360" class="fil0" d="M1.36353 1.40247c-0.00479528,0 -0.00957087,-0.00183071 -0.0132283,-0.0055l-0.118248 -0.118606c-0.00732283,-0.00732677 -0.00732283,-0.0191969 0,-0.0265236 0.00729528,-0.00732677 0.0191378,-0.00732677 0.0264488,0l0.118228 0.118606c0.0073189,0.00733071 0.0073189,0.0191969 0,0.0265236 -0.00363386,0.00366142 -0.00843307,0.0055 -0.0132008,0.0055z"/>
  </g>
  <g id="_489964096">
   <path id="_489963880" class="fil0" d="M1.27529 0.881531c-0.0103228,0 -0.0187165,-0.00840157 -0.0187165,-0.018752 0,-0.148772 -0.0753228,-0.285209 -0.201484,-0.364961 -0.00874803,-0.00551181 -0.0113583,-0.0171102 -0.00585039,-0.0258701 0.00550787,-0.00875984 0.0170591,-0.0113858 0.0257835,-0.00587008 0.13713,0.0866575 0.218953,0.234961 0.218953,0.396701 7.87402e-006,0.010374 -0.00833858,0.018752 -0.018685,0.018752z"/>
  </g>
  <g id="_489964048">
   <path id="_489964384" class="fil0" d="M0.571909 0.983807c-0.0572047,0 -0.10374,-0.0466654 -0.10374,-0.104043 0,-0.057374 0.0465354,-0.104039 0.10374,-0.104039 0.0572008,0 0.103736,0.0466654 0.103736,0.104039 0,0.057378 -0.0465354,0.104043 -0.103736,0.104043zm0 -0.170579c-0.0365709,0 -0.0663268,0.0298465 -0.0663268,0.0665276 0,0.0366929 0.0297559,0.0665315 0.0663268,0.0665315 0.0365669,0 0.0663268,-0.0298465 0.0663268,-0.0665315 0,-0.0366811 -0.0297598,-0.0665276 -0.0663268,-0.0665276z"/>
  </g>
  <g id="_489963832">
   <path id="_489964168" class="fil0" d="M1.09907 0.864398c-0.0384449,0 -0.0697126,-0.0313622 -0.0697126,-0.0699213 0,-0.0385591 0.0312677,-0.0699213 0.0697126,-0.0699213 0.0384213,0 0.069689,0.0313622 0.069689,0.0699213 0,0.0385591 -0.031252,0.0699213 -0.069689,0.0699213zm0 -0.102339c-0.0178346,0 -0.0323228,0.0145394 -0.0323228,0.0324173 0,0.017874 0.0144882,0.0324173 0.0323228,0.0324173 0.017811,0 0.0323031,-0.0145433 0.0323031,-0.0324173 0,-0.017878 -0.0144921,-0.0324173 -0.0323031,-0.0324173z"/>
  </g>
  <g id="_489964408">
   <path id="_489964336" class="fil0" d="M0.673945 0.695169c-0.0134173,0 -0.0257205,-0.00616535 -0.0337323,-0.0169449l-0.00940157 -0.0125709c-0.00132677,-0.00179134 -0.00305118,-0.00201969 -0.00426772,-0.00191732 -0.00124016,0.000102362 -0.00287795,0.000653543 -0.00388583,0.00263386 -0.00462598,0.00925984 -0.0158583,0.0130315 -0.0250709,0.00837795 -0.00923228,-0.00462992 -0.0129685,-0.0158976 -0.00834252,-0.0251732 0.00657874,-0.0132205 0.0192795,-0.0218937 0.033937,-0.0232126 0.0146969,-0.00132677 0.0287087,0.00494882 0.0375394,0.0167559l0.00940157 0.0125669c0.00120079,0.00159843 0.00275591,0.00193307 0.00384646,0.00193307 0.00111417,0 0.00264567,-0.000334646 0.00384646,-0.00191732l0.00940157 -0.0125827c0.00885433,-0.0118307 0.0228583,-0.0180827 0.0375551,-0.0167559 0.0146575,0.00132677 0.0273583,0.0100157 0.033937,0.0232362 0.000988189,0.00198425 0.00264961,0.0025315 0.00387402,0.00263386 0.00122047,0.000106299 0.00294094,-0.000125984 0.00426772,-0.00191732l0.00537795 -0.00719685c0.00885433,-0.0118307 0.0229646,-0.0180591 0.0375551,-0.0167559 0.0146811,0.00132677 0.0273583,0.0100157 0.033937,0.0232362 0.000988189,0.00198425 0.00264961,0.0025315 0.00387402,0.00263386 0.00124016,0.000106299 0.00296457,-0.000125984 0.00426772,-0.00191732l0.00540157 -0.00719685c0.00885433,-0.0118307 0.0229488,-0.0180591 0.0375394,-0.0167559 0.0146811,0.00132677 0.0273819,0.0100157 0.033937,0.0232362 0.00101181,0.00198425 0.00264961,0.0025315 0.00388976,0.00263386 0.00121654,0.000106299 0.00294094,-0.000125984 0.00426772,-0.00191732 0.00620472,-0.0082874 0.0179134,-0.00995276 0.0261811,-0.00374409 0.00826378,0.0062126 0.0099252,0.0179764 0.00374409,0.0262677 -0.00885433,0.0118307 -0.0229016,0.0180827 -0.0375551,0.016752 -0.0146575,-0.00132677 -0.0273583,-0.0100157 -0.0339409,-0.0232362 -0.000984252,-0.00198031 -0.00264567,-0.00254724 -0.00387008,-0.00263386 -0.00124016,-0.000125984 -0.00296457,0.000125984 -0.00429134,0.0018937l-0.00538189 0.00720079c-0.00882677,0.0118268 -0.0228819,0.0180827 -0.0375354,0.016752 -0.0146811,-0.00132677 -0.0273819,-0.0100157 -0.0339409,-0.0232362 -0.00100787,-0.00198031 -0.00264567,-0.00254724 -0.00388583,-0.00263386 -0.00124016,-0.000125984 -0.00294094,0.000125984 -0.00426772,0.0018937l-0.00538189 0.00720079c-0.00882677,0.0118268 -0.0228976,0.0180827 -0.0375354,0.016752 -0.0146811,-0.00132677 -0.0273819,-0.0100157 -0.0339646,-0.0232362 -0.000984252,-0.00198031 -0.00264567,-0.00254724 -0.00387008,-0.00263386 -0.00120079,-0.000102362 -0.00294094,0.000125984 -0.00426772,0.0018937l-0.00940157 0.0125709c-0.00809055,0.0108583 -0.0203937,0.0170315 -0.0337874,0.0170315z"/>
  </g>
  <g id="_489963904">
   <path id="_489963808" class="fil0" d="M1.53578 0.262555c-0.0721772,0 -0.13089,-0.0588937 -0.13089,-0.13128 0,-0.0723858 0.0587126,-0.131283 0.13089,-0.131283 0.0721772,0 0.130886,0.0588976 0.130886,0.131283 0,0.0723858 -0.0587165,0.13128 -0.130886,0.13128zm0 -0.225051c-0.0515433,0 -0.0934764,0.0420748 -0.0934764,0.0937717 0,0.0516929 0.0419331,0.0937677 0.0934764,0.0937677 0.0515433,0 0.0934764,-0.0420748 0.0934764,-0.0937677 0,-0.0516969 -0.0419331,-0.0937717 -0.0934764,-0.0937717z"/>
  </g>
  <g id="_489964528">
   <path id="_489964144" class="fil0" d="M0.170882 1.70666c-0.0721732,0 -0.130886,-0.0588937 -0.130886,-0.13128 0,-0.0723858 0.0587126,-0.13128 0.130886,-0.13128 0.0721772,0 0.13089,0.0588937 0.13089,0.13128 -2.3622e-005,0.0723858 -0.0587362,0.13128 -0.13089,0.13128zm0 -0.225051c-0.0515394,0 -0.0934764,0.0420787 -0.0934764,0.0937717 0,0.0516929 0.041937,0.0937717 0.0934764,0.0937717 0.0515433,0 0.0934764,-0.0420787 0.0934764,-0.0937717 0,-0.0516929 -0.0419331,-0.0937717 -0.0934764,-0.0937717z"/>
  </g>
  <g id="_489963520">
   <path id="_489963112" class="fil0" d="M0.80998 1.22261c-0.0572008,0 -0.103736,-0.0466654 -0.103736,-0.104043 0,-0.057374 0.0465354,-0.104039 0.103736,-0.104039 0.0572008,0 0.103736,0.0466654 0.103736,0.104039 0,0.057378 -0.0465354,0.104043 -0.103736,0.104043zm0 -0.170579c-0.0365669,0 -0.0663268,0.0298465 -0.0663268,0.0665276 0,0.0366929 0.0297598,0.0665315 0.0663268,0.0665315 0.0365709,0 0.0663268,-0.0298465 0.0663268,-0.0665315 0,-0.0366811 -0.0297559,-0.0665276 -0.0663268,-0.0665276z"/>
  </g>
 </g>
</svg>
