<?xml version="1.0" standalone="no"?>
<!DOCTYPE svg PUBLIC "-//W3C//DTD SVG 20010904//EN"
 "http://www.w3.org/TR/2001/REC-SVG-20010904/DTD/svg10.dtd">
<svg version="1.0" xmlns="http://www.w3.org/2000/svg"
 width="155.000000pt" height="300.000000pt" viewBox="0 0 155.000000 300.000000"
 preserveAspectRatio="xMidYMid meet">
<metadata>
Created by potrace 1.10, written by Peter Selinger 2001-2011
</metadata>
<g transform="translate(0.000000,300.000000) scale(0.100000,-0.100000)"
fill="#000000" stroke="none">
<path d="M1008 2893 c-3 -16 -9 -36 -13 -45 -4 -11 -3 -18 4 -18 6 0 13 12 17
28 3 15 8 35 11 45 2 9 0 17 -5 17 -5 0 -12 -12 -14 -27z"/>
<path d="M946 2883 c-8 -15 -18 -36 -22 -45 -7 -20 -26 -25 -23 -5 3 17 -22
67 -34 67 -5 0 -6 -8 -2 -17 4 -10 10 -31 13 -48 l4 -30 -36 34 c-20 19 -36
41 -36 49 0 7 -5 10 -10 7 -11 -7 10 -40 50 -83 16 -17 18 -26 11 -40 -5 -9
-13 -17 -18 -17 -4 0 -7 -3 -6 -7 1 -3 -6 -33 -17 -65 -11 -32 -19 -71 -19
-88 0 -19 7 -3 20 45 23 83 29 96 29 57 0 -15 5 -27 10 -27 6 0 10 20 10 45 0
25 4 45 9 45 5 0 8 8 6 18 -1 9 0 11 2 5 3 -7 9 -13 14 -13 5 0 9 -19 9 -42 0
-23 3 -38 7 -34 4 4 8 30 8 59 0 41 4 53 18 55 16 3 16 2 1 -32 -14 -29 -15
-38 -4 -51 7 -8 15 -13 18 -10 3 2 0 11 -7 18 -9 11 -8 17 3 26 11 9 15 4 20
-29 3 -22 11 -40 17 -40 7 0 8 7 4 18 -16 38 -26 84 -20 90 8 9 25 -18 25 -41
0 -24 29 -91 36 -84 3 3 -2 19 -11 36 -24 47 -2 37 25 -11 13 -23 25 -37 28
-30 2 7 -15 37 -37 66 -43 55 -48 66 -31 66 6 0 10 -7 10 -15 0 -8 9 -20 21
-27 11 -7 34 -35 50 -63 16 -27 29 -44 29 -37 0 7 5 10 12 6 7 -5 8 -3 2 7 -4
8 -9 20 -11 28 -1 7 -14 26 -29 42 -15 16 -23 29 -17 29 21 0 63 -61 69 -101
4 -21 13 -44 20 -50 8 -6 14 -22 14 -35 0 -12 4 -25 9 -28 5 -3 9 -36 9 -74 1
-56 -4 -78 -27 -124 -56 -110 -164 -228 -209 -228 -39 0 -81 22 -107 56 -14
19 -31 31 -37 28 -7 -5 -8 -2 -4 5 5 7 2 20 -6 29 -8 9 -25 41 -37 71 -19 45
-22 67 -18 125 8 112 26 208 42 220 7 6 16 29 19 51 l6 40 -12 -33 c-8 -25
-16 -32 -31 -30 -11 2 -22 9 -23 16 -1 7 0 8 3 2 9 -18 21 -10 38 26 9 20 26
39 36 41 26 7 24 18 -8 41 -29 20 -63 25 -63 10 0 -4 6 -8 13 -8 7 0 22 -7 33
-16 18 -15 18 -15 0 -10 -14 5 -17 2 -12 -9 4 -10 2 -14 -5 -9 -13 8 -89 -16
-89 -28 0 -13 27 -9 40 7 12 14 40 21 40 9 0 -16 -32 -34 -60 -34 -17 0 -29
-4 -26 -9 3 -5 16 -7 29 -3 19 5 20 3 9 -11 -7 -8 -27 -19 -43 -22 -16 -4 -29
-11 -29 -16 0 -13 21 -11 53 5 34 18 35 7 2 -24 -14 -13 -25 -29 -25 -35 0
-23 -38 -48 -64 -41 -23 6 -23 4 -13 -19 14 -29 20 -30 58 -8 42 25 44 11 4
-31 -19 -21 -35 -43 -35 -49 0 -7 14 4 30 23 17 19 27 27 24 18 -3 -10 -2 -18
3 -18 10 0 29 49 39 103 3 20 10 37 15 37 15 0 10 -35 -11 -84 -15 -35 -17
-52 -10 -72 13 -33 13 -67 0 -59 -5 3 -10 19 -10 34 0 31 -32 49 -48 27 -12
-16 -13 -58 -1 -50 6 3 8 12 6 18 -3 7 1 13 9 13 17 0 18 -11 2 -38 -10 -17
-10 -23 -1 -26 7 -2 9 -11 6 -19 -3 -8 0 -14 6 -14 6 0 11 9 11 20 0 11 5 20
10 20 6 0 8 -12 4 -27 -4 -22 -3 -25 5 -13 9 13 11 13 11 -2 0 -20 29 -86 47
-109 20 -24 -2 -79 -31 -79 -14 0 -28 -11 -39 -30 -10 -16 -24 -30 -31 -30 -8
0 -17 -8 -21 -17 -6 -18 -17 -3 -86 122 -37 68 -107 161 -149 199 -36 32 -45
36 -91 34 -46 -2 -55 -7 -84 -41 -46 -54 -94 -156 -105 -224 -14 -84 -12 -189
4 -226 7 -18 63 -98 122 -179 60 -81 140 -200 177 -265 154 -269 206 -364 227
-420 12 -32 25 -62 29 -68 5 -5 16 -34 26 -64 27 -83 17 -205 -36 -428 -31
-129 -79 -236 -141 -313 -15 -19 -28 -40 -28 -47 0 -8 -13 -13 -31 -13 -17 0
-28 -4 -24 -10 6 -9 202 -5 233 5 16 6 16 5 -13 -49 -22 -42 -23 -47 -8 -53
11 -4 26 4 44 25 16 18 32 32 37 32 4 0 21 12 38 28 30 27 32 27 184 30 85 2
234 8 330 14 96 6 188 10 203 9 17 -1 26 3 22 9 -3 5 -12 10 -19 10 -7 0 -25
13 -41 30 -15 16 -31 27 -35 25 -4 -3 -22 0 -39 6 -22 8 -31 17 -31 33 0 42
43 63 55 26 6 -19 93 -110 105 -110 4 0 7 19 7 43 0 25 -2 31 -4 15 -2 -16 -8
-28 -13 -28 -10 0 -1 77 11 102 5 9 9 29 8 45 l0 28 -14 -30 c-7 -16 -16 -39
-20 -50 -6 -19 -8 -18 -21 8 -8 15 -21 27 -29 27 -26 0 -16 19 24 44 22 14 43
31 47 38 10 16 6 156 -8 238 -11 68 -24 97 -65 141 l-25 27 47 -9 c25 -5 51
-12 57 -15 6 -4 9 -1 6 7 -12 35 -310 53 -425 25 -35 -8 -63 -11 -63 -6 0 4
-6 10 -14 13 -22 9 -93 -145 -106 -228 -25 -166 -112 -506 -126 -492 -2 2 2
22 10 45 33 92 87 373 96 497 25 338 24 416 -6 599 -5 28 -3 27 15 -11 25 -54
61 -66 97 -32 l24 22 0 -22 c0 -26 26 -38 51 -23 36 23 96 24 224 3 83 -14
147 -30 178 -46 51 -26 64 -21 20 8 l-28 18 30 -6 c22 -5 27 -4 19 5 -10 10
-75 21 -215 35 -26 2 -58 9 -73 15 -43 16 -108 12 -149 -10 -47 -25 -57 -10
-31 45 9 19 14 39 10 42 -3 3 -6 1 -6 -5 0 -7 -4 -12 -10 -12 -5 0 -10 9 -10
20 0 29 31 26 93 -10 50 -28 60 -30 160 -30 67 0 118 -5 139 -14 58 -24 98
-34 98 -26 0 14 -17 21 -98 41 -58 14 -95 17 -153 13 -76 -7 -78 -6 -137 30
-42 25 -70 36 -91 34 -28 -3 -35 2 -59 45 -23 41 -25 49 -12 58 13 9 12 10 -2
5 -11 -3 -22 2 -28 14 -9 17 -7 20 9 20 33 0 51 11 51 31 0 13 -7 19 -22 19
-19 1 -18 3 10 15 17 8 32 18 32 24 0 22 -13 39 -26 34 -8 -3 -14 0 -14 7 0 6
9 14 20 17 30 8 35 41 10 68 -14 15 -18 25 -11 30 6 3 11 13 11 21 0 21 -50
84 -66 84 -12 0 -12 4 -2 20 17 26 3 48 -46 73 -20 11 -44 30 -52 42 -13 19
-13 26 0 50 16 31 7 55 -21 55 -12 0 -13 3 -4 14 10 12 18 11 51 -5 54 -26 70
-24 127 17 45 34 90 89 138 170 11 18 29 35 40 36 36 5 83 126 55 143 -17 10
-12 55 6 55 14 0 14 3 4 15 -7 8 -18 15 -25 15 -21 0 -28 33 -11 46 18 12 22
29 6 19 -15 -9 -40 13 -40 35 0 10 -20 34 -45 54 -51 42 -55 53 -22 59 12 2 1
5 -25 6 -54 1 -62 14 -20 30 24 10 22 10 -18 6 -36 -5 -43 -4 -32 6 17 18 15
34 -3 19 -8 -7 -15 -18 -15 -25 0 -22 -28 -26 -35 -4 -4 10 -10 19 -15 19 -5
0 -7 -8 -3 -17 5 -14 3 -16 -7 -6 -10 10 -11 18 0 43 17 40 6 50 -14 13z m116
-101 c-7 -2 -10 -8 -6 -13 3 -5 1 -9 -4 -9 -12 0 -23 26 -15 33 3 3 12 3 21
-1 10 -4 12 -7 4 -10z m53 -82 c3 -5 1 -10 -4 -10 -6 0 -11 5 -11 10 0 6 2 10
4 10 3 0 8 -4 11 -10z m76 -75 c13 -36 30 -65 37 -65 15 0 16 -46 0 -56 -8 -5
-4 -10 10 -15 15 -6 19 -14 15 -31 -7 -32 -36 -88 -45 -88 -15 0 -8 27 12 50
23 27 25 34 8 27 -9 -3 -14 7 -15 29 -1 19 2 34 7 34 12 0 0 37 -16 51 -8 6
-14 22 -14 34 0 12 -6 28 -14 34 -8 6 -16 23 -19 36 -8 46 9 25 34 -40z m-421
20 c0 -5 -5 -3 -10 5 -5 8 -10 20 -10 25 0 6 5 3 10 -5 5 -8 10 -19 10 -25z
m-50 -42 c0 -14 -15 -28 -48 -45 -40 -21 -42 -8 -2 15 17 10 30 22 30 28 0 5
5 9 10 9 6 0 10 -3 10 -7z m-324 -182 c62 -38 172 -202 285 -426 36 -72 56
-101 62 -92 6 8 7 7 4 -4 -6 -18 29 -146 62 -228 12 -29 20 -59 18 -65 -2 -6
-10 7 -17 29 -7 22 -49 112 -93 200 -76 151 -119 221 -222 360 -25 33 -63 90
-85 126 -22 36 -49 75 -60 86 -14 15 -16 23 -7 26 19 8 20 8 53 -12z m-59 -23
c11 -13 49 -68 85 -123 36 -55 92 -135 124 -177 89 -117 233 -405 294 -588 68
-202 84 -327 76 -570 -9 -266 -23 -390 -61 -555 -48 -205 -62 -244 -88 -250
-12 -3 -30 -19 -39 -35 -9 -17 -21 -30 -27 -30 -5 0 9 33 31 72 55 102 65 127
98 258 42 169 66 381 51 442 -7 26 -14 55 -16 65 -2 10 -4 19 -4 21 -1 2 -5 1
-10 -3 -6 -3 -4 -24 4 -53 8 -26 15 -48 15 -49 0 -2 -11 -3 -25 -3 -20 0 -25
5 -26 28 l-1 27 -10 -29 c-8 -22 -8 -31 1 -34 14 -5 15 -39 1 -47 -5 -3 -10
-21 -10 -38 0 -62 -109 -343 -140 -362 -7 -4 -4 8 5 26 34 64 55 144 81 302
24 144 25 169 16 241 -6 45 -16 122 -23 171 -18 148 -45 268 -66 302 -19 32
-33 34 -33 6 0 -8 4 -12 8 -9 11 7 29 -29 36 -69 3 -16 17 -92 31 -168 15 -76
25 -143 23 -149 -3 -7 -18 21 -36 62 -43 103 -70 158 -101 205 -15 22 -42 69
-61 105 -19 36 -57 103 -86 150 -43 71 -49 86 -35 91 13 5 11 9 -11 20 -27 14
-42 32 -166 203 -89 124 -98 152 -84 271 10 93 37 169 89 251 32 49 59 56 90
22z m503 -223 c11 -13 6 -35 -8 -35 -4 0 -12 11 -19 25 -9 20 -8 25 2 25 7 0
18 -7 25 -15z m-35 -15 c3 -5 -1 -10 -10 -10 -9 0 -13 5 -10 10 3 6 8 10 10
10 2 0 7 -4 10 -10z m-1 -31 c14 -7 30 -25 36 -42 11 -34 5 -50 -11 -27 -20
28 0 -132 26 -213 14 -42 30 -110 36 -150 12 -75 73 -220 131 -310 17 -26 28
-50 25 -54 -4 -3 -11 5 -16 18 -5 13 -10 20 -10 15 -1 -5 -8 -3 -16 4 -24 20
-27 6 -5 -18 24 -25 26 -74 5 -92 -25 -21 -60 21 -80 93 -9 34 -27 94 -40 132
-14 39 -24 77 -23 85 1 8 0 24 -1 35 -1 17 -3 18 -12 5 -9 -13 -10 -12 -5 2 3
10 -6 39 -20 65 -23 46 -74 259 -74 313 0 14 -7 38 -15 54 -37 71 -1 116 69
85z m66 -40 c0 -6 -4 -7 -10 -4 -5 3 -10 11 -10 16 0 6 5 7 10 4 6 -3 10 -11
10 -16z m-173 -24 c1 -30 -1 -34 -13 -24 -17 14 -18 26 -1 44 6 8 12 14 13 15
0 0 0 -16 1 -35z m38 -73 c4 -20 9 -46 12 -57 3 -13 2 -17 -5 -10 -5 6 -14 31
-21 57 -13 57 -14 61 -1 53 5 -3 12 -22 15 -43z m117 6 c-9 -9 -12 -7 -12 12
0 19 3 21 12 12 9 -9 9 -15 0 -24z m99 -66 c-19 -7 -114 40 -99 49 6 4 34 -4
62 -18 29 -15 45 -28 37 -31z m5 -16 c18 6 18 6 3 -11 -16 -16 -19 -16 -65 7
-26 13 -49 29 -52 37 -2 7 16 2 45 -14 31 -16 57 -23 69 -19z m-1 -57 c71 -45
49 -53 -32 -11 -59 29 -96 71 -51 57 12 -5 50 -25 83 -46z m51 -55 c8 3 14 -1
14 -9 0 -22 -24 -18 -86 11 -72 34 -70 50 2 18 31 -14 63 -23 70 -20z m-83
-10 c18 -9 40 -26 50 -38 16 -17 18 -18 13 -3 -6 19 5 16 37 -11 24 -22 21
-35 -5 -20 -13 7 -30 11 -38 10 -26 -2 -83 32 -91 56 -10 26 -7 27 34 6z m51
-77 c44 -15 63 -26 53 -30 -19 -7 -120 27 -125 42 -5 14 -8 15 72 -12z m-19
-31 c41 -15 65 -43 26 -32 -11 3 -31 8 -43 12 -22 5 -22 5 -4 -10 11 -9 31
-16 45 -16 14 0 33 -5 41 -10 13 -9 13 -11 0 -20 -8 -5 -22 -8 -30 -5 -8 2
-27 7 -42 10 -15 4 -29 16 -32 28 -6 22 -8 57 -3 57 1 0 20 -7 42 -14z m25
-105 c0 -5 -8 -12 -17 -15 -10 -3 -3 -4 15 -2 20 1 31 -2 29 -8 -5 -17 -49
-20 -58 -4 -15 22 -10 38 11 38 11 0 20 -4 20 -9z m-100 -121 c0 -13 -1 -13
-10 0 -5 8 -10 22 -10 30 0 13 1 13 10 0 5 -8 10 -22 10 -30z m19 -70 c0 -9
-4 -8 -9 5 -5 11 -9 27 -9 35 0 9 4 8 9 -5 5 -11 9 -27 9 -35z m8 -42 c-3 -8
-6 -5 -6 6 -1 11 2 17 5 13 3 -3 4 -12 1 -19z m145 -43 c0 -5 -5 -11 -11 -13
-6 -2 -11 4 -11 13 0 9 5 15 11 13 6 -2 11 -8 11 -13z m370 -450 c68 -46 94
-121 101 -292 5 -100 3 -103 -55 -132 -34 -17 -44 -42 -24 -57 9 -6 16 -22 15
-35 l0 -24 -9 23 c-13 31 -55 29 -76 -3 -20 -30 -15 -56 13 -70 32 -16 53 -36
53 -50 0 -12 -72 -17 -445 -31 -71 -3 -136 -7 -144 -10 -8 -2 -11 1 -8 9 24
64 90 335 112 459 14 84 51 178 76 194 30 18 173 42 259 43 86 1 99 -2 132
-24z m-572 -55 c0 -5 -5 -10 -11 -10 -5 0 -7 5 -4 10 3 6 8 10 11 10 2 0 4 -4
4 -10z m6 -162 c-22 -168 -58 -319 -95 -403 l-31 -70 -83 -3 c-66 -3 -80 -1
-69 9 6 7 12 20 12 28 0 9 20 50 45 91 97 162 185 375 185 445 0 10 10 30 23
43 22 23 22 23 25 3 2 -11 -4 -76 -12 -143z m654 -318 c8 0 10 -8 6 -22 -3
-13 -6 -27 -6 -32 0 -5 -9 3 -20 17 -11 14 -20 36 -20 49 1 21 2 22 14 6 7
-10 19 -18 26 -18z m-39 -98 c12 -31 -5 -28 -20 4 -9 20 -9 25 0 22 7 -2 16
-14 20 -26z m-898 -27 c-9 -19 -21 -35 -26 -35 -5 0 -3 10 5 23 8 12 18 28 22
35 15 26 15 10 -1 -23z"/>
<path d="M1146 2761 c29 -18 55 -46 80 -87 7 -11 15 -16 19 -12 19 18 -80 118
-117 118 -7 0 1 -9 18 -19z"/>
<path d="M846 2635 c-24 -36 -19 -43 9 -13 27 29 30 38 16 38 -5 0 -16 -11
-25 -25z"/>
<path d="M866 2591 c-10 -11 -19 -32 -19 -48 -1 -15 -6 -31 -12 -35 -6 -4 -2
-13 10 -22 23 -18 35 -20 35 -6 0 6 -7 10 -15 10 -8 0 -15 5 -15 10 0 6 11 10
25 10 32 0 61 50 45 80 -14 25 -32 25 -54 1z m44 -23 c0 -18 -2 -20 -10 -8 -5
8 -12 11 -16 7 -4 -3 -2 -13 5 -21 9 -11 8 -15 -4 -20 -21 -8 -29 17 -15 43
15 28 40 27 40 -1z"/>
<path d="M1040 2576 c-6 -8 -10 -25 -8 -38 2 -18 10 -24 36 -26 26 -3 34 1 41
20 5 13 5 30 -1 41 -11 21 -51 22 -68 3z m60 -26 c0 -25 -30 -34 -49 -15 -15
15 -14 17 2 30 23 17 47 9 47 -15z"/>
<path d="M1065 2550 c-3 -5 -1 -10 4 -10 6 0 11 5 11 10 0 6 -2 10 -4 10 -3 0
-8 -4 -11 -10z"/>
<path d="M948 2510 c-4 -8 -9 -37 -12 -65 -3 -27 -8 -59 -11 -70 -9 -29 33
-52 64 -36 25 14 26 29 4 56 -15 19 -15 19 -10 -12 4 -21 2 -33 -8 -37 -25 -9
-34 16 -24 72 11 56 8 120 -3 92z"/>
<path d="M1053 2483 c9 -2 25 -2 35 0 9 3 1 5 -18 5 -19 0 -27 -2 -17 -5z"/>
<path d="M1230 2318 c0 -21 17 -41 28 -34 14 8 3 46 -14 46 -8 0 -14 -6 -14
-12z"/>
<path d="M910 2202 l-23 -19 39 0 c33 -1 35 0 14 7 -19 6 -21 8 -6 9 11 1 28
-6 38 -16 15 -13 18 -14 18 -2 0 39 -44 50 -80 21z"/>
<path d="M1171 2038 c5 -18 9 -34 9 -35 0 -10 19 0 24 13 8 22 -4 40 -15 23
-6 -10 -9 -8 -9 9 0 12 -4 22 -9 22 -6 0 -6 -12 0 -32z"/>
<path d="M178 859 c-23 -13 -22 -23 2 -95 12 -32 30 -90 41 -127 l19 -68 -25
-22 -26 -22 10 -135 c6 -74 16 -170 22 -214 11 -76 13 -78 48 -93 48 -20 135
-12 165 16 21 19 22 29 19 128 -1 60 -3 161 -3 226 l0 117 -57 1 c-114 2 -102
-7 -139 103 -19 55 -37 121 -40 148 -7 51 -9 53 -36 37z m22 -49 c0 -11 16
-68 35 -127 19 -59 37 -124 40 -143 l5 -35 -14 40 c-32 91 -86 268 -86 281 0
9 5 12 10 9 6 -3 10 -15 10 -25z m196 -257 c-11 -12 -89 -33 -98 -27 -4 3 -8
12 -8 20 0 10 14 14 57 14 31 0 53 -3 49 -7z m-142 -18 c4 -10 -1 -15 -14 -15
-20 0 -26 11 -13 23 10 11 20 8 27 -8z m181 -202 l7 -211 -24 -16 c-27 -17
-103 -35 -79 -18 9 6 11 19 7 36 -8 31 8 35 26 6 17 -27 26 -25 21 4 -3 13 3
40 12 61 15 30 16 42 6 75 -6 21 -19 40 -28 42 -12 2 -16 15 -17 53 -1 44 -4
50 -23 53 -22 3 -25 9 -37 64 -5 24 -3 27 32 33 20 3 48 12 62 20 14 7 26 13
26 12 1 -1 5 -97 9 -214z m-163 136 c3 -19 3 -36 -2 -39 -4 -3 -15 -23 -24
-44 -18 -42 -12 -110 8 -103 6 2 11 8 11 13 0 5 8 26 18 47 13 27 23 37 34 33
8 -3 19 -6 24 -6 5 0 9 -12 9 -26 0 -21 -4 -25 -19 -21 -36 9 -90 -78 -70
-115 8 -14 8 -23 0 -31 -21 -21 -11 -27 37 -20 l47 6 -20 -24 c-11 -13 -21
-25 -22 -27 0 -2 -12 2 -25 8 -22 12 -22 12 -5 -6 14 -16 21 -17 37 -6 27 16
35 15 20 -3 -17 -20 -54 -19 -72 3 -18 20 -37 147 -43 285 -3 55 -7 103 -11
108 -3 5 10 7 28 5 28 -3 34 -8 40 -37z m15 9 c-3 -8 -6 -5 -6 6 -1 11 2 17 5
13 3 -3 4 -12 1 -19z m10 -40 c-3 -8 -6 -5 -6 6 -1 11 2 17 5 13 3 -3 4 -12 1
-19z m22 -29 c35 -12 43 -34 9 -24 -21 7 -59 35 -47 35 3 0 20 -5 38 -11z
m-52 -65 c-20 -38 -27 -16 -9 26 11 25 17 30 19 18 2 -9 -2 -29 -10 -44z m94
-42 c16 -6 16 -10 2 -45 -15 -37 -17 -38 -52 -32 -20 4 -37 8 -39 10 -2 1 7
19 19 39 20 35 37 42 70 28z m39 -53 c0 -17 -5 -40 -12 -52 -11 -21 -11 -21
-18 -2 -8 21 9 85 22 85 4 0 8 -14 8 -31z m-42 -73 c3 -14 0 -16 -15 -8 -10 5
-24 7 -32 4 -14 -5 -31 14 -31 35 0 19 74 -11 78 -31z"/>
<path d="M408 145 c2 -14 9 -25 14 -25 6 0 7 7 4 16 -3 9 -6 20 -6 25 0 5 -4
9 -9 9 -4 0 -6 -11 -3 -25z"/>
<path d="M11 171 c-10 -6 21 -11 87 -13 107 -3 135 5 56 16 -66 9 -126 7 -143
-3z"/>
</g>
</svg>
