<?xml version="1.0" standalone="no"?>
<!DOCTYPE svg PUBLIC "-//W3C//DTD SVG 20010904//EN"
 "http://www.w3.org/TR/2001/REC-SVG-20010904/DTD/svg10.dtd">
<svg version="1.0" xmlns="http://www.w3.org/2000/svg"
 width="300.000000pt" height="253.000000pt" viewBox="0 0 300.000000 253.000000"
 preserveAspectRatio="xMidYMid meet">
<metadata>
Created by potrace 1.10, written by Peter Selinger 2001-2011
</metadata>
<g transform="translate(0.000000,253.000000) scale(0.100000,-0.100000)"
fill="#000000" stroke="none">
<path d="M1661 2253 c-62 -47 -125 -112 -148 -150 -14 -24 -44 -59 -66 -78
-23 -19 -36 -35 -29 -35 6 0 12 4 12 9 0 5 7 11 15 15 23 8 18 -12 -6 -25 -15
-7 -24 -8 -31 -1 -8 8 1 27 27 63 22 31 39 68 42 88 l3 36 -13 -36 c-8 -20
-23 -49 -33 -65 -11 -16 -37 -64 -58 -106 -21 -43 -42 -78 -47 -78 -5 0 -9 -7
-9 -16 0 -28 -23 -94 -32 -94 -5 0 -7 14 -3 30 4 19 3 30 -4 30 -6 0 -11 7
-11 16 0 11 6 14 21 9 17 -6 20 -4 13 6 -5 8 -9 31 -9 51 0 35 3 39 39 53 21
9 36 18 33 21 -3 3 -16 0 -28 -7 -22 -11 -22 -10 4 20 15 18 27 39 27 47 0 8
4 14 10 14 11 0 40 53 40 72 -1 7 -7 -2 -15 -20 -8 -19 -25 -42 -37 -52 -13
-11 -20 -19 -15 -20 4 0 -5 -13 -19 -30 -15 -16 -30 -28 -34 -25 -7 4 -10 -11
-11 -49 0 -24 -16 -54 -42 -83 -17 -19 -19 -31 -14 -80 3 -32 3 -49 0 -38 -3
11 -10 25 -15 30 -7 7 -9 2 -4 -15 15 -56 18 -117 7 -124 -7 -5 -11 8 -12 41
-1 26 -5 59 -10 73 -8 23 -8 10 6 -140 1 -14 4 -32 8 -40 3 -8 8 -32 12 -52 4
-29 2 -38 -8 -38 -9 0 -14 12 -14 33 0 38 -22 147 -30 147 -2 0 -2 -15 2 -32
5 -25 4 -29 -4 -18 -26 37 -5 185 25 173 11 -4 14 5 14 36 0 23 5 41 10 41 6
0 10 7 10 16 0 8 5 12 10 9 6 -3 10 0 10 8 0 8 7 20 15 27 11 9 12 16 4 26 -6
7 -7 19 -3 26 5 7 9 18 9 23 1 6 5 19 10 30 27 66 33 85 25 85 -4 0 -15 -19
-24 -42 -12 -31 -15 -35 -11 -13 3 17 8 48 10 70 5 37 4 36 -9 -10 -7 -27 -17
-71 -20 -97 -4 -26 -16 -58 -27 -71 -21 -28 -24 -37 -9 -37 6 0 10 7 10 15 0
8 5 15 10 15 6 0 10 -4 10 -9 0 -13 -47 -60 -54 -54 -3 4 -6 -1 -6 -9 0 -9 -7
-19 -16 -22 -16 -6 -12 6 14 36 7 9 11 21 8 26 -3 5 6 26 21 47 15 22 20 36
12 33 -8 -3 -21 -18 -29 -34 -8 -16 -18 -30 -22 -32 -5 -2 -8 -9 -8 -16 0 -19
-47 -59 -60 -51 -12 7 -8 61 6 100 7 17 6 18 -8 7 -8 -7 -15 -24 -15 -38 0
-37 -11 -41 -39 -12 -23 23 -25 28 -14 49 13 24 13 24 -9 5 -11 -11 -21 -14
-21 -8 0 7 -5 12 -11 12 -8 0 -8 -4 1 -15 6 -8 9 -19 5 -25 -4 -6 -8 -26 -10
-43 -2 -18 -1 -25 1 -15 9 29 74 35 74 6 0 -6 8 -16 17 -23 15 -11 15 -15 4
-29 -20 -23 -32 -20 -25 8 3 13 1 27 -5 30 -7 5 -11 -8 -11 -38 0 -25 -3 -46
-8 -46 -16 0 -31 41 -27 72 5 30 5 31 -6 10 -12 -22 -13 -22 -39 18 -15 22
-26 50 -24 63 1 12 3 25 3 30 1 4 10 7 21 7 11 0 20 4 20 10 0 5 -14 8 -31 7
-30 -2 -30 -3 -27 -44 3 -39 1 -42 -17 -37 -19 5 -19 4 -2 -9 9 -8 17 -26 17
-41 0 -29 -25 -45 -43 -27 -13 13 -27 15 -27 3 0 -5 11 -15 25 -22 16 -8 25
-22 25 -37 0 -33 -12 -28 -37 15 -24 43 -24 89 1 107 9 7 16 16 16 20 0 4 8
14 17 21 10 7 15 15 11 19 -9 9 -78 -60 -78 -79 0 -9 -4 -16 -10 -16 -5 0 -10
6 -10 14 0 12 -20 26 -37 26 -3 0 9 -16 26 -35 17 -20 31 -43 32 -53 2 -44 7
-62 27 -96 23 -38 18 -45 -14 -21 -10 8 -28 15 -39 15 -18 0 -18 2 5 20 14 10
21 22 17 27 -5 4 -15 -1 -23 -12 -16 -22 -18 -20 -50 38 -8 15 -19 25 -23 22
-5 -3 -7 4 -4 16 3 11 16 25 29 31 13 6 21 15 18 20 -3 5 -15 2 -25 -8 -11
-10 -19 -12 -19 -6 0 7 -5 12 -11 12 -6 0 -9 -7 -6 -14 4 -10 1 -13 -9 -9 -22
8 -17 -10 16 -53 16 -21 30 -45 30 -51 0 -7 5 -13 11 -13 5 0 8 -4 5 -9 -3 -5
1 -14 9 -21 8 -7 15 -21 15 -31 0 -10 4 -21 10 -24 13 -8 13 -35 -1 -35 -5 0
-21 24 -34 53 -15 33 -33 56 -49 64 -14 6 -26 7 -26 2 0 -5 -4 -9 -10 -9 -5 0
-10 7 -10 15 0 8 5 15 12 15 9 0 9 3 1 11 -9 9 -16 8 -28 -5 -14 -13 -14 -19
-3 -34 20 -28 108 -106 108 -96 0 5 5 1 11 -9 6 -10 22 -22 35 -27 13 -5 24
-14 24 -20 0 -16 -13 -12 -42 14 -14 14 -28 23 -31 20 -7 -7 -110 47 -129 69
-10 11 -18 26 -18 32 0 7 -6 18 -14 24 -16 13 -7 60 16 88 10 12 9 18 -7 29
-10 8 -24 14 -31 14 -6 0 -19 10 -28 23 -9 12 -14 16 -10 8 4 -7 1 -17 -7 -21
-9 -6 -2 -11 22 -18 35 -9 36 -11 22 -71 -10 -39 -23 -30 -42 30 -12 36 -36
63 -79 87 -13 7 -22 8 -22 2 0 -5 4 -10 9 -10 5 0 26 -15 45 -34 26 -24 34
-39 29 -51 -5 -14 -3 -16 7 -10 10 6 12 4 7 -7 -3 -9 3 -24 14 -34 10 -9 19
-24 19 -32 0 -8 6 -12 15 -8 8 3 15 1 15 -4 0 -6 -4 -10 -10 -10 -5 0 -10 -4
-10 -10 0 -5 6 -10 13 -10 18 0 49 -34 40 -43 -11 -12 -21 -7 -28 13 -5 15 -9
17 -19 8 -9 -9 -7 -17 12 -35 18 -18 21 -28 13 -36 -19 -19 -50 -15 -73 10
-12 13 -29 23 -38 23 -8 0 -26 7 -38 16 -12 8 -35 14 -50 12 -16 -2 -34 4 -45
15 -26 26 -44 21 -19 -6 12 -13 22 -29 22 -35 0 -7 5 -12 10 -12 6 0 10 7 10
15 0 21 33 19 63 -5 14 -11 32 -20 40 -20 15 0 87 -61 87 -74 0 -13 -28 -5
-34 10 -4 10 -13 13 -27 9 -16 -5 -28 2 -56 34 -19 23 -42 41 -51 40 -12 0
-10 -3 6 -9 32 -14 29 -32 -4 -19 -15 5 -29 7 -32 5 -2 -3 7 -8 22 -12 14 -3
26 -10 26 -15 0 -5 6 -6 14 -3 21 8 43 -35 25 -47 -14 -9 -43 -13 -66 -10 -7
1 -13 -3 -13 -9 0 -6 5 -8 10 -5 6 3 10 1 10 -5 0 -7 8 -9 19 -5 11 3 22 1 26
-5 3 -5 21 -10 38 -10 30 0 29 -2 -21 -25 -35 -16 -72 -25 -103 -25 -27 0 -49
-4 -49 -10 0 -16 107 -12 124 5 8 8 24 15 36 15 11 0 31 7 45 16 18 12 28 13
44 5 11 -6 32 -11 46 -11 15 0 35 -10 47 -22 15 -17 18 -19 14 -6 -4 14 0 17
19 16 14 -1 26 -8 26 -15 1 -7 2 -19 3 -25 1 -7 9 -12 18 -10 26 4 73 -29 56
-39 -21 -13 -34 -10 -44 9 -9 18 -10 18 -27 0 -14 -15 -15 -18 -3 -16 8 2 14
-1 13 -7 -2 -17 -54 -55 -73 -55 -27 1 -70 35 -55 44 6 4 14 0 17 -8 7 -17 50
-21 72 -7 10 6 10 10 -3 21 -13 11 -13 15 -3 21 9 6 6 9 -9 9 -20 0 -21 -3
-13 -25 12 -32 -6 -34 -44 -4 l-26 21 -10 -24 c-10 -22 -10 -22 -7 5 6 37 -9
35 -16 -3 -4 -18 -13 -30 -22 -30 -10 0 -13 5 -9 11 5 9 -1 10 -21 5 -19 -5
-31 -3 -36 6 -7 10 -9 9 -9 -4 0 -9 -8 -25 -18 -34 -14 -15 -15 -17 -1 -12 11
4 24 -3 38 -23 12 -16 30 -29 41 -29 11 0 20 -4 20 -9 0 -5 8 -7 19 -4 10 3
22 -1 26 -8 6 -9 -2 -10 -33 -5 -23 3 -42 3 -42 -2 0 -12 -79 -31 -86 -21 -7
12 -54 12 -54 0 0 -13 87 -22 116 -11 14 6 30 7 36 4 6 -4 14 0 19 7 7 12 11
11 26 -3 16 -17 16 -18 -3 -18 -24 0 -74 -22 -74 -32 0 -5 -8 -8 -17 -8 -14 0
-14 -3 -5 -12 10 -10 15 -10 21 1 5 7 20 14 34 13 19 0 24 5 20 16 -4 9 -2 13
4 9 6 -4 23 -3 37 3 19 7 26 6 26 -3 1 -6 8 0 16 16 8 15 21 27 29 27 34 0 -1
-69 -35 -71 -14 -1 -29 -3 -35 -4 -5 -2 -15 -3 -21 -4 -6 0 -21 -10 -34 -21
-13 -11 -35 -20 -50 -20 -15 0 -33 -7 -41 -16 -7 -9 -22 -14 -36 -11 -13 2
-26 0 -29 -4 -11 -18 53 -8 111 17 33 14 74 29 90 34 17 4 38 11 47 15 11 4
18 3 18 -4 0 -7 -10 -16 -22 -21 -15 -5 -17 -9 -7 -9 8 -1 25 8 37 19 12 11
29 20 38 20 15 0 15 -3 -4 -20 -28 -27 -28 -32 2 -24 l25 6 -20 -38 c-10 -21
-19 -47 -19 -57 0 -20 -37 -89 -82 -152 -69 -98 -117 -178 -168 -280 -30 -60
-69 -130 -87 -154 -37 -49 -40 -63 -18 -81 11 -9 20 -8 44 9 36 26 41 26 41 2
0 -10 8 -29 19 -42 16 -21 22 -22 45 -11 26 12 34 36 16 47 -16 10 -12 22 10
28 15 4 20 14 20 41 0 27 3 34 15 30 8 -4 26 1 39 10 22 14 23 18 13 57 -9 36
-8 44 8 55 12 9 20 31 23 65 3 32 14 66 29 88 25 37 88 91 107 91 6 0 28 11
48 25 20 14 45 25 55 25 25 0 93 37 121 66 13 13 27 24 33 24 6 0 43 -32 82
-71 40 -40 87 -83 105 -96 17 -14 32 -33 32 -43 0 -24 119 -118 159 -126 26
-6 30 -10 25 -27 -4 -12 -17 -29 -30 -39 -14 -12 -27 -38 -35 -72 -8 -38 -17
-56 -30 -59 -22 -6 -26 -37 -6 -37 17 0 43 50 57 108 8 32 15 42 28 40 9 -2
16 -10 15 -18 -3 -16 70 -60 100 -60 49 0 155 86 158 128 2 26 2 25 -5 55 -7
30 9 36 43 15 15 -9 27 -6 65 16 25 15 46 31 46 37 0 5 -18 -2 -40 -16 -41
-26 -65 -31 -74 -16 -12 19 -79 20 -125 1 -25 -10 -76 -24 -113 -30 -81 -13
-110 -3 -181 60 -45 39 -56 71 -19 51 9 -4 33 -11 53 -15 21 -4 51 -14 68 -22
25 -12 53 -15 124 -11 51 3 104 8 120 12 23 6 26 5 21 -9 -3 -9 -1 -16 4 -16
6 0 14 9 17 20 3 11 11 20 18 20 6 0 29 9 51 19 127 59 159 75 236 121 47 27
88 50 91 50 3 0 19 -13 35 -30 17 -17 40 -30 55 -30 14 0 34 -7 45 -15 30 -22
61 -18 80 11 14 20 15 27 5 34 -9 5 -11 18 -6 38 13 60 -48 122 -120 122 -15
0 -42 12 -60 28 -18 15 -45 36 -60 48 l-26 20 22 50 c12 27 26 57 30 66 5 10
9 24 9 33 0 8 12 17 28 21 72 16 95 28 113 58 15 25 33 37 86 56 38 12 83 32
101 42 35 21 73 21 128 -2 60 -25 127 28 88 71 -9 10 -23 19 -31 19 -27 0 -2
19 72 54 76 36 101 62 90 96 -7 22 -35 26 -53 8 -6 -6 -28 -17 -47 -24 -36
-12 -36 -12 -20 9 24 34 28 45 21 72 -7 29 -27 32 -51 8 -16 -16 -18 -16 -27
0 -14 27 -49 20 -80 -15 -25 -30 -29 -31 -38 -15 -6 9 -15 17 -21 17 -5 0 -27
-38 -48 -84 -21 -46 -44 -87 -51 -91 -17 -10 -150 -13 -150 -3 0 4 4 8 10 8 5
0 7 6 4 14 -6 17 34 46 65 49 23 1 28 12 8 20 -7 3 -21 -1 -32 -9 -35 -26 -40
-14 -7 16 18 17 38 30 43 30 6 0 8 4 4 10 -3 5 6 17 20 26 14 9 25 21 25 26 0
5 -7 2 -16 -6 -8 -9 -20 -16 -25 -16 -19 0 -47 -33 -42 -49 4 -9 3 -13 -2 -9
-8 8 -45 -28 -45 -44 0 -4 -7 -8 -15 -8 -20 0 -20 2 16 56 18 25 52 58 75 73
24 14 44 32 44 39 0 10 -4 10 -20 0 -11 -7 -20 -16 -20 -20 0 -5 -4 -8 -10 -8
-19 0 -10 21 22 50 17 16 29 32 26 35 -3 3 -23 -10 -44 -30 -22 -20 -58 -50
-81 -66 -40 -28 -43 -29 -43 -9 0 11 4 20 8 20 5 0 26 16 47 37 32 31 36 41
32 69 -4 22 -1 37 9 45 8 6 14 18 14 25 0 8 7 14 15 14 8 0 15 8 15 18 0 10 5
23 12 30 9 9 9 12 -1 12 -7 0 -15 -9 -18 -20 -3 -11 -10 -20 -17 -20 -6 -1
-23 -20 -38 -43 -25 -41 -46 -56 -93 -72 -16 -5 -17 -8 -5 -15 9 -6 23 -1 43
16 26 21 30 22 44 9 14 -14 11 -20 -29 -59 -25 -24 -53 -49 -64 -55 -16 -10
-16 -12 -1 -7 19 6 22 -6 6 -35 -9 -19 -9 -19 10 -10 11 6 23 16 26 21 3 6 10
10 15 10 13 0 20 -29 8 -36 -7 -4 -8 -3 -4 4 4 7 2 12 -4 12 -7 0 -17 -12 -23
-27 -12 -33 -84 -99 -95 -88 -4 4 3 14 16 22 12 9 22 20 22 26 0 6 -10 1 -23
-11 -27 -25 -49 -29 -41 -7 7 17 -11 21 -21 5 -11 -18 -23 -11 -18 10 8 30 -3
24 -31 -16 -13 -19 -27 -31 -30 -26 -8 13 3 42 16 42 6 0 8 6 5 14 -9 22 23
24 63 3 19 -9 42 -14 50 -11 8 4 24 8 35 9 11 2 21 4 23 4 1 1 -2 10 -8 22 -9
15 -8 24 1 35 16 19 0 18 -22 -2 -9 -8 -25 -17 -35 -18 -27 -4 -29 -26 -3 -26
17 0 20 -3 12 -11 -13 -13 -53 9 -47 26 3 8 -7 10 -31 9 -19 -2 -35 1 -35 6 0
14 18 22 25 11 11 -19 34 1 41 34 3 19 20 47 37 63 44 41 69 72 57 72 -6 0
-10 5 -10 10 0 6 7 10 16 8 10 -2 19 3 22 11 3 11 0 12 -14 6 -43 -17 -57 -19
-49 -4 6 11 5 12 -6 2 -7 -7 -29 -13 -48 -13 l-36 1 55 49 c30 27 63 56 72 64
9 8 31 22 47 31 25 13 34 13 52 3 17 -10 23 -11 26 0 3 6 9 9 15 6 12 -7 37
25 38 48 0 9 7 24 16 32 8 9 11 16 5 16 -5 0 -16 -6 -23 -13 -7 -8 -20 -16
-28 -20 -9 -3 -10 -6 -2 -6 36 -3 -4 -51 -42 -51 -25 0 -18 17 9 24 14 4 23
11 20 16 -6 9 -81 -28 -112 -55 -35 -31 -95 -69 -112 -72 -30 -4 -34 13 -6 25
14 7 25 16 25 22 0 5 5 10 12 10 6 0 25 11 42 24 17 13 41 26 54 30 12 4 22
12 22 17 0 5 6 9 14 9 8 0 17 4 20 9 10 15 -36 0 -79 -27 -49 -30 -118 -75
-125 -82 -17 -17 -71 -50 -83 -50 -7 0 -18 -5 -25 -12 -6 -6 -14 -9 -17 -6 -6
6 62 99 81 111 7 4 11 14 7 23 -3 8 -2 14 3 13 5 -1 17 -1 27 0 27 2 20 21 -8
21 -14 0 -25 -4 -25 -10 0 -5 -8 -10 -17 -10 -14 0 -15 -2 -5 -9 10 -6 3 -17
-29 -45 -23 -20 -51 -36 -60 -36 -10 0 -21 -4 -24 -10 -3 -5 -19 -10 -36 -10
-28 0 -28 1 -11 18 9 11 20 17 25 15 4 -2 7 0 7 5 0 5 18 15 40 22 22 7 40 17
40 22 0 4 8 8 17 8 14 0 14 3 5 12 -10 10 -14 10 -21 0 -4 -8 -15 -10 -26 -6
-13 5 -16 4 -10 -5 5 -10 2 -12 -11 -7 -23 7 -49 -8 -40 -23 4 -6 2 -9 -7 -6
-22 9 -65 -31 -62 -57 1 -13 3 -23 4 -24 0 0 21 2 46 6 37 6 43 4 33 -7 -6 -7
-13 -11 -16 -8 -3 3 -13 -8 -23 -25 -13 -21 -23 -28 -36 -23 -16 6 -16 4 1
-15 11 -12 16 -25 13 -29 -4 -3 -7 0 -7 7 0 8 -11 3 -28 -13 -31 -30 -42 -33
-42 -14 0 7 12 21 28 31 15 9 19 15 10 12 -12 -3 -18 0 -18 9 0 8 5 15 11 15
5 0 7 5 4 10 -4 6 -1 18 6 26 10 13 10 17 0 24 -9 5 -11 17 -8 31 8 31 68 95
87 93 9 0 10 1 3 3 -18 6 -16 13 10 42 l22 26 -30 -25 c-16 -14 -33 -29 -36
-34 -8 -10 -59 -18 -59 -10 0 20 71 123 109 161 13 13 19 23 12 23 -18 0 -56
-47 -108 -134 -31 -53 -58 -86 -82 -100 -20 -11 -39 -20 -43 -18 -5 1 -8 -5
-8 -13 0 -8 -7 -15 -16 -15 -10 0 -14 -6 -11 -14 3 -8 -1 -20 -9 -26 -8 -7
-14 -19 -14 -26 0 -8 -17 -21 -38 -29 -24 -10 -47 -30 -63 -54 -15 -25 -27
-35 -31 -27 -10 14 -10 32 -1 23 3 -4 14 11 24 33 10 22 22 40 26 40 4 0 21
11 37 25 16 14 35 25 43 25 7 0 13 5 13 10 0 40 -101 -35 -147 -109 -30 -48
-29 -36 6 51 25 61 35 76 65 91 20 9 36 22 36 27 0 13 -7 13 -31 0 -27 -15
-24 4 4 27 12 10 23 25 25 33 8 34 109 144 142 155 11 3 20 11 20 16 0 6 9 8
19 4 11 -3 22 -1 26 5 10 17 -39 11 -64 -7z m68 -214 c-43 -36 -55 -37 -34 -1
11 17 26 28 42 29 26 1 26 1 -8 -28z m-59 -24 c0 -2 -12 -29 -27 -60 -23 -47
-31 -55 -55 -55 -24 0 -26 2 -19 23 5 12 14 21 20 20 6 -2 11 2 11 8 0 6 12
24 28 39 26 26 42 36 42 25z m37 -36 c-13 -22 -34 -47 -46 -55 -39 -28 -22 6
39 79 27 32 31 17 7 -24z m163 -16 c0 -30 -50 -103 -70 -103 -27 0 -26 4 21
55 22 24 38 49 34 55 -3 5 -1 10 4 10 6 0 11 -7 11 -17z m-466 -60 c-15 -32
-27 -64 -27 -70 0 -7 -3 -13 -7 -13 -4 0 -5 -11 -2 -25 3 -18 0 -25 -12 -25
-9 0 -16 -7 -16 -16 0 -8 4 -13 9 -9 6 3 6 -7 0 -27 -5 -18 -9 -34 -9 -35 0
-2 -5 -3 -10 -3 -6 0 -9 12 -8 26 2 16 -3 29 -11 32 -11 3 -12 -2 -7 -23 8
-33 -2 -88 -15 -79 -14 8 -11 60 7 115 13 40 20 48 34 44 16 -5 18 -1 14 32
-4 32 1 46 31 86 19 26 40 47 45 47 5 0 -2 -26 -16 -57z m605 20 c-47 -54 -79
-69 -79 -38 0 9 10 15 28 16 16 1 20 3 10 6 -37 9 -9 43 36 43 l29 0 -24 -27z
m-305 -10 c-7 -16 -14 -34 -14 -41 0 -15 -47 -57 -63 -57 -7 0 -12 -10 -11
-22 0 -13 -4 -19 -13 -16 -16 6 -16 8 3 44 8 17 13 33 10 36 -3 3 0 15 6 26
10 19 11 19 20 3 6 -12 6 -22 -3 -32 -6 -8 -9 -17 -6 -20 3 -3 13 9 23 28 9
18 22 36 28 40 6 4 7 8 2 8 -11 0 13 30 25 30 4 0 1 -12 -7 -27z m226 17 c0
-11 -60 -44 -67 -36 -3 3 10 14 28 25 39 24 39 24 39 11z m-904 -27 c-10 -10
-19 5 -10 18 6 11 8 11 12 0 2 -7 1 -15 -2 -18z m-50 -76 c-4 -15 -2 -16 10
-6 11 9 14 7 14 -15 0 -14 -4 -26 -10 -26 -5 0 -10 5 -10 10 0 6 -3 10 -7 9
-5 -1 -18 2 -31 6 -19 6 -20 10 -10 23 7 8 12 27 10 41 l-3 26 21 -25 c11 -14
18 -33 16 -43z m617 49 c3 -8 -1 -22 -8 -33 -8 -10 -15 -27 -15 -37 0 -10 -8
-25 -17 -32 -10 -8 -13 -14 -6 -14 9 0 9 -8 1 -31 -6 -17 -16 -28 -23 -25 -7
2 -18 -8 -25 -22 -8 -16 -14 -22 -17 -14 -3 7 5 28 16 48 21 35 30 63 11 34
-9 -13 -10 -13 -10 1 0 17 29 60 30 44 0 -10 50 72 50 82 0 7 -51 -48 -83 -90
-17 -22 -25 -42 -21 -54 5 -15 4 -15 -5 -3 -6 8 -11 11 -11 5 0 -5 -8 -20 -18
-33 l-18 -23 -1 38 c-1 45 26 103 63 132 39 31 49 26 15 -8 -27 -27 -71 -100
-71 -118 1 -12 40 40 40 52 0 6 18 31 40 55 22 24 40 48 40 52 0 14 38 9 43
-6z m257 -21 c-7 -9 -15 -13 -18 -10 -3 2 1 11 8 20 7 9 15 13 18 10 3 -2 -1
-11 -8 -20z m140 -2 c-12 -8 -23 -13 -26 -10 -8 8 27 38 38 31 5 -3 0 -13 -12
-21z m-100 10 c-1 -14 -30 -47 -36 -41 -8 8 14 48 26 48 6 0 10 -3 10 -7z m40
-33 c-25 -35 -47 -53 -60 -48 -6 2 -3 12 8 24 11 11 23 30 26 41 5 15 13 19
26 16 20 -5 20 -6 0 -33z m113 11 c-29 -31 -59 -43 -65 -26 -3 9 65 52 85 54
4 1 -5 -12 -20 -28z m32 -11 c-16 -16 -31 -28 -33 -25 -7 7 39 55 52 55 5 0
-3 -13 -19 -30z m-935 -20 c-5 -19 -7 -52 -4 -74 5 -44 7 -46 -40 19 -8 11
-17 17 -20 14 -3 -3 10 -28 28 -55 20 -29 37 -67 41 -94 l6 -45 -24 40 c-14
22 -34 50 -46 62 -14 13 -18 22 -10 25 8 3 7 8 -4 19 -12 13 -13 20 -2 46 11
25 74 87 82 79 1 -1 -2 -17 -7 -36z m130 14 c0 -8 -4 -14 -10 -14 -5 0 -10 9
-10 21 0 11 5 17 10 14 6 -3 10 -13 10 -21z m540 21 c0 -13 -53 -84 -66 -89
-8 -3 -20 -19 -25 -36 -6 -16 -15 -30 -20 -30 -5 0 -9 2 -9 5 0 11 43 85 50
85 4 0 18 16 31 35 21 31 39 45 39 30z m-639 -60 c-12 -24 -20 -33 -21 -22 0
23 32 86 37 72 2 -6 -6 -29 -16 -50z m505 8 c-10 -10 -19 5 -10 18 6 11 8 11
12 0 2 -7 1 -15 -2 -18z m64 9 c0 -5 -8 -17 -19 -26 -17 -16 -19 -16 -25 0 -4
9 -4 19 -1 22 3 3 5 -1 5 -9 1 -10 3 -9 11 4 10 18 29 23 29 9z m110 0 c0 -10
-41 -35 -47 -28 -9 8 17 36 33 36 8 0 14 -3 14 -8z m110 -2 c0 -5 -4 -10 -10
-10 -5 0 -10 5 -10 10 0 6 5 10 10 10 6 0 10 -4 10 -10z m-980 -55 c0 -31 28
-104 49 -129 15 -18 15 -19 -1 -13 -9 3 -19 1 -21 -6 -3 -8 -10 -5 -21 8 -18
23 -21 39 -5 29 6 -3 4 5 -5 19 -17 24 -56 124 -56 140 0 4 14 1 30 -8 21 -11
30 -23 30 -40z m284 39 c9 -25 7 -72 -4 -79 -6 -4 -10 6 -10 22 0 15 -3 38 -6
51 -7 25 11 31 20 6z m129 -47 c-8 -28 -17 -62 -20 -75 -8 -32 -23 -38 -23 -8
0 14 5 26 10 26 6 0 10 12 10 27 0 33 21 93 31 87 4 -2 0 -28 -8 -57z m600 50
c18 11 37 12 37 2 0 -5 -7 -9 -15 -9 -9 0 -18 -7 -21 -15 -7 -17 -13 -18 -33
-6 -13 8 -13 12 -1 26 9 11 16 13 18 6 2 -6 9 -8 15 -4z m-1073 -105 c0 -5 7
-15 15 -22 20 -16 19 -12 -5 38 -11 22 -20 47 -20 53 0 13 8 10 9 -4 0 -4 12
-30 27 -58 14 -28 20 -48 13 -43 -9 5 -11 2 -6 -9 8 -21 -18 -30 -34 -11 -12
14 -61 44 -74 44 -17 0 2 -19 46 -45 63 -37 100 -76 116 -121 13 -37 13 -37
-11 -28 -12 5 -14 10 -6 19 8 9 6 14 -6 19 -10 4 -21 0 -29 -10 -11 -16 -12
-16 -18 0 -5 11 0 19 12 24 18 7 17 9 -10 40 -17 19 -33 31 -37 27 -4 -4 4
-15 17 -26 13 -11 21 -22 18 -25 -2 -3 -21 9 -40 25 -19 17 -39 31 -44 31 -5
0 -15 17 -22 37 -11 29 -11 38 -1 41 9 3 9 7 -1 14 -10 6 -6 7 11 2 14 -4 43
-21 65 -38 l40 -31 -21 30 c-29 40 -64 111 -64 127 0 7 14 -10 30 -39 17 -29
30 -56 30 -61z m120 67 c0 -11 -3 -19 -6 -19 -13 0 -32 34 -27 47 7 19 33 -3
33 -28z m631 -12 c-8 -8 -11 -6 -11 7 0 9 -4 15 -10 11 -5 -3 -7 -12 -3 -20 3
-10 -1 -15 -12 -15 -25 0 -14 32 15 47 21 11 26 10 28 -3 2 -9 -1 -21 -7 -27z
m262 36 c-7 -2 -13 -10 -13 -16 -1 -18 -38 -63 -45 -55 -7 7 22 58 40 70 5 4
15 7 20 7 6 0 4 -3 -2 -6z m-133 -22 c0 -12 -20 -25 -27 -18 -7 7 6 27 18 27
5 0 9 -4 9 -9z m147 -5 c-4 -11 -1 -13 10 -9 11 4 14 3 9 -6 -5 -7 -14 -10
-21 -7 -7 2 -18 -1 -24 -7 -15 -15 -14 -2 1 23 15 23 33 27 25 6z m-913 -96
c3 -14 -5 -2 -19 25 -14 28 -24 57 -24 65 1 17 34 -52 43 -90z m829 68 c-3
-16 -12 -28 -19 -28 -8 0 -14 -5 -14 -11 0 -5 5 -7 12 -3 7 5 8 3 2 -7 -15
-25 -12 -34 12 -35 12 -1 25 5 28 13 3 8 11 11 17 7 7 -4 9 -3 6 2 -3 5 3 21
14 34 11 15 19 19 19 11 0 -8 -12 -30 -27 -50 -16 -20 -26 -42 -25 -50 2 -9
-2 -12 -13 -7 -9 3 -19 6 -21 6 -3 0 -2 5 2 12 5 7 3 8 -6 3 -33 -20 -40 62
-9 107 25 34 29 33 22 -4z m157 23 c0 -13 -26 -32 -33 -24 -8 7 11 33 24 33 5
0 9 -4 9 -9z m207 -18 c-14 -14 -19 -15 -29 -4 -11 10 -10 11 4 6 12 -5 20 -1
24 9 4 9 9 14 12 11 3 -3 -2 -13 -11 -22z m-639 -21 c-8 -9 -20 -30 -27 -46
-7 -18 -16 -25 -21 -20 -13 13 -1 54 16 54 8 0 19 12 25 28 7 16 13 22 16 14
3 -7 -1 -21 -9 -30z m980 16 c-2 -12 -22 -36 -45 -53 -38 -28 -55 -55 -34 -55
5 0 38 30 74 66 70 72 100 79 68 16 -11 -20 -29 -44 -40 -52 -12 -8 -21 -18
-21 -23 0 -13 43 0 111 32 53 25 59 26 59 10 0 -17 -44 -59 -62 -59 -14 0
-138 -73 -138 -82 0 -4 9 -8 19 -8 10 0 29 -9 42 -19 19 -16 22 -22 12 -32
-15 -16 -78 -15 -97 0 -24 20 -63 16 -123 -13 -94 -45 -97 -47 -127 -49 -22
-2 -29 2 -31 18 -4 42 -18 67 -48 85 l-30 19 27 7 c15 3 48 4 74 1 53 -6 98 9
131 44 21 23 29 45 11 34 -5 -3 -2 11 6 32 28 67 35 76 47 64 7 -7 6 -16 -7
-30 -10 -11 -13 -21 -7 -25 5 -4 29 16 52 44 45 53 83 67 77 28z m-754 0 c-18
-31 -67 -88 -75 -88 -14 0 34 88 51 93 27 8 31 7 24 -5z m-1094 -19 c0 -6 -4
-7 -10 -4 -5 3 -10 11 -10 16 0 6 5 7 10 4 6 -3 10 -11 10 -16z m39 -10 c6
-18 11 -35 11 -38 -1 -11 -40 44 -40 57 0 24 18 12 29 -19z m297 -21 c9 -29
21 -58 26 -65 5 -7 5 -14 -2 -18 -11 -7 -11 -7 -39 78 -10 31 -15 57 -10 57 4
0 15 -24 25 -52z m349 5 c-9 -37 -18 -20 -9 19 4 18 9 27 11 20 3 -7 2 -24 -2
-39z m234 11 c-14 -18 -24 -11 -15 11 3 9 11 13 16 10 8 -5 7 -11 -1 -21z
m-184 -14 c-9 -16 -19 -30 -24 -30 -5 0 -11 -9 -14 -20 -3 -11 -11 -20 -17
-20 -9 0 -7 8 4 25 9 14 23 36 32 50 23 35 38 31 19 -5z m440 10 c-20 -22 -35
-26 -35 -10 0 6 10 15 23 20 32 13 32 12 12 -10z m-625 -3 c0 -7 -5 -18 -11
-24 -5 -5 -11 -33 -11 -62 -1 -28 -5 -51 -10 -51 -4 0 -8 4 -8 9 0 5 -3 24 -6
42 -4 23 -3 30 4 20 7 -9 11 0 16 33 4 25 11 46 17 46 5 0 9 -6 9 -13z m340
-13 c0 -19 -11 -44 -20 -44 -4 0 -7 13 -6 28 1 27 26 42 26 16z m60 11 c0 -3
-4 -13 -9 -23 -5 -9 -17 -34 -27 -54 -16 -32 -34 -50 -34 -33 0 12 24 55 32
55 4 0 8 11 8 23 0 13 3 27 7 30 8 8 23 9 23 2z m46 -30 c0 -19 -4 -35 -8 -35
-4 0 -7 3 -5 8 1 4 -2 8 -8 9 -5 0 -9 -3 -8 -8 2 -4 -4 -6 -12 -3 -12 5 -9 12
13 35 15 16 27 29 27 29 1 0 1 -16 1 -35z m384 25 c0 -5 -2 -10 -4 -10 -3 0
-8 5 -11 10 -3 6 -1 10 4 10 6 0 11 -4 11 -10z m-547 -54 c8 3 18 1 21 -5 9
-14 -14 -25 -26 -13 -6 6 -24 8 -41 5 l-29 -6 17 27 c9 14 14 26 11 26 -4 0
-4 5 0 11 4 7 12 -1 20 -20 8 -20 18 -29 27 -25z m-449 -1 c17 -29 34 -45 46
-45 15 0 19 -6 18 -25 -2 -16 -8 -25 -18 -24 -8 1 -24 1 -35 0 -15 -1 -12 -5
13 -16 41 -18 41 -25 -3 -25 -30 0 -35 3 -35 24 0 14 -5 28 -11 31 -7 5 -4 14
7 26 16 18 16 22 1 55 -9 19 -17 37 -17 39 0 13 11 1 34 -40z m1081 35 c-3 -5
-11 -10 -16 -10 -6 0 -7 5 -4 10 3 6 11 10 16 10 6 0 7 -4 4 -10z m-845 -20
c0 -11 -4 -20 -10 -20 -5 0 -10 9 -10 20 0 11 5 20 10 20 6 0 10 -9 10 -20z
m150 11 c0 -12 -29 -35 -36 -28 -7 6 17 36 29 37 4 0 7 -4 7 -9z m315 -1 c3
-5 1 -10 -4 -10 -6 0 -11 5 -11 10 0 6 2 10 4 10 3 0 8 -4 11 -10z m-1130 -11
c4 -6 5 -12 2 -15 -7 -7 -37 7 -37 17 0 13 27 11 35 -2z m1095 -14 c-7 -8 -20
-15 -29 -15 -13 1 -13 3 3 15 26 19 42 19 26 0z m-1015 -16 c45 -16 67 -33 57
-44 -4 -4 3 -4 15 -1 18 6 22 4 17 -7 -3 -8 2 -17 10 -20 22 -9 20 -24 -5 -30
-14 -4 -19 -2 -15 8 6 16 -15 26 -63 31 -19 2 -39 8 -45 14 -6 6 -15 5 -27 -6
-19 -17 -39 -11 -39 12 0 8 10 14 25 14 25 0 33 14 15 25 -14 9 -12 28 3 22 6
-2 30 -10 52 -18z m524 -11 c0 -28 -2 -30 -9 -13 -12 28 -12 45 0 45 6 0 10
-15 9 -32z m38 6 c10 -22 10 -25 -3 -20 -9 3 -18 6 -20 6 -2 0 -4 9 -4 20 0
28 13 25 27 -6z m53 12 c0 -15 -18 -31 -26 -23 -7 7 7 37 17 37 5 0 9 -6 9
-14z m434 -7 c-3 -5 -10 -7 -15 -3 -5 3 -7 10 -3 15 3 5 10 7 15 3 5 -3 7 -10
3 -15z m368 8 c23 -18 17 -42 -14 -66 -34 -27 -51 -27 -19 0 28 23 35 55 14
63 -7 3 -13 1 -13 -3 0 -14 -79 -73 -91 -69 -11 4 86 88 100 88 3 0 14 -6 23
-13z m-1500 -7 c6 0 5 -6 -2 -15 -10 -12 -16 -13 -26 -4 -19 16 -18 33 2 25 9
-3 20 -6 26 -6z m1248 0 c0 -5 -4 -10 -10 -10 -5 0 -10 5 -10 10 0 6 5 10 10
10 6 0 10 -4 10 -10z m-505 -20 c-10 -11 -21 -18 -23 -15 -3 3 3 12 14 20 27
20 30 18 9 -5z m45 11 c0 -5 -7 -11 -14 -14 -10 -4 -13 -1 -9 9 6 15 23 19 23
5z m213 -13 c-4 -13 -13 -34 -22 -48 -9 -14 -23 -38 -31 -53 -26 -52 -22 -10
4 46 14 30 26 59 26 65 0 7 6 12 14 12 10 0 12 -7 9 -22z m37 7 c0 -8 -4 -15
-10 -15 -5 0 -10 7 -10 15 0 8 5 15 10 15 6 0 10 -7 10 -15z m130 5 c0 -5 -4
-10 -10 -10 -5 0 -10 5 -10 10 0 6 5 10 10 10 6 0 10 -4 10 -10z m150 1 c0
-12 -20 -25 -27 -18 -7 7 6 27 18 27 5 0 9 -4 9 -9z m-930 -20 c14 -27 -4 -36
-30 -14 -25 22 -26 33 0 33 10 0 24 -9 30 -19z m411 -44 c-13 -13 -14 5 -3 43
l7 25 3 -29 c2 -16 -1 -33 -7 -39z m395 38 c-3 -9 -11 -13 -16 -10 -8 5 -7 11
1 21 14 18 24 11 15 -11z m179 13 c4 4 6 1 4 -6 -3 -8 -8 -13 -12 -13 -4 1
-14 1 -22 1 -9 0 -12 6 -9 15 5 11 10 13 19 5 6 -5 15 -6 20 -2z m-1162 -12
c21 -16 21 -22 1 -30 -9 -3 -12 -2 -9 5 4 6 -1 17 -11 24 -11 8 -14 14 -9 14
6 0 18 -6 28 -13z m661 -1 c12 -5 21 -3 26 6 14 21 23 3 10 -20 -13 -25 -28
-27 -36 -6 -9 21 -24 19 -24 -4 0 -11 -5 -23 -12 -27 -8 -5 -9 0 -6 14 4 12 2
25 -3 28 -5 3 -7 9 -4 14 6 9 19 8 49 -5z m236 5 c0 -5 -7 -10 -15 -10 -8 0
-15 -4 -15 -10 0 -13 -63 -101 -68 -95 -2 2 5 20 16 40 12 19 20 41 18 48 -1
6 -1 9 1 5 3 -4 14 1 26 12 23 22 37 26 37 10z m350 -20 c-13 -11 -26 -17 -29
-14 -3 3 5 14 18 25 31 25 41 15 11 -11z m-1510 4 c0 -8 -4 -12 -10 -9 -5 3
-10 1 -10 -4 0 -6 4 -11 8 -11 13 0 11 -34 -2 -43 -6 -5 0 -5 14 -2 18 5 22 4
15 -4 -8 -8 -29 -8 -75 0 -110 18 -114 19 -103 30 15 15 80 28 90 19 4 -4 18
-11 30 -14 20 -6 22 -4 18 23 -2 22 1 31 11 31 8 0 14 -7 14 -16z m756 -37
c-2 -23 -5 -48 -5 -54 -1 -7 -5 -13 -10 -13 -9 0 -9 27 -3 103 1 10 7 15 12
12 6 -4 9 -25 6 -48z m434 44 c0 -6 -4 -13 -10 -16 -10 -6 -80 -127 -80 -138
0 -21 21 -1 36 33 18 41 40 55 31 20 -3 -11 -1 -18 3 -15 5 3 10 0 12 -6 2 -7
9 -5 17 5 12 14 11 16 -5 10 -13 -5 -8 5 15 29 19 21 31 37 26 37 -4 0 -6 2
-3 5 8 9 38 -6 38 -19 0 -6 -12 -22 -27 -36 -26 -25 -63 -79 -63 -92 0 -5 5
-8 10 -8 6 0 10 6 10 13 0 19 69 96 70 78 0 -8 -10 -25 -22 -38 -12 -13 -18
-26 -14 -30 4 -5 14 1 22 11 19 27 18 11 -2 -19 -31 -48 1 -24 41 30 39 53 55
66 55 45 0 -5 -4 -10 -9 -10 -4 0 -6 -10 -4 -23 3 -14 -3 -29 -16 -41 -22 -20
-29 -9 -8 13 9 11 9 12 0 7 -7 -4 -18 -16 -24 -28 -8 -15 -8 -19 0 -14 6 4 11
2 11 -3 0 -6 -4 -11 -9 -11 -5 0 -11 -7 -15 -15 -3 -8 -3 -15 -1 -15 11 0 74
68 68 74 -4 3 -1 6 5 6 17 0 15 -31 -5 -52 -9 -10 -13 -21 -9 -25 4 -5 12 0
17 10 6 9 14 17 19 17 10 0 6 -83 -6 -101 -5 -8 -10 -22 -11 -32 -9 -54 -102
-154 -195 -208 -36 -21 -69 -39 -72 -39 -4 0 1 11 10 26 13 19 14 28 5 37 -8
8 -11 7 -11 -5 0 -9 -12 -30 -26 -47 -29 -35 -70 -41 -108 -15 -15 9 -26 11
-30 5 -7 -11 24 -31 51 -32 39 -1 -34 -18 -118 -27 -120 -13 -246 6 -336 50
-26 13 -39 26 -36 34 3 8 0 28 -6 44 -8 23 -7 36 2 51 14 23 27 25 27 4 0 -8
5 -15 10 -15 14 0 12 13 -5 36 -15 19 -15 19 -30 0 -8 -11 -18 -17 -21 -13 -4
3 1 14 11 23 13 14 14 19 3 25 -22 15 -28 10 -28 -21 0 -16 -4 -30 -10 -30
-15 0 -9 68 7 75 8 3 26 -4 40 -15 15 -11 39 -19 57 -19 27 2 28 2 6 6 -14 2
-29 10 -35 17 -5 7 -16 15 -24 17 -8 3 10 6 40 6 30 1 60 -4 67 -9 8 -7 12 -7
12 0 0 6 -6 12 -12 15 -17 6 -7 16 18 20 10 1 25 6 32 11 7 4 19 2 28 -5 8 -6
18 -8 22 -4 4 4 3 9 -3 12 -5 2 -17 8 -25 13 -13 9 -12 12 4 25 11 8 32 15 48
15 37 0 35 12 -4 29 -18 7 -45 19 -60 26 -16 8 -30 10 -34 4 -3 -5 -14 -9 -25
-9 -11 0 -18 -4 -15 -9 3 -5 23 -8 44 -6 20 1 26 0 12 -2 -14 -3 -31 -10 -38
-16 -10 -8 -16 -7 -22 3 -13 21 -23 5 -11 -18 7 -14 17 -18 36 -15 18 4 25 1
25 -10 0 -8 3 -17 8 -20 4 -2 1 -2 -6 -1 -7 2 -34 -5 -60 -15 -55 -21 -123
-26 -133 -9 -4 7 -3 20 2 30 8 14 20 17 64 15 53 -2 69 -10 43 -20 -7 -3 -8
-6 -3 -6 6 0 16 3 24 8 16 10 6 31 -15 31 -8 0 -12 5 -9 10 3 6 -3 10 -14 10
-11 0 -23 5 -26 10 -4 6 6 10 24 10 33 0 49 15 27 23 -8 3 -16 2 -18 -2 -2 -5
-18 -12 -35 -16 -26 -5 -33 -3 -33 8 0 9 -6 17 -12 20 -8 2 -9 8 -4 13 5 5 11
4 13 -3 3 -7 19 -13 36 -12 26 0 28 2 12 8 -16 7 -13 9 17 15 21 4 41 13 45
20 9 16 73 10 73 -6 0 -6 -14 -8 -35 -5 -19 3 -35 2 -35 -3 0 -5 -8 -10 -17
-13 -10 -2 20 -3 67 -1 54 2 79 -1 70 -6 -13 -8 -12 -10 3 -10 11 0 17 8 17
22 0 29 15 13 30 -34 6 -21 16 -41 22 -45 7 -4 9 0 5 10 -4 12 -1 17 10 17 13
0 12 5 -7 25 -26 27 -25 31 5 37 15 2 19 -2 17 -18 -2 -15 4 -23 17 -27 17 -4
19 -2 12 11 -13 26 3 147 19 137 5 -3 8 -22 8 -43 -1 -55 1 -72 10 -72 4 0 7
20 6 45 -1 25 2 45 6 45 13 0 22 -38 15 -60 -3 -11 -2 -20 3 -20 12 0 22 34
22 75 l0 30 19 -24 c14 -18 17 -35 14 -63 -4 -25 -2 -38 6 -38 6 0 11 8 11 18
0 17 56 142 63 142 2 0 1 -15 -1 -34 -3 -29 0 -36 27 -49 22 -11 31 -12 29 -4
-3 15 80 147 93 147 5 0 9 -4 9 -9z m110 5 c0 -3 -4 -8 -10 -11 -5 -3 -10 -1
-10 4 0 6 5 11 10 11 6 0 10 -2 10 -4z m19 -27 c-19 -12 -24 -2 -8 17 9 11 14
13 17 4 3 -7 -2 -16 -9 -21z m-1279 -10 c0 -5 -7 -9 -15 -9 -9 0 -15 9 -15 21
0 18 2 19 15 9 8 -7 15 -16 15 -21z m650 27 c0 -3 -4 -8 -10 -11 -5 -3 -10 -1
-10 4 0 6 5 11 10 11 6 0 10 -2 10 -4z m25 -36 c0 -44 -19 -55 -23 -14 -2 21
12 54 22 54 1 0 2 -18 1 -40z m92 7 c0 -21 -6 -34 -14 -34 -16 0 -16 7 -3 41
13 35 18 33 17 -7z m463 17 c0 -8 -4 -12 -10 -9 -5 3 -10 10 -10 16 0 5 5 9
10 9 6 0 10 -7 10 -16z m-614 -16 c-4 -24 28 -68 49 -68 11 0 35 -41 35 -59 0
-4 -10 -8 -23 -7 -27 1 -80 41 -75 56 2 6 18 -3 37 -20 18 -17 35 -29 39 -25
3 3 -13 23 -36 44 -41 38 -48 54 -36 85 9 23 14 20 10 -6z m328 -5 c-4 -16
-11 -39 -16 -52 l-9 -24 -15 21 c-15 22 -11 47 6 37 5 -3 12 6 16 20 3 14 10
25 15 25 5 0 6 -12 3 -27z m84 -21 c-14 -36 -33 -44 -23 -9 4 12 9 30 12 41 3
10 9 14 14 9 5 -5 4 -22 -3 -41z m152 40 c0 -5 -11 -19 -25 -32 -29 -27 -33
-19 -7 15 17 25 32 32 32 17z m170 -1 c0 -5 -6 -11 -14 -14 -7 -3 -16 -15 -19
-26 l-5 -22 34 22 c37 23 48 10 12 -15 -25 -18 -37 -19 -57 -7 -11 7 -10 14 8
40 22 30 41 40 41 22z m-1273 -17 c-3 -3 -12 -4 -19 -1 -8 3 -5 6 6 6 11 1 17
-2 13 -5z m308 -14 c18 -20 15 -38 -4 -25 -15 9 -33 45 -23 45 5 0 17 -9 27
-20z m30 9 c11 -17 -1 -21 -15 -4 -8 9 -8 15 -2 15 6 0 14 -5 17 -11z m170 1
c3 -5 1 -10 -4 -10 -6 0 -11 5 -11 10 0 6 2 10 4 10 3 0 8 -4 11 -10z m289
-24 c-6 -25 -24 -37 -24 -15 0 15 21 52 26 46 3 -3 2 -16 -2 -31z m-778 3 c7
-6 16 -3 24 6 16 19 31 20 24 1 -4 -10 5 -16 26 -21 17 -4 29 -10 25 -13 -9
-9 -75 -12 -75 -4 0 4 -8 8 -17 8 -10 1 -26 5 -36 9 -13 6 -16 4 -11 -9 6 -15
3 -15 -27 1 -19 10 -36 19 -38 20 -1 1 0 6 4 12 7 12 83 4 101 -10z m189 -13
c35 -24 45 -37 39 -47 -2 -4 5 -10 16 -14 11 -3 20 -13 20 -21 0 -12 -4 -12
-20 -4 -11 6 -20 15 -20 21 0 6 -4 8 -9 5 -5 -3 -15 2 -22 11 -12 14 -11 15
11 8 24 -7 24 -7 5 8 -12 10 -24 12 -29 6 -13 -12 -36 -12 -36 1 0 6 8 10 18
11 11 0 7 4 -10 11 -16 5 -28 16 -28 24 0 16 22 9 65 -20z m988 6 c-6 -4 -11
-16 -10 -26 1 -10 -2 -20 -8 -22 -5 -2 -11 8 -12 22 -1 32 17 57 32 43 6 -7 6
-12 -2 -17z m207 3 c47 -11 60 -20 69 -47 26 -74 -2 -133 -67 -143 -20 -4 -50
-13 -67 -20 -37 -17 -50 -10 -30 18 20 29 19 47 -6 73 l-21 22 21 7 c12 3 21
13 21 20 0 8 8 18 17 24 10 5 15 12 11 16 -3 3 -24 -13 -45 -36 -24 -25 -45
-39 -51 -35 -18 11 -14 52 5 67 15 13 16 11 9 -13 -7 -31 5 -37 25 -11 12 14
12 15 1 9 -11 -7 -12 -4 -2 13 6 12 15 19 19 16 5 -2 16 6 25 20 15 22 19 24
39 13 12 -7 24 -13 27 -13z m-1462 -34 c3 -8 -1 -12 -9 -9 -7 2 -15 10 -17 17
-3 8 1 12 9 9 7 -2 15 -10 17 -17z m402 3 c0 -8 -4 -12 -10 -9 -5 3 -10 10
-10 16 0 5 5 9 10 9 6 0 10 -7 10 -16z m348 -28 c-3 -36 -6 -41 -30 -44 -26
-3 -27 -2 -21 35 7 44 13 56 13 25 0 -12 5 -22 11 -22 6 0 9 10 7 23 -3 16 0
24 9 24 10 0 13 -12 11 -41z m-378 18 c0 -8 -4 -12 -10 -9 -5 3 -10 10 -10 16
0 5 5 9 10 9 6 0 10 -7 10 -16z m120 0 c0 -11 -5 -14 -16 -10 -9 3 -20 6 -25
6 -5 0 -9 5 -9 10 0 6 11 10 25 10 16 0 25 -6 25 -16z m50 -14 c5 0 11 7 13
15 4 11 4 10 3 -2 -1 -10 12 -27 28 -38 16 -11 32 -27 34 -35 4 -13 2 -12 -14
1 -10 9 -34 24 -51 33 -28 14 -33 14 -33 2 0 -16 -18 -31 -26 -23 -3 2 3 20
13 40 10 20 19 29 21 21 2 -8 7 -14 12 -14z m-319 0 c10 -6 19 -17 19 -25 0
-19 2 -19 -45 5 -24 12 -47 17 -64 13 -22 -5 -23 -4 -10 10 15 16 66 15 100
-3z m-136 0 c-20 -9 -20 -9 0 -10 11 0 29 -7 39 -15 11 -8 37 -15 58 -15 21 0
38 -4 38 -10 0 -5 -10 -10 -23 -10 -13 0 -28 -5 -33 -10 -7 -7 -18 -4 -36 9
-13 11 -37 23 -51 26 -41 11 -35 46 7 44 21 0 21 -1 1 -9z m375 -18 c0 -7 5
-10 10 -7 6 3 10 -1 10 -9 0 -21 -10 -20 -26 2 -8 10 -13 12 -14 5 0 -10 -6
-10 -25 -1 -35 16 -31 26 10 25 22 -1 35 -6 35 -15z m-84 -16 c3 -9 12 -12 22
-8 14 5 14 4 2 -9 -23 -25 -50 -21 -50 7 0 26 17 33 26 10z m-71 -8 c26 -12
34 -28 13 -28 -15 1 -48 24 -48 34 0 9 5 8 35 -6z m145 -18 c0 -5 -4 -10 -10
-10 -5 0 -10 5 -10 10 0 6 5 10 10 10 6 0 10 -4 10 -10z m-181 -9 c10 -7 8
-10 -10 -16 -30 -9 -57 -37 -51 -53 2 -6 -1 -12 -7 -12 -33 0 14 85 49 89 3 0
11 -3 19 -8z m-69 -21 c0 -5 -7 -10 -15 -10 -8 0 -15 5 -15 10 0 6 7 10 15 10
8 0 15 -4 15 -10z m1155 -17 c-9 -37 -25 -53 -25 -26 0 29 10 53 22 53 6 0 7
-11 3 -27z m-1192 5 c27 -21 7 -42 -26 -27 -21 9 -24 15 -16 26 14 16 21 16
42 1z m176 3 c19 -12 1 -21 -59 -28 -60 -7 -69 10 -12 25 49 13 54 13 71 3z
m41 -19 c0 -4 -6 -14 -12 -20 -10 -10 -10 -15 2 -22 12 -8 11 -10 -7 -10 -30
0 -37 15 -16 40 18 21 33 26 33 12z m-280 -22 c9 -17 8 -20 -13 -20 -30 0 -40
10 -26 27 16 18 26 16 39 -7z m-260 -10 c0 -5 -9 -10 -20 -10 -11 0 -20 5 -20
10 0 6 9 10 20 10 11 0 20 -4 20 -10z m425 0 c3 -5 -3 -10 -14 -10 -12 0 -21
5 -21 10 0 6 6 10 14 10 8 0 18 -4 21 -10z m165 -12 c0 -6 -7 -7 -16 -4 -9 3
-18 6 -20 6 -3 0 -3 4 1 10 7 11 35 2 35 -12z m180 4 c0 -8 -9 -12 -22 -10
-30 4 -33 23 -3 23 14 0 25 -6 25 -13z m-670 -3 l37 -11 -23 -25 c-20 -22 -29
-24 -61 -18 -21 3 -49 14 -63 23 l-25 16 40 12 c52 16 51 16 95 3z m124 -15
c23 -9 20 -27 -4 -19 -10 3 -32 -1 -47 -9 -32 -17 -26 -21 11 -6 30 11 34 1 8
-21 -13 -11 -25 -13 -41 -7 -13 4 -27 6 -32 2 -18 -11 -8 13 14 33 33 30 61
39 91 27z m184 -6 c-3 -7 -18 -15 -34 -20 -22 -6 -32 -4 -41 9 -7 9 -16 14
-19 10 -4 -4 -1 -13 6 -22 7 -9 10 -18 7 -22 -7 -6 -46 36 -47 50 0 4 30 7 66
7 46 0 65 -3 62 -12z m72 -3 c0 -8 -7 -15 -15 -15 -16 0 -20 12 -8 23 11 12
23 8 23 -8z m1059 -1 c8 -7 -73 -188 -129 -290 -101 -179 -133 -215 -218 -245
-128 -45 -249 -52 -347 -19 -33 11 -79 25 -102 30 -29 7 -60 27 -100 65 -32
30 -61 55 -64 55 -4 0 -14 12 -24 26 -12 19 -14 29 -6 37 16 16 13 31 -3 18
-9 -8 -16 -9 -21 -2 -3 6 6 13 20 17 14 3 25 10 25 14 0 4 26 -5 58 -20 77
-37 150 -51 252 -51 136 1 277 34 350 81 14 8 39 22 55 30 17 8 60 46 97 84
51 52 73 83 89 127 19 52 24 59 43 53 12 -4 23 -8 25 -10z m-1099 -9 c0 -8 -7
-15 -16 -15 -14 0 -14 3 -4 15 7 8 14 15 16 15 2 0 4 -7 4 -15z m-153 -49 c-4
-10 -18 -16 -39 -16 -39 0 -66 14 -49 24 6 4 16 4 21 1 6 -3 10 0 10 7 0 8 5
19 12 26 16 16 54 -19 45 -42z m233 38 c0 -8 -5 -12 -11 -8 -6 3 -24 -6 -40
-22 -22 -22 -29 -24 -29 -11 0 9 17 25 38 36 45 25 42 24 42 5z m-164 -41
c-10 -10 -19 5 -10 18 6 11 8 11 12 0 2 -7 1 -15 -2 -18z m64 18 c0 -12 -39
-25 -48 -16 -7 7 17 25 36 25 6 0 12 -4 12 -9z m-100 -21 c0 -5 7 -10 15 -10
8 0 15 -4 15 -10 0 -5 6 -7 14 -4 8 3 17 1 21 -5 12 -20 -50 -12 -68 9 -20 23
-21 30 -7 30 6 0 10 -4 10 -10z m203 4 c8 -9 -11 -44 -23 -44 -6 0 -10 7 -10
15 0 8 5 15 11 15 5 0 7 5 4 10 -7 11 8 14 18 4z m-405 -20 c-10 -10 -23 -14
-34 -10 -16 6 -16 8 -4 16 8 6 24 10 35 10 18 0 18 -1 3 -16z m126 -29 c-6
-15 -84 -37 -84 -25 0 5 5 12 10 15 6 4 8 10 5 15 -6 10 22 17 52 12 13 -2 20
-9 17 -17z m32 9 c-5 -12 -1 -14 16 -8 20 6 21 5 9 -10 -7 -9 -17 -16 -21 -16
-11 0 -21 30 -14 41 9 15 17 10 10 -7z m184 4 c-1 -34 -14 -58 -32 -58 -17 0
-18 -3 -8 -15 6 -8 9 -23 5 -35 -4 -14 -2 -20 9 -20 8 0 13 6 11 13 -3 7 4 30
16 52 l21 40 -7 -42 c-5 -29 -3 -43 4 -43 6 0 16 -12 21 -26 6 -14 15 -22 20
-19 6 4 8 10 5 15 -3 4 1 10 7 13 10 3 10 7 -1 20 -11 14 -11 18 3 23 21 8 22
7 30 -35 5 -29 4 -32 -9 -21 -12 10 -15 10 -15 -3 0 -9 5 -19 10 -22 17 -11
11 -23 -17 -33 -16 -5 -54 -33 -87 -61 -32 -29 -65 -51 -74 -49 -8 2 -21 24
-29 50 -14 49 -40 75 -81 81 -12 2 -25 6 -28 10 -4 4 -18 4 -32 0 -21 -5 -23
-4 -13 13 20 35 46 62 85 88 49 33 56 33 56 -4 0 -41 11 -37 33 10 10 22 23
40 29 40 7 0 7 -4 1 -12 -19 -24 -21 -68 -4 -77 14 -8 16 -3 16 31 0 28 6 44
20 54 10 8 15 14 11 14 -4 0 -4 5 -1 10 9 14 25 12 25 -2z m-100 -27 c0 -6 -4
-13 -10 -16 -5 -3 -10 1 -10 9 0 9 5 16 10 16 6 0 10 -4 10 -9z m156 -23 c-3
-13 -5 -25 -5 -28 -1 -3 -5 2 -11 10 -5 9 -5 19 2 27 15 19 18 16 14 -9z
m-281 -18 c-18 -20 -45 -27 -45 -12 0 16 18 34 28 28 6 -3 14 -1 17 5 4 5 10
8 13 5 3 -3 -3 -15 -13 -26z m1333 -60 l62 -51 -16 -30 c-9 -19 -31 -37 -57
-49 -23 -9 -49 -20 -57 -24 -8 -3 -28 -15 -45 -26 -16 -11 -43 -27 -60 -36
-16 -9 -41 -25 -54 -35 -40 -32 -44 -21 -9 25 18 23 62 95 98 160 36 64 67
116 70 116 3 0 33 -23 68 -50z m-1058 30 c0 -5 -2 -10 -4 -10 -3 0 -8 5 -11
10 -3 6 -1 10 4 10 6 0 11 -4 11 -10z m1206 -91 c19 -15 45 -69 34 -69 -5 0
-7 -7 -4 -15 7 -17 -7 -20 -22 -5 -8 8 -15 6 -24 -4 -13 -17 -8 -21 34 -28 30
-5 31 -26 2 -34 -17 -4 -35 0 -51 10 -13 9 -33 16 -43 16 -10 0 -29 11 -41 24
l-22 23 30 31 c17 17 31 40 31 52 0 20 4 22 32 16 17 -3 37 -11 44 -17z
m-1418 -24 c14 -13 26 -38 29 -61 5 -43 11 -38 -92 -94 -69 -37 -102 -65 -111
-92 -3 -10 -14 -18 -24 -18 -16 0 -19 -8 -19 -59 1 -46 -4 -66 -21 -89 -18
-25 -20 -35 -12 -65 8 -29 7 -37 -5 -41 -31 -12 -69 27 -64 67 1 9 -2 17 -7
17 -16 0 -21 -38 -7 -57 11 -14 11 -21 1 -33 -22 -27 -36 -69 -25 -76 6 -3 8
-12 5 -19 -2 -7 0 -17 6 -23 13 -13 2 -32 -18 -32 -22 0 -36 49 -31 107 4 42
3 51 -9 46 -23 -8 -17 20 17 83 18 33 40 75 50 96 10 20 49 80 85 135 37 54
78 118 92 143 41 74 70 100 106 93 17 -3 41 -15 54 -28z m822 -325 c0 -11 -48
-25 -57 -16 -3 3 5 10 18 15 32 13 39 13 39 1z m10 -54 c0 -33 -1 -35 -37 -33
-21 1 -53 -2 -70 -7 -26 -6 -33 -4 -33 7 0 9 14 17 37 22 21 4 40 10 43 13 7
9 43 31 53 31 4 1 7 -14 7 -33z m-140 15 c0 -9 -33 -21 -57 -21 -22 0 -14 18
10 23 39 8 47 7 47 -2z m30 -11 c0 -5 -5 -10 -11 -10 -5 0 -7 5 -4 10 3 6 8
10 11 10 2 0 4 -4 4 -10z m-50 -52 c0 -5 -6 -8 -14 -8 -7 0 -19 -7 -26 -15
-13 -16 -30 -11 -30 8 0 18 53 46 62 33 4 -6 8 -14 8 -18z m150 -7 c0 -5 -18
-24 -41 -42 -31 -24 -51 -32 -83 -33 -83 -2 -95 46 -15 59 21 4 41 11 45 16 7
12 94 12 94 0z m-1240 -117 c0 -22 -31 -72 -49 -79 -31 -12 -31 13 1 53 36 44
48 51 48 26z m104 -5 c-3 -5 -10 -7 -15 -3 -5 3 -7 10 -3 15 3 5 10 7 15 3 5
-3 7 -10 3 -15z m0 -28 c3 -4 3 -11 0 -14 -8 -8 -34 3 -34 14 0 11 27 12 34 0z"/>
<path d="M1096 1561 c-11 -17 20 -32 45 -22 l24 9 -28 11 c-34 13 -34 13 -41
2z"/>
<path d="M720 1587 c0 -12 66 -38 75 -29 4 4 -58 42 -70 42 -3 0 -5 -6 -5 -13z"/>
<path d="M1719 1258 c-10 -4 -19 -12 -19 -19 0 -6 7 -8 16 -5 9 3 29 6 45 6
18 0 29 5 29 14 0 15 -36 17 -71 4z"/>
<path d="M1810 1244 c0 -8 5 -12 10 -9 6 3 10 10 10 16 0 5 -4 9 -10 9 -5 0
-10 -7 -10 -16z"/>
<path d="M1075 1230 c-15 -6 -7 -9 30 -9 36 -1 46 2 35 9 -18 12 -38 12 -65 0z"/>
<path d="M1400 1194 c0 -8 5 -12 10 -9 6 3 10 10 10 16 0 5 -4 9 -10 9 -5 0
-10 -7 -10 -16z"/>
<path d="M1353 1180 c-10 -11 -23 -20 -29 -20 -14 0 -39 -28 -31 -36 7 -8 47
14 75 42 14 13 19 25 13 29 -6 3 -18 -3 -28 -15z"/>
<path d="M1742 1147 c-26 -28 -28 -43 -6 -51 46 -18 94 31 57 59 -24 19 -26
19 -51 -8z m33 -24 c-11 -7 -22 -13 -27 -13 -14 0 -8 19 9 29 25 13 40 1 18
-16z"/>
<path d="M1367 1039 c-29 -23 -13 -53 30 -57 40 -4 83 29 65 51 -20 23 -70 27
-95 6z m66 -16 c-13 -2 -23 -11 -23 -19 0 -12 -4 -12 -20 -4 -29 16 -15 30 28
29 23 -1 29 -3 15 -6z"/>
<path d="M885 879 c-12 -19 5 -23 22 -6 16 16 16 17 1 17 -9 0 -20 -5 -23 -11z"/>
<path d="M2240 910 c0 -5 5 -10 10 -10 6 0 10 5 10 10 0 6 -4 10 -10 10 -5 0
-10 -4 -10 -10z"/>
<path d="M2270 2155 c0 -8 5 -15 10 -15 6 0 10 7 10 15 0 8 -4 15 -10 15 -5 0
-10 -7 -10 -15z"/>
<path d="M2400 2155 c0 -8 5 -15 10 -15 6 0 10 7 10 15 0 8 -4 15 -10 15 -5 0
-10 -7 -10 -15z"/>
<path d="M2000 2135 c-8 -9 -8 -15 -2 -15 12 0 26 19 19 26 -2 2 -10 -2 -17
-11z"/>
<path d="M2345 2140 c3 -5 8 -10 11 -10 2 0 4 5 4 10 0 6 -5 10 -11 10 -5 0
-7 -4 -4 -10z"/>
<path d="M2530 2125 c0 -8 -5 -15 -12 -15 -6 0 -8 -3 -5 -6 8 -8 37 14 37 27
0 5 -4 9 -10 9 -5 0 -10 -7 -10 -15z"/>
<path d="M2390 2120 c0 -5 5 -10 10 -10 6 0 10 5 10 10 0 6 -4 10 -10 10 -5 0
-10 -4 -10 -10z"/>
<path d="M2615 2090 c-10 -11 -14 -20 -8 -20 5 0 18 9 28 20 10 11 14 20 8 20
-5 0 -18 -9 -28 -20z"/>
<path d="M1840 2090 c0 -5 5 -10 10 -10 6 0 10 5 10 10 0 6 -4 10 -10 10 -5 0
-10 -4 -10 -10z"/>
<path d="M1200 2081 c0 -6 5 -13 10 -16 6 -3 10 1 10 9 0 9 -4 16 -10 16 -5 0
-10 -4 -10 -9z"/>
<path d="M2367 2083 c-4 -3 -7 -15 -7 -25 0 -21 -68 -132 -100 -164 -20 -19
-20 -22 -4 -28 9 -3 19 -4 22 -1 3 3 0 5 -6 5 -7 0 -12 4 -12 10 0 5 6 7 14 4
8 -3 17 3 21 14 3 11 16 33 28 48 12 15 23 37 24 48 2 11 9 27 16 35 8 9 14
26 15 39 1 24 -1 26 -11 15z"/>
<path d="M2485 2079 c-11 -17 -2 -18 19 -3 17 12 17 14 4 14 -9 0 -20 -5 -23
-11z"/>
<path d="M1548 2061 c-27 -16 -37 -31 -19 -31 12 0 57 37 51 43 -3 2 -17 -3
-32 -12z"/>
<path d="M552 2040 c0 -14 2 -19 5 -12 2 6 2 18 0 25 -3 6 -5 1 -5 -13z"/>
<path d="M2427 2032 c-29 -30 -33 -42 -16 -42 5 0 8 4 5 8 -2 4 9 17 25 27 16
11 29 23 29 28 0 14 -17 6 -43 -21z"/>
<path d="M770 2039 c0 -5 5 -7 10 -4 6 3 10 8 10 11 0 2 -4 4 -10 4 -5 0 -10
-5 -10 -11z"/>
<path d="M916 2043 c-11 -11 -6 -23 9 -23 8 0 15 4 15 9 0 13 -16 22 -24 14z"/>
<path d="M1116 2041 c-4 -7 -5 -15 -2 -18 9 -9 19 4 14 18 -4 11 -6 11 -12 0z"/>
<path d="M2318 2028 c-10 -10 -14 -18 -9 -18 10 0 36 29 30 34 -2 1 -12 -6
-21 -16z"/>
<path d="M1210 2030 c0 -5 5 -10 10 -10 6 0 10 5 10 10 0 6 -4 10 -10 10 -5 0
-10 -4 -10 -10z"/>
<path d="M2155 1994 c-21 -24 -48 -44 -60 -45 -11 0 -14 -3 -7 -6 6 -2 10 -9
6 -14 -3 -5 -2 -9 3 -9 11 0 111 110 104 114 -3 2 -24 -16 -46 -40z"/>
<path d="M797 2019 c7 -7 15 -10 18 -7 3 3 -2 9 -12 12 -14 6 -15 5 -6 -5z"/>
<path d="M2560 2020 c-8 -5 -10 -10 -5 -10 6 0 17 5 25 10 8 5 11 10 5 10 -5
0 -17 -5 -25 -10z"/>
<path d="M1538 2013 c7 -3 16 -2 19 1 4 3 -2 6 -13 5 -11 0 -14 -3 -6 -6z"/>
<path d="M542 1990 c0 -14 2 -19 5 -12 2 6 2 18 0 25 -3 6 -5 1 -5 -13z"/>
<path d="M2530 2003 c0 -10 -58 -33 -83 -33 -9 0 -17 -4 -17 -10 0 -5 11 -10
25 -10 14 0 25 5 25 11 0 5 5 7 10 4 6 -3 10 -2 10 2 0 5 12 14 28 19 18 7 23
12 15 17 -7 5 -13 4 -13 0z"/>
<path d="M816 1992 c-6 -10 19 -50 27 -42 2 3 -2 16 -9 28 -6 13 -14 20 -18
14z"/>
<path d="M1163 1965 c0 -22 2 -30 4 -17 2 12 2 30 0 40 -3 9 -5 -1 -4 -23z"/>
<path d="M2365 1979 c-4 -6 -5 -13 -2 -16 7 -7 27 6 27 18 0 12 -17 12 -25 -2z"/>
<path d="M511 1964 c0 -11 3 -14 6 -6 3 7 2 16 -1 19 -3 4 -6 -2 -5 -13z"/>
<path d="M555 1960 c-3 -5 -1 -10 4 -10 6 0 11 5 11 10 0 6 -2 10 -4 10 -3 0
-8 -4 -11 -10z"/>
<path d="M380 1954 c0 -11 43 -45 48 -39 3 3 -4 14 -16 25 -22 20 -32 25 -32
14z"/>
<path d="M1310 1930 c0 -11 4 -20 9 -20 11 0 22 26 14 34 -12 12 -23 5 -23
-14z"/>
<path d="M620 1933 c0 -5 11 -13 24 -19 23 -11 24 -10 13 7 -12 19 -37 26 -37
12z"/>
<path d="M2571 1854 c0 -11 3 -14 6 -6 3 7 2 16 -1 19 -3 4 -6 -2 -5 -13z"/>
<path d="M2174 1825 c-16 -14 -31 -20 -34 -14 -4 5 -14 1 -25 -11 -10 -11 -26
-20 -36 -20 -10 0 -20 -4 -23 -9 -3 -4 12 -8 33 -8 31 0 48 8 82 38 24 21 41
41 38 44 -3 3 -19 -6 -35 -20z"/>
<path d="M2540 1840 c0 -5 5 -10 10 -10 6 0 10 5 10 10 0 6 -4 10 -10 10 -5 0
-10 -4 -10 -10z"/>
<path d="M2446 1828 c7 -12 84 -10 84 2 0 5 -20 9 -44 8 -25 -1 -42 -6 -40
-10z"/>
<path d="M640 1819 c0 -5 -4 -7 -10 -4 -6 4 -7 -2 -1 -16 4 -13 14 -25 22 -27
11 -4 12 -2 2 9 -18 18 -16 32 3 25 14 -5 15 -4 4 9 -15 18 -20 19 -20 4z"/>
<path d="M2400 1813 c-8 -4 -21 -12 -28 -20 -11 -11 -11 -13 2 -13 9 0 16 4
16 9 0 5 12 14 28 19 15 6 20 10 12 10 -8 0 -22 -2 -30 -5z"/>
<path d="M2341 1803 c0 -6 -4 -20 -7 -30 -5 -14 -4 -15 5 -7 7 7 11 20 8 30
-3 11 -5 14 -6 7z"/>
<path d="M510 1740 c0 -5 5 -10 10 -10 6 0 10 5 10 10 0 6 -4 10 -10 10 -5 0
-10 -4 -10 -10z"/>
<path d="M2063 1737 c-28 -14 -38 -46 -13 -44 9 0 17 8 16 17 -1 9 6 14 17 12
10 -2 17 3 17 13 0 17 -6 17 -37 2z"/>
<path d="M475 1709 c-12 -19 5 -23 22 -6 16 16 16 17 1 17 -9 0 -20 -5 -23
-11z"/>
<path d="M421 1691 c-8 -5 -9 -11 -3 -15 5 -3 12 1 16 9 6 17 6 18 -13 6z"/>
<path d="M500 1670 c0 -5 14 -10 31 -10 17 0 28 4 24 10 -3 6 -17 10 -31 10
-13 0 -24 -4 -24 -10z"/>
<path d="M340 1630 c0 -5 5 -10 10 -10 6 0 10 5 10 10 0 6 -4 10 -10 10 -5 0
-10 -4 -10 -10z"/>
<path d="M435 1550 c4 -6 11 -8 16 -5 14 9 11 15 -7 15 -8 0 -12 -5 -9 -10z"/>
<path d="M180 1505 c7 -9 15 -13 17 -11 7 7 -7 26 -19 26 -6 0 -6 -6 2 -15z"/>
<path d="M217 1479 c7 -7 15 -10 18 -7 3 3 -2 9 -12 12 -14 6 -15 5 -6 -5z"/>
<path d="M250 1454 c0 -7 40 -44 47 -44 12 0 -1 20 -22 34 -14 9 -25 14 -25
10z"/>
<path d="M520 1430 c0 -7 7 -10 15 -6 8 3 15 1 15 -4 0 -6 7 -10 14 -10 8 0
21 -12 28 -27 7 -14 23 -30 36 -34 13 -5 21 -5 18 0 -3 4 6 14 19 21 20 11 27
11 40 0 8 -7 19 -9 23 -5 4 4 1 10 -5 12 -7 3 -13 12 -13 20 0 11 -4 13 -12 6
-7 -6 -32 -15 -54 -20 -37 -9 -41 -8 -37 7 6 21 -13 36 -54 45 -23 4 -33 3
-33 -5z"/>
<path d="M625 1419 c-4 -6 -5 -13 -2 -16 7 -7 27 6 27 18 0 12 -17 12 -25 -2z"/>
<path d="M486 1337 c3 -10 9 -15 12 -12 3 3 0 11 -7 18 -10 9 -11 8 -5 -6z"/>
<path d="M345 1331 c-3 -5 -28 -9 -55 -7 -57 2 -65 -1 -49 -21 14 -16 33 -18
23 -2 -4 7 4 10 22 9 61 -4 84 0 84 15 0 17 -16 20 -25 6z"/>
<path d="M134 1309 c-6 -11 6 -15 44 -17 17 -1 32 2 32 7 0 11 -69 20 -76 10z"/>
<path d="M374 1304 c-13 -13 -32 -20 -51 -18 -17 1 -36 -2 -43 -6 -8 -5 11 -9
44 -11 31 -2 56 -1 56 4 0 4 9 7 19 7 27 0 51 10 51 22 0 6 -11 8 -25 6 -13
-3 -26 0 -28 5 -2 6 -12 2 -23 -9z"/>
<path d="M133 1232 c-47 -5 -41 -22 7 -22 38 0 41 -3 65 -50 16 -31 32 -50 43
-50 14 0 13 4 -7 19 -15 12 -21 23 -16 31 5 9 4 11 -3 6 -7 -4 -12 -1 -12 8 0
30 -43 62 -77 58z"/>
<path d="M429 1227 c7 -9 20 -17 27 -17 8 0 14 -4 14 -10 0 -5 7 -10 15 -10 8
0 15 5 15 11 0 5 -5 7 -12 3 -8 -5 -9 -2 -5 9 5 12 1 17 -12 17 -11 0 -28 3
-38 7 -16 6 -16 5 -4 -10z"/>
<path d="M70 1210 c0 -5 5 -10 10 -10 6 0 10 5 10 10 0 6 -4 10 -10 10 -5 0
-10 -4 -10 -10z"/>
<path d="M285 1210 c-4 -6 2 -20 14 -31 25 -23 26 -21 7 16 -9 17 -16 22 -21
15z"/>
<path d="M345 1170 c4 -6 11 -8 16 -5 14 9 11 15 -7 15 -8 0 -12 -5 -9 -10z"/>
<path d="M280 1120 c0 -5 18 -10 40 -10 22 0 40 5 40 10 0 6 -18 10 -40 10
-22 0 -40 -4 -40 -10z"/>
<path d="M425 1090 c3 -5 10 -10 16 -10 5 0 9 5 9 10 0 6 -7 10 -16 10 -8 0
-12 -4 -9 -10z"/>
<path d="M534 1039 c-21 -17 -41 -34 -44 -37 -3 -4 -18 -8 -34 -10 -19 -2 -44
-19 -72 -48 -24 -24 -39 -44 -34 -44 12 0 70 60 70 71 0 5 15 9 34 9 27 0 45
10 82 45 54 52 53 58 -2 14z"/>
<path d="M567 1030 c-16 -18 -22 -32 -16 -36 13 -7 21 1 37 39 15 34 12 34
-21 -3z"/>
<path d="M306 908 c3 -4 9 -8 15 -8 5 0 9 4 9 8 0 5 -7 9 -15 9 -8 0 -12 -4
-9 -9z"/>
<path d="M515 841 c-3 -5 -2 -12 3 -15 5 -3 9 1 9 9 0 17 -3 19 -12 6z"/>
</g>
</svg>
