<?xml version="1.0" standalone="no"?>
<!DOCTYPE svg PUBLIC "-//W3C//DTD SVG 20010904//EN"
 "http://www.w3.org/TR/2001/REC-SVG-20010904/DTD/svg10.dtd">
<svg version="1.0" xmlns="http://www.w3.org/2000/svg"
 width="300.000000pt" height="263.000000pt" viewBox="0 0 300.000000 263.000000"
 preserveAspectRatio="xMidYMid meet">
<metadata>
Created by potrace 1.10, written by Peter Selinger 2001-2011
</metadata>
<g transform="translate(0.000000,263.000000) scale(0.100000,-0.100000)"
fill="#000000" stroke="none">
<path d="M1270 2618 c0 -4 -286 -493 -635 -1086 l-635 -1080 110 -223 109
-224 1281 3 1281 2 107 220 108 219 -634 1078 c-348 593 -637 1081 -641 1086
-9 9 -451 15 -451 5z m1066 -1080 l630 -1073 -1041 -5 c-572 -3 -1042 -4
-1044 -3 -2 1 48 96 111 210 l114 208 607 3 607 2 -24 38 c-17 26 -933 1581
-993 1685 -2 4 87 7 199 7 l204 0 630 -1072z m-553 210 l497 -843 -197 -3
c-180 -2 -199 -1 -211 15 -7 10 -142 231 -300 491 -158 259 -289 472 -292 472
-3 -1 -214 -368 -470 -816 -256 -449 -493 -864 -526 -922 l-62 -105 -101 207
-100 208 627 1068 c345 588 629 1069 632 1070 3 0 230 -379 503 -842z m-331
-175 c7 -9 -74 -165 -277 -535 -158 -288 -298 -541 -311 -563 l-23 -40 1065 3
c586 1 1064 -1 1062 -5 -1 -5 -47 -97 -100 -206 l-97 -197 -1266 0 -1267 0 14
23 c8 12 243 421 522 910 l508 887 80 -132 c44 -73 85 -138 90 -145z m266
-441 c78 -128 142 -234 142 -235 0 -1 -166 -2 -370 -2 -203 0 -370 2 -370 4 0
3 262 483 322 589 l30 53 52 -88 c29 -48 116 -193 194 -321z"/>
</g>
</svg>
